<?xml version="1.0" encoding="utf-8"?>
<!-- Generated by IcoMoon.io -->
<svg version="1.1" xmlns="http://www.w3.org/2000/svg" xmlns:xlink="http://www.w3.org/1999/xlink" width="496" height="240" viewBox="0 0 496 240">
<svg id="icon-star" width="16" height="16" viewBox="0 0 16 16" x="0" y="0">
<path fill="#fff" d="M13.391 6.831c-0.094-0.271-0.335-0.47-0.626-0.513l-2.826-0.42-1.229-2.551c-0.129-0.268-0.406-0.439-0.71-0.439s-0.581 0.171-0.71 0.439l-1.229 2.551-2.827 0.42c-0.29 0.043-0.532 0.242-0.625 0.513s-0.023 0.571 0.182 0.776l2.071 2.068-0.48 2.869c-0.049 0.289 0.076 0.579 0.322 0.748 0.135 0.093 0.293 0.14 0.452 0.14 0.13 0 0.261-0.032 0.38-0.095l2.464-1.327 2.465 1.327c0.118 0.063 0.249 0.095 0.379 0.095 0.159 0 0.317-0.047 0.452-0.14 0.245-0.169 0.37-0.459 0.321-0.748l-0.481-2.869 2.072-2.068c0.205-0.205 0.275-0.504 0.182-0.776zM10.576 9.142c-0.174 0.173-0.253 0.417-0.213 0.657l0.481 2.869-2.465-1.326c-0.118-0.064-0.248-0.095-0.38-0.095s-0.261 0.032-0.379 0.095l-2.465 1.326 0.481-2.869c0.040-0.239-0.039-0.483-0.213-0.657l-2.071-2.068 2.826-0.421c0.258-0.038 0.481-0.2 0.592-0.43l1.229-2.55 1.229 2.55c0.111 0.231 0.333 0.392 0.591 0.43l2.827 0.421-2.071 2.068z"></path>
</svg>
<svg id="icon-icon" width="16" height="16" viewBox="0 0 16 16" x="32" y="0">
<path fill="#fff" d="M1.994 7.29c-1.1 0-1.992 0.892-1.992 1.992s0.892 1.992 1.992 1.992 1.992-0.892 1.992-1.992-0.892-1.992-1.992-1.992zM1.994 10.61c-0.733 0-1.328-0.594-1.328-1.328s0.594-1.328 1.328-1.328c0.733 0 1.328 0.594 1.328 1.328s-0.594 1.328-1.328 1.328zM13.944 7.29c-1.1 0-1.992 0.892-1.992 1.992s0.892 1.992 1.992 1.992 1.992-0.892 1.992-1.992-0.892-1.992-1.992-1.992zM13.944 10.61c-0.733 0-1.328-0.594-1.328-1.328s0.594-1.328 1.328-1.328 1.328 0.594 1.328 1.328c0 0.733-0.594 1.328-1.328 1.328zM7.969 7.29c-1.1 0-1.992 0.892-1.992 1.992s0.892 1.992 1.992 1.992 1.992-0.892 1.992-1.992-0.892-1.992-1.992-1.992zM7.969 10.61c-0.733 0-1.328-0.594-1.328-1.328s0.594-1.328 1.328-1.328c0.733 0 1.328 0.594 1.328 1.328s-0.594 1.328-1.328 1.328z"></path>
</svg>
<svg id="icon-point" width="16" height="16" viewBox="0 0 16 16" x="64" y="0">
<path fill="#fff" d="M5.038 8c0 1.636 1.326 2.962 2.962 2.962s2.962-1.326 2.962-2.962c0-1.636-1.326-2.962-2.962-2.962s-2.962 1.326-2.962 2.962c0 0 0 0 0 0z"></path>
</svg>
<svg id="icon-radio_current" width="16" height="16" viewBox="0 0 16 16" x="96" y="0">
<path fill="#fff" d="M7.983 0.993c-3.861 0-6.991 3.129-6.991 6.992 0 3.859 3.13 6.988 6.991 6.988s6.991-3.129 6.991-6.988c0-3.863-3.13-6.992-6.991-6.992zM6.885 11.601l-3.296-3.297 1.098-1.097 2.197 2.195 4.394-4.392 1.098 1.098-5.492 5.493z"></path>
</svg>
<svg id="icon-right-arrow" width="16" height="16" viewBox="0 0 16 16" x="128" y="0">
<path fill="#fff" d="M9.139 8.672c0.374-0.383 0.374-1.004 0-1.387l-6.813-6.995c-0.374-0.383-0.98-0.383-1.354 0s-0.374 1.004 0 1.387l6.137 6.301-6.137 6.301c-0.374 0.383-0.374 1.004 0 1.387s0.98 0.383 1.354 0l6.813-6.995zM6.879 1.677l6.137 6.301-6.137 6.301c-0.374 0.383-0.374 1.004 0 1.387s0.98 0.383 1.354 0l6.813-6.995c0.374-0.383 0.374-1.004 0-1.387l-6.813-6.995c-0.374-0.383-0.98-0.383-1.354 0s-0.374 1.004 0 1.387z"></path>
</svg>
<svg id="icon-left-arrow" width="16" height="16" viewBox="0 0 16 16" x="160" y="0">
<path fill="#fff" d="M6.861 7.328c-0.374 0.383-0.374 1.004 0 1.387l6.813 6.995c0.374 0.383 0.98 0.383 1.354 0s0.374-1.004 0-1.387l-6.137-6.301 6.137-6.301c0.374-0.383 0.374-1.004 0-1.387s-0.98-0.383-1.354 0l-6.813 6.995zM9.121 14.323l-6.137-6.301 6.137-6.301c0.374-0.383 0.374-1.004 0-1.387s-0.98-0.383-1.354 0l-6.813 6.995c-0.374 0.383-0.374 1.004 0 1.387l6.813 6.995c0.374 0.383 0.98 0.383 1.354 0s0.374-1.004 0-1.387z"></path>
</svg>
<svg id="icon-box" width="16" height="16" viewBox="0 0 16 16" x="192" y="0">
<path fill="#fff" d="M13.806 3.382l-5.699-1.819c-0.186-0.059-0.386-0.058-0.572 0.003l-5.381 1.775c-0.15 0.052-0.157 0.262-0.010 0.322l5.286 2.099c0.5 0.199 1.059 0.195 1.556-0.011l4.835-2.001c0.169-0.070 0.158-0.311-0.015-0.367zM7.959 13.196l-0.369-5.884c-0.020-0.326-0.223-0.612-0.524-0.739l-5.092-2.152c-0.198-0.084-0.41 0.086-0.371 0.297l0.899 4.947c0.074 0.409 0.317 0.769 0.67 0.99l4.404 2.768c0.173 0.109 0.396-0.024 0.383-0.227zM13.589 4.583l-4.217 1.903c-0.498 0.238-0.816 0.741-0.816 1.292l-0.022 5.36c0 0.274 0.306 0.437 0.534 0.284l4.54-3.241c0.276-0.233 0.35-0.467 0.387-0.811l0.391-4.211c0.090-0.808-0.235-0.855-0.798-0.577z"></path>
</svg>
<svg id="icon-yuan-copy-copy-copy-copy" width="16" height="16" viewBox="0 0 16 16" x="224" y="0">
<path fill="#fff" d="M0.025 8.129c0 4.347 3.524 7.871 7.871 7.871s7.871-3.524 7.871-7.871c0-4.347-3.524-7.871-7.871-7.871s-7.871 3.524-7.871 7.871z"></path>
</svg>
<svg id="icon-radiooff" width="16" height="16" viewBox="0 0 16 16" x="256" y="0">
<path fill="#fff" d="M8 0.425c-4.181 0-7.574 3.393-7.574 7.575s3.393 7.575 7.574 7.575 7.575-3.393 7.575-7.575-3.393-7.574-7.575-7.574zM8 14.059c-3.348 0-6.059-2.712-6.059-6.059s2.712-6.059 6.059-6.059 6.059 2.712 6.059 6.059-2.712 6.059-6.059 6.059z"></path>
</svg>
<svg id="icon-message" width="16" height="16" viewBox="0 0 16 16" x="288" y="0">
<path fill="#fff" d="M14.046 1.974h-12.12c-0.527 0-0.955 0.428-0.955 0.955v8.547c0 0.527 0.428 0.955 0.955 0.955h2.5c0.064 0 0.113 0.055 0.106 0.118l0.129 1.794c-0.007 0.055 0.027 0.087 0.066 0.048l2.016-1.856c0.067-0.067 0.045-0.104 0.14-0.104h7.163c0.527 0 0.955-0.428 0.955-0.955v-8.547c0-0.527-0.428-0.955-0.955-0.955zM4.047 8.357c-0.701 0-1.269-0.568-1.269-1.269s0.568-1.269 1.269-1.269c0.701 0 1.269 0.568 1.269 1.269s-0.568 1.269-1.269 1.269zM8.109 8.357c-0.701 0-1.269-0.568-1.269-1.269s0.568-1.269 1.269-1.269c0.701 0 1.269 0.568 1.269 1.269s-0.568 1.269-1.269 1.269zM11.946 8.357c-0.701 0-1.269-0.568-1.269-1.269s0.568-1.269 1.269-1.269c0.701 0 1.269 0.568 1.269 1.269s-0.568 1.269-1.269 1.269z"></path>
</svg>
<svg id="icon-menu" width="16" height="16" viewBox="0 0 16 16" x="320" y="0">
<path fill="#fff" d="M14.258 3.575h-12.52c-0.702 0-1.272-0.569-1.272-1.272s0.569-1.272 1.272-1.272h12.52c0.702 0 1.271 0.569 1.271 1.272s-0.569 1.272-1.271 1.272zM15.53 7.977c0-0.702-0.569-1.271-1.271-1.271h-12.52c-0.702 0-1.272 0.569-1.272 1.271s0.569 1.272 1.272 1.272h12.52c0.702 0 1.271-0.569 1.271-1.272zM15.53 13.65c0-0.702-0.569-1.271-1.271-1.271h-12.52c-0.702 0-1.272 0.569-1.272 1.271s0.569 1.271 1.272 1.271h12.52c0.702 0 1.271-0.569 1.271-1.271z"></path>
</svg>
<svg id="icon-xiajiantou" width="16" height="16" viewBox="0 0 16 16" x="352" y="0">
<path fill="#fff" d="M15.797 1.366l-1.131-1.133-6.634 6.635-6.635-6.635-1.131 1.133 7.766 7.765zM8.032 13.269l-6.635-6.635-1.131 1.133 7.766 7.765 7.765-7.765-1.131-1.133z"></path>
</svg>
<svg id="icon-menu1" width="16" height="16" viewBox="0 0 16 16" x="384" y="0">
<path fill="#fff" d="M9.446 7.453c-0.579 0-1.048-0.469-1.048-1.048v-4.251c0-0.579 0.469-1.048 1.048-1.048h4.251c0.579 0 1.048 0.469 1.048 1.048v4.251c0 0.579-0.469 1.048-1.048 1.048h-4.251zM13.358 6.947c0.486 0 0.881-0.394 0.881-0.881v-3.572c0-0.486-0.394-0.881-0.881-0.881h-3.572c-0.486 0-0.881 0.394-0.881 0.881v3.572c0 0.486 0.394 0.881 0.881 0.881h3.572zM2.22 7.453c-0.579 0-1.048-0.469-1.048-1.048v-4.251c0-0.579 0.469-1.048 1.048-1.048h4.251c0.579 0 1.048 0.469 1.048 1.048v4.251c0 0.579-0.469 1.048-1.048 1.048h-4.251zM6.131 6.947c0.486 0 0.881-0.394 0.881-0.881v-3.572c0-0.486-0.394-0.881-0.881-0.881h-3.572c-0.486 0-0.881 0.394-0.881 0.881v3.572c0 0.486 0.394 0.881 0.881 0.881h3.572zM2.22 14.58c-0.579 0-1.048-0.469-1.048-1.048v-4.251c0-0.579 0.469-1.048 1.048-1.048h4.251c0.579 0 1.048 0.469 1.048 1.048v4.251c0 0.579-0.469 1.048-1.048 1.048h-4.251zM6.131 14.073c0.486 0 0.881-0.394 0.881-0.881v-3.572c0-0.486-0.394-0.881-0.881-0.881h-3.572c-0.486 0-0.881 0.394-0.881 0.881v3.572c0 0.486 0.394 0.881 0.881 0.881h3.572zM12.221 14.689c-0.359 0.359-0.94 0.359-1.298 0l-2.633-2.633c-0.359-0.359-0.359-0.94 0-1.298l2.633-2.633c0.359-0.359 0.94-0.359 1.298 0l2.633 2.633c0.359 0.359 0.359 0.94 0 1.298l-2.633 2.633zM14.33 11.952c0.301-0.301 0.301-0.79 0-1.091l-2.213-2.213c-0.301-0.301-0.79-0.301-1.091 0l-2.212 2.212c-0.301 0.301-0.301 0.79 0 1.091l2.212 2.212c0.301 0.301 0.79 0.301 1.091 0l2.213-2.212z"></path>
</svg>
<svg id="icon-view1" width="16" height="16" viewBox="0 0 16 16" x="416" y="0">
<path fill="#fff" d="M8 6.5c-0.828 0-1.5 0.672-1.5 1.5s0.672 1.5 1.5 1.5v0c0.828 0 1.5-0.672 1.5-1.5s-0.672-1.5-1.5-1.5v0zM15.999 8.095c-0-0.007-0.001-0.014-0.002-0.020-0-0.004-0.001-0.008-0.001-0.011l0 0.001c0-0.005-0.001-0.010-0.002-0.014-0.001-0.006-0.001-0.011-0.002-0.017-0.001-0.001-0.001-0.002-0.001-0.002-0.021-0.132-0.081-0.247-0.167-0.337l0 0c-0.511-0.619-1.118-1.17-1.735-1.673-1.329-1.084-2.851-1.991-4.529-2.356-0.97-0.211-1.947-0.22-2.922-0.041-0.887 0.162-1.742 0.5-2.543 0.918-1.253 0.655-2.397 1.558-3.393 2.57-0.184 0.187-0.368 0.378-0.536 0.582-0.223 0.271-0.223 0.592 0 0.863 0.51 0.619 1.117 1.169 1.735 1.673 1.33 1.084 2.851 1.991 4.53 2.356 0.97 0.211 1.947 0.22 2.922 0.041 0.887-0.162 1.742-0.5 2.543-0.918 1.253-0.655 2.396-1.558 3.393-2.57 0.184-0.188 0.368-0.379 0.536-0.582 0.089-0.092 0.148-0.21 0.167-0.337l0.001-0.002c0.001-0.005 0.002-0.010 0.002-0.016l0-0.001c0.001-0.005 0.002-0.010 0.002-0.014l0.001-0.010 0.002-0.020c0-0.010 0.001-0.020 0.001-0.030l-0.002-0.031zM8 11c-1.657 0-3-1.343-3-3s1.343-3 3-3 3 1.343 3 3c0 1.657-1.343 3-3 3z"></path>
</svg>
<svg id="icon-new" width="16" height="16" viewBox="0 0 16 16" x="448" y="0">
<path fill="#fff" d="M14.096 4.6h-11.096c-0.6 0-1 0.4-1 1v3.504l-1 2.304 2.096-0.4h11c0.6 0 1-0.4 1-1v-4.408c0.008-0.496-0.496-1-1-1zM6.704 9.264h-0.544l-1.256-1.76v1.76h-0.624v-2.928h0.544l1.256 1.76v-1.76h0.624v2.928zM9.504 9.264h-2.224v-2.928h2.12v0.624h-1.496v0.576h1.504v0.624h-1.504v0.52h1.6v0.584zM12.664 9.264h-0.544l-0.488-1.792-0.568 1.792h-0.536l-0.784-2.92h0.632l0.48 1.752 0.48-1.752h0.544l0.48 1.752 0.48-1.752h0.632l-0.808 2.92z"></path>
</svg>
<svg id="icon-tuding" width="16" height="16" viewBox="0 0 16 16" x="480" y="0">
<path fill="#fff" d="M5.21 0.326l-4.862 4.862c-0.166 0.165-0.268 0.394-0.268 0.647 0 0.001 0 0.002 0 0.003v-0c0 0.001 0 0.002 0 0.003 0 0.253 0.103 0.481 0.268 0.647l0.269 0.269c0.266 0.266 0.732 0.459 1.109 0.459h0.919c0.13 0 0.366 0.097 0.459 0.19l2.565 2.565c0.093 0.093 0.19 0.329 0.19 0.459v0.919c0 0.377 0.193 0.842 0.459 1.109l0.269 0.269c0.358 0.358 0.941 0.358 1.299 0l1.426-1.426 5.911 4.547c0.077 0.059 0.174 0.095 0.28 0.095 0.127 0 0.242-0.051 0.325-0.135l0-0c0.083-0.083 0.134-0.197 0.134-0.324 0-0 0-0.001 0-0.001v0c0-0.098-0.031-0.196-0.096-0.28l-4.547-5.911 1.426-1.427c0.166-0.165 0.268-0.394 0.268-0.647 0-0.001 0-0.002 0-0.003v0c0-0.245-0.096-0.477-0.268-0.649l-0.269-0.269c-0.266-0.266-0.732-0.459-1.109-0.459h-0.919c-0.13 0-0.366-0.097-0.459-0.19l-2.566-2.565c-0.093-0.093-0.19-0.329-0.19-0.459v-0.918c0-0.377-0.193-0.842-0.459-1.109l-0.269-0.269c-0.173-0.173-0.404-0.268-0.649-0.268s-0.477 0.096-0.649 0.268h0.002zM12.993 12.971l-3.025-2.327 0.698-0.698 2.327 3.025zM6.129 1.245c0.093 0.093 0.19 0.329 0.19 0.459v0.919c0 0.377 0.193 0.842 0.459 1.109l2.565 2.565c0.266 0.266 0.732 0.459 1.109 0.459h0.918c0.13 0 0.367 0.097 0.459 0.19l0.268 0.268v0.001h0.001l-4.862 4.862-0.269-0.269c-0.093-0.093-0.19-0.329-0.19-0.459v-0.919c0-0.377-0.193-0.842-0.459-1.108l-2.565-2.566c-0.266-0.266-0.732-0.459-1.109-0.459h-0.919c-0.13 0-0.367-0.097-0.459-0.19l-0.269-0.269 4.862-4.862 0.269 0.269z"></path>
</svg>
<svg id="icon-folder_add" width="16" height="16" viewBox="0 0 16 16" x="0" y="32">
<path fill="#fff" d="M15 12.25h-0.75v-0.75c0-0.414-0.336-0.75-0.75-0.75s-0.75 0.336-0.75 0.75v0 0.75h-0.75c-0.414 0-0.75 0.336-0.75 0.75s0.336 0.75 0.75 0.75v0h0.75v0.75c0 0.414 0.336 0.75 0.75 0.75s0.75-0.336 0.75-0.75v0-0.75h0.75c0.414 0 0.75-0.336 0.75-0.75s-0.336-0.75-0.75-0.75v0zM0 12.75c0 0.414 0.336 0.75 0.75 0.75v0h9.842c-0.056-0.148-0.090-0.32-0.092-0.499v-0.001c0-0.828 0.672-1.5 1.5-1.5v0c0-0.828 0.672-1.5 1.5-1.5s1.5 0.672 1.5 1.5v0c0.386 0 0.735 0.15 1 0.389v-7.139h-16v8zM15.25 2.5h-9.255l-1.495-1.5h-3.75c-0.414 0-0.75 0.336-0.75 0.75v0 2.25h16v-0.75c0-0.414-0.336-0.75-0.75-0.75v0z"></path>
</svg>
<svg id="icon-view" width="16" height="16" viewBox="0 0 16 16" x="32" y="32">
<path fill="#fff" d="M10.065 5.012h-5.581c-0.132 0-0.22-0.088-0.22-0.22s0.088-0.22 0.22-0.22h5.581c0.132 0 0.22 0.088 0.22 0.22s-0.132 0.22-0.22 0.22zM7.341 6.989h-2.856c-0.132 0-0.22-0.088-0.22-0.22s0.088-0.22 0.22-0.22h2.9c0.132 0 0.22 0.088 0.22 0.22s-0.132 0.22-0.264 0.22zM11.34 13.537h-7.69c-0.615 0-1.143-0.527-1.143-1.143v-8.701c0-0.615 0.527-1.143 1.143-1.143h7.69c0.615 0 1.143 0.527 1.143 1.143v1.318c0 0.132-0.088 0.22-0.22 0.22s-0.22-0.088-0.22-0.22v-1.318c0-0.396-0.308-0.703-0.703-0.703h-7.69c-0.396 0-0.703 0.308-0.703 0.703v8.701c0 0.396 0.308 0.703 0.703 0.703h7.69c0.396 0 0.703-0.308 0.703-0.703 0-0.132 0.088-0.22 0.22-0.22s0.22 0.088 0.22 0.22c0 0.659-0.527 1.143-1.143 1.143zM10.856 10.681c-1.23 0-2.197-1.011-2.197-2.197s1.011-2.197 2.197-2.197 2.197 1.011 2.197 2.197-0.967 2.197-2.197 2.197zM10.856 6.682c-0.967 0-1.758 0.791-1.758 1.758s0.791 1.758 1.758 1.758 1.758-0.791 1.758-1.758-0.791-1.758-1.758-1.758zM14.372 11.867c-0.044 0-0.132 0-0.176-0.044l-1.934-1.934c-0.088-0.088-0.088-0.22 0-0.308s0.22-0.088 0.308 0l1.934 1.934c0.088 0.088 0.088 0.22 0 0.308 0 0-0.088 0.044-0.132 0.044z"></path>
</svg>
<svg id="icon-delete" width="16" height="16" viewBox="0 0 16 16" x="64" y="32">
<path fill="#fff" d="M0.8 1.6h14.4v1.6h-14.4zM5.6 0h4.8v1.6h-4.8zM2.4 4.8h1.6v10.4h-1.6zM4.8 6.88h1.6v6.96h-1.6zM7.2 6.88h1.6v6.96h-1.6zM9.6 6.88h1.6v6.96h-1.6zM12.16 4.8h1.6v10.4h-1.6zM2.4 4h11.36v1.6h-11.36zM2.4 14.4h11.36v1.6h-11.36z"></path>
</svg>
<svg id="icon-edit" width="16" height="16" viewBox="0 0 16 16" x="96" y="32">
<path fill="#fff" d="M0.8 5.6h4.8v-4.8zM13.040 4.56l-6.48 5.92-0.56 2.48 2.72-0.32 6.48-5.84-2.16-2.24zM6.64 12.4l0.32-1.12 0.88 0.88-1.2 0.24zM2.4 14.4h8.8v1.6h-8.8zM0.8 16v-10.4h1.6v10.4zM11.2 16v-3.2h1.6v3.2zM11.2 8v-7.2h1.6v7.2zM5.6 0.8h5.6v1.6h-5.6z"></path>
</svg>
<svg id="icon-add" width="16" height="16" viewBox="0 0 16 16" x="128" y="32">
<path fill="#fff" d="M1.6 7.040h13.2v2.4h-13.2zM7.040 1.6h2.4v13.2h-2.4z"></path>
</svg>
<svg id="icon-check" width="16" height="16" viewBox="0 0 16 16" x="160" y="32">
<path fill="#fff" d="M8 0.8c-4 0-7.2 3.2-7.2 7.2s3.2 7.2 7.2 7.2 7.2-3.2 7.2-7.2-3.2-7.2-7.2-7.2zM8.72 11.84h-1.28v-1.44h1.28v1.44zM9.12 5.6l-0.48 4.16h-1.2l-0.48-4.16v-1.68h2.24v1.68z"></path>
</svg>
<svg id="icon-clock" width="16" height="16" viewBox="0 0 16 16" x="192" y="32">
<path fill="#fff" d="M8 0.8c-4 0-7.2 3.2-7.2 7.2s3.2 7.2 7.2 7.2 7.2-3.2 7.2-7.2-3.2-7.2-7.2-7.2zM8 13.68c-3.12 0-5.68-2.56-5.68-5.68s2.56-5.68 5.68-5.68 5.68 2.56 5.68 5.68c0 3.12-2.56 5.68-5.68 5.68zM7.68 9.28c-0.4 0-0.8-0.32-0.8-0.8v-4.080c0-0.4 0.32-0.8 0.8-0.8 0.4 0 0.8 0.32 0.8 0.8v4.080c0 0.4-0.4 0.8-0.8 0.8zM12.16 10c-0.080 0.32-0.4 0.48-0.64 0.4l-4.16-1.2c-0.32-0.080-0.48-0.4-0.4-0.64 0.080-0.32 0.4-0.48 0.64-0.4l4.16 1.2c0.32 0.080 0.48 0.4 0.4 0.64z"></path>
</svg>
<svg id="icon-close" width="16" height="16" viewBox="0 0 16 16" x="224" y="32">
<path fill="#fff" d="M2.713 12.046l9.334-9.334 1.697 1.697-9.334 9.334zM2.713 4.354l1.697-1.698 9.334 9.334-1.696 1.696z"></path>
</svg>
<svg id="icon-calendar" width="16" height="16" viewBox="0 0 16 16" x="256" y="32">
<path fill="#fff" d="M3.36 7.2h1.6v1.6h-1.6zM5.92 7.2h1.6v1.6h-1.6zM8.48 7.2h1.6v1.6h-1.6zM11.12 7.2h1.6v1.6h-1.6zM3.36 9.84h1.6v1.6h-1.6zM5.92 9.84h1.6v1.6h-1.6zM8.48 9.84h1.6v1.6h-1.6zM11.12 9.84h1.6v1.6h-1.6zM3.36 12.4h1.6v1.6h-1.6zM5.92 12.4h1.6v1.6h-1.6zM8.48 12.4h1.6v1.6h-1.6zM11.12 12.4h1.6v1.6h-1.6zM14 1.92h-1.36v0.8c0 0.8-0.64 1.44-1.44 1.44s-1.44-0.64-1.44-1.44v-0.8h-2.72v0.8c0 0.8-0.64 1.44-1.44 1.44s-1.44-0.64-1.44-1.44v-0.8h-1.84c-0.72 0-1.2 0.56-1.2 1.2v11.6c0 0.72 0.56 1.2 1.2 1.2h11.6c0.72 0 1.2-0.56 1.2-1.2v-11.6c0.080-0.64-0.48-1.2-1.12-1.2zM14 14.8h-11.68v-8.8h11.6v8.8zM5.6 3.76c-0.48 0-0.96-0.4-0.96-0.96v-1.44c0.080-0.56 0.48-0.96 0.96-0.96s0.96 0.4 0.96 0.96v1.52c0 0.48-0.4 0.88-0.96 0.88zM11.2 3.6c-0.48 0-0.96-0.4-0.96-0.96v-1.44c0-0.48 0.4-0.96 0.96-0.96 0.48 0 0.96 0.4 0.96 0.96v1.52c-0.080 0.48-0.48 0.88-0.96 0.88z"></path>
</svg>
<svg id="icon-download" width="16" height="16" viewBox="0 0 16 16" x="288" y="32">
<path fill="#fff" d="M7.28 0h2.24v10.24h-2.24zM3.6 8.577l1.584-1.584 4.808 4.808-1.584 1.584zM11.616 6.993l1.584 1.584-4.808 4.808-1.584-1.584zM1.6 13.6h13.6v2.24h-13.6z"></path>
</svg>
<svg id="icon-first" width="16" height="16" viewBox="0 0 16 16" x="320" y="32">
<path fill="#fff" d="M11.2 2.72v11.68l-6.4-5.84 6.4-5.84zM5.6 14.4h-1.6v-12h1.6z"></path>
</svg>
<svg id="icon-Eye" width="16" height="16" viewBox="0 0 16 16" x="352" y="32">
<path fill="#fff" d="M8.080 12c-5.12 0-7.28-4-7.36-4.16l-0.16-0.16 0.080-0.16c0.16-0.24 2.64-4.16 7.28-4.16s7.44 3.92 7.6 4.080l0.16 0.16-0.080 0.24c-0.080 0.16-2.16 4.16-7.52 4.16zM1.52 7.68c0.48 0.8 2.48 3.52 6.56 3.52 4.24 0 6.16-2.72 6.64-3.52-0.64-0.8-3.2-3.6-6.8-3.6-3.68 0.080-5.92 2.88-6.4 3.6zM8 10.4c-1.68 0-2.96-1.2-2.96-2.72s1.36-2.72 2.96-2.72c1.68 0 2.96 1.2 2.96 2.72s-1.36 2.72-2.96 2.72zM8 5.76c-1.2 0-2.16 0.88-2.16 1.92s0.96 1.92 2.16 1.92 2.16-0.88 2.16-1.92c0-1.040-0.96-1.92-2.16-1.92zM7.6 7.6c0 0.442 0.358 0.8 0.8 0.8s0.8-0.358 0.8-0.8v0c0-0.442-0.358-0.8-0.8-0.8s-0.8 0.358-0.8 0.8v0z"></path>
</svg>
<svg id="icon-Last" width="16" height="16" viewBox="0 0 16 16" x="384" y="32">
<path fill="#fff" d="M4 14.080v-11.68l6.4 5.84-6.4 5.84zM9.6 2.4h1.6v12h-1.6z"></path>
</svg>
<svg id="icon-Maximization" width="16" height="16" viewBox="0 0 16 16" x="416" y="32">
<path fill="#fff" d="M15.921 6.289c0-0.318-0.239-0.557-0.557-0.557s-0.557 0.239-0.557 0.557v7.005c0 0.398-0.159 0.796-0.478 1.114s-0.716 0.478-1.114 0.478h-10.587c-0.398 0-0.796-0.159-1.114-0.478s-0.478-0.716-0.478-1.114v-10.587c0-0.876 0.716-1.512 1.512-1.512h7.005c0.318 0 0.557-0.239 0.557-0.557s-0.239-0.557-0.557-0.557l-6.925-0.080c-1.433 0-2.627 1.194-2.627 2.706v10.587c0 0.716 0.318 1.353 0.796 1.91 0.478 0.478 1.194 0.796 1.91 0.796h10.587c0.716 0 1.353-0.318 1.91-0.796 0.478-0.478 0.796-1.194 0.796-1.91v-7.005h-0.080zM11.941 1.114h2.070l-7.801 7.801c-0.239 0.239-0.239 0.557 0 0.796s0.557 0.239 0.796 0l7.801-7.801v2.070c0 0.159 0.080 0.318 0.159 0.398s0.239 0.159 0.398 0.159 0.318-0.080 0.398-0.159c0.080-0.080 0.159-0.239 0.159-0.398v-3.423c0-0.318-0.318-0.557-0.637-0.557h-3.423c-0.318 0-0.557 0.239-0.557 0.557 0.080 0.318 0.318 0.557 0.637 0.557z"></path>
</svg>
<svg id="icon-minimize" width="16" height="16" viewBox="0 0 16 16" x="448" y="32">
<path fill="#fff" d="M14.4 7.2v1.6h-12v-1.6z"></path>
</svg>
<svg id="icon-Previouspage" width="16" height="16" viewBox="0 0 16 16" x="480" y="32">
<path fill="#fff" d="M8 2.4v11.68l-7.76-5.84 7.76-5.84zM15.2 2.4v11.68l-7.76-5.84 7.76-5.84z"></path>
</svg>
<svg id="icon-nextpage" width="16" height="16" viewBox="0 0 16 16" x="0" y="64">
<path fill="#fff" d="M7.44 14.080v-11.68l7.76 5.84-7.76 5.84zM0.24 14.080v-11.68l7.76 5.84-7.76 5.84z"></path>
</svg>
<svg id="icon-link" width="16" height="16" viewBox="0 0 16 16" x="32" y="64">
<path fill="#fff" d="M5.12 13.2c-0.4 0.4-1.040 0.4-1.44 0l-1.44-1.44c-0.4-0.4-0.4-1.040 0-1.44l3.6-3.6c-0.8-0.48-1.84-0.4-2.48 0.24l-2.56 2.56c-0.8 0.8-0.8 2.080 0 2.88l2.16 2.16c0.8 0.8 2.080 0.8 2.88 0l2.56-2.56c0.64-0.64 0.8-1.68 0.32-2.48l-3.6 3.68zM14.56 2.96l-2.16-2.16c-0.8-0.8-2.080-0.8-2.88 0l-2.56 2.56c-0.64 0.64-0.8 1.68-0.32 2.48l3.6-3.6c0.4-0.4 1.040-0.4 1.44 0l1.44 1.44c0.4 0.4 0.4 1.040 0 1.44l-3.6 3.6c0.8 0.48 1.84 0.4 2.48-0.32l2.56-2.56c0.8-0.8 0.8-2.080 0-2.88zM4.4 10.32c0 0.4 0.32 0.8 0.8 0.8 0.24 0 0.4-0.080 0.56-0.24l5.040-5.040c0.16-0.16 0.24-0.32 0.24-0.56 0-0.4-0.32-0.8-0.8-0.8-0.24 0-0.4 0.080-0.56 0.24l-5.040 5.040c-0.16 0.080-0.24 0.32-0.24 0.56zM4.4 10.32"></path>
</svg>
<svg id="icon-search2" width="16" height="16" viewBox="0 0 16 16" x="64" y="64">
<path fill="#fff" d="M6.244 0.399c-3.192 0-5.825 2.633-5.825 5.825s2.633 5.825 5.825 5.825 5.825-2.633 5.825-5.825-2.554-5.825-5.825-5.825zM6.244 10.454c-2.314 0-4.229-1.915-4.229-4.229s1.915-4.229 4.229-4.229 4.229 1.915 4.229 4.229c0 2.394-1.835 4.229-4.229 4.229zM13.347 15.641l-4.229-4.229c-0.399-0.399-0.399-1.117 0-1.516l0.080-0.080c0.399-0.399 1.117-0.399 1.516 0l4.229 4.229c0.399 0.399 0.399 1.117 0 1.516l-0.080 0.080c-0.399 0.479-1.117 0.479-1.516 0z"></path>
</svg>
<svg id="icon-storage" width="16" height="16" viewBox="0 0 16 16" x="96" y="64">
<path fill="#fff" d="M12.8 6.32c-0.16-2.48-2.24-4.4-4.72-4.4s-4.48 1.92-4.72 4.4c-1.84 0.16-3.36 1.76-3.36 3.68s1.44 3.52 3.28 3.68h1.2c0.24 0 0.4-0.16 0.4-0.4s-0.16-0.4-0.4-0.4h-1.040c-1.44-0.16-2.48-1.36-2.48-2.8 0-1.6 1.28-2.88 2.88-2.88 0.24 0 0.4-0.16 0.4-0.4 0-2.16 1.76-3.92 3.92-3.92s3.92 1.76 3.92 3.92c0 0.24 0.16 0.4 0.4 0.4 1.52 0 2.72 1.28 2.72 2.88 0 1.52-1.44 2.72-2.72 2.8h-1.28c-0.24 0-0.4 0.16-0.4 0.4s0.16 0.4 0.4 0.4h1.2c1.68-0.16 3.52-1.68 3.52-3.68 0.080-2-1.28-3.52-3.12-3.68zM8 10.64l-1.28 1.36v-5.76c0-0.24-0.16-0.4-0.4-0.4s-0.4 0.16-0.4 0.4v5.6l-1.2-1.2c-0.16-0.16-0.4-0.16-0.56 0s-0.16 0.4 0 0.56l2 2c0.080 0.080 0.16 0.080 0.32 0.080 0.080 0 0.24 0 0.32-0.080l2-2c0.16-0.16 0.16-0.4 0-0.56-0.32-0.16-0.64-0.16-0.8 0zM11.68 8.72c0.16 0.16 0.4 0.16 0.56 0s0.16-0.4 0-0.56l-2-2c-0.16-0.16-0.4-0.16-0.56 0l-0.080 0.16-1.84 1.84c-0.16 0.16-0.16 0.4 0 0.56 0.080 0.080 0.16 0.080 0.32 0.080 0.080 0 0.24 0 0.32-0.080l1.2-1.2 0.080 5.2c0 0.24 0.16 0.4 0.4 0.4s0.4-0.16 0.4-0.4l-0.080-5.44 1.28 1.44zM11.68 8.72"></path>
</svg>
<svg id="icon-search" width="16" height="16" viewBox="0 0 16 16" x="128" y="64">
<path fill="#fff" d="M6.244 0.399c-3.192 0-5.825 2.633-5.825 5.825s2.633 5.825 5.825 5.825 5.825-2.633 5.825-5.825-2.554-5.825-5.825-5.825zM6.244 10.454c-2.314 0-4.229-1.915-4.229-4.229s1.915-4.229 4.229-4.229 4.229 1.915 4.229 4.229c0 2.394-1.835 4.229-4.229 4.229zM13.347 15.641l-4.229-4.229c-0.399-0.399-0.399-1.117 0-1.516l0.080-0.080c0.399-0.399 1.117-0.399 1.516 0l4.229 4.229c0.399 0.399 0.399 1.117 0 1.516l-0.080 0.080c-0.399 0.479-1.117 0.479-1.516 0z"></path>
</svg>
<svg id="icon-jiaosemoxing" width="16" height="16" viewBox="0 0 16 16" x="160" y="64">
<path fill="#fff" d="M8.48 8.32c-0.72 0.48-1.52 0.72-2.4 0.72s-1.68-0.24-2.4-0.72c-1.84 0.88-3.2 2.88-3.2 5.12 0 2.32 11.12 2.4 11.12 0 0.080-2.24-1.2-4.24-3.12-5.12zM6.080 8.4c2.080 0 3.76-1.68 3.76-3.76s-1.68-3.76-3.76-3.76c-2-0.080-3.68 1.68-3.68 3.76s1.68 3.76 3.68 3.76zM12.72 8.080c-0.56 0.4-1.2 0.64-1.92 0.64 1.36 1.12 2.24 2.88 2.24 4.88v0.24c1.44-0.24 2.48-0.64 2.48-1.36-0.080-1.92-1.2-3.6-2.8-4.4zM9.6 8.080c0.32 0.16 0.72 0.24 1.12 0.24 1.68 0 3.040-1.36 3.040-3.12s-1.36-3.12-3.040-3.12h-0.24c0.48 0.72 0.8 1.6 0.8 2.56-0.080 1.36-0.72 2.64-1.68 3.44z"></path>
</svg>
<svg id="icon-gangweimoxing" width="16" height="16" viewBox="0 0 16 16" x="192" y="64">
<path fill="#fff" d="M8 8.4c-2.24 0-4-1.76-4-4 0-2.16 1.76-4 4-4 2.16 0 4 1.76 4 4s-1.76 4-4 4zM0.8 12.8c0 1.546 1.254 2.8 2.8 2.8s2.8-1.254 2.8-2.8v0c0-1.546-1.254-2.8-2.8-2.8s-2.8 1.254-2.8 2.8v0zM9.6 12.8c0 1.546 1.254 2.8 2.8 2.8s2.8-1.254 2.8-2.8v0c0-1.546-1.254-2.8-2.8-2.8s-2.8 1.254-2.8 2.8v0zM11.84 10.88c-0.4 0.24-0.88 0.080-1.12-0.32l-1.44-2.48c-0.16-0.32-0.080-0.88 0.32-1.040 0.4-0.24 0.88-0.080 1.12 0.32l1.44 2.48c0.16 0.32 0.080 0.8-0.32 1.040zM4 10.88c0.4 0.24 0.88 0.080 1.12-0.32l1.44-2.48c0.16-0.32 0.080-0.88-0.32-1.040-0.4-0.24-0.88-0.080-1.12 0.24l-1.44 2.48c-0.16 0.4-0.080 0.88 0.32 1.12zM10.72 12.96c0-0.48-0.4-0.8-0.96-0.8h-3.52c-0.48 0-0.96 0.32-0.96 0.8 0 0.4 0.4 0.8 0.96 0.8h3.52c0.48 0 0.96-0.4 0.96-0.8z"></path>
</svg>
<svg id="icon-denglu" width="16" height="16" viewBox="0 0 16 16" x="224" y="64">
<path fill="#fff" d="M10.88 9.6c0.48 0 0.88 0.080 1.28 0.24s0.72 0.4 1.040 0.64c0.32 0.24 0.56 0.64 0.72 0.96 0.16 0.4 0.24 0.8 0.24 1.2v2.4c0 0.16-0.080 0.32-0.16 0.4s-0.24 0.16-0.4 0.16h-11.2c-0.16 0-0.32-0.080-0.4-0.16s-0.16-0.24-0.16-0.4v-2.48c0-0.4 0.080-0.8 0.24-1.2s0.4-0.72 0.72-0.96c0.32-0.24 0.64-0.48 1.040-0.64s0.8-0.24 1.28-0.24h5.76v0.080zM8 8.48c-0.56 0-1.12-0.080-1.6-0.32s-0.96-0.48-1.36-0.88c-0.4-0.4-0.64-0.8-0.88-1.28-0.16-0.48-0.32-1.040-0.32-1.6s0.080-1.12 0.32-1.6c0.24-0.48 0.48-0.96 0.88-1.28 0.4-0.4 0.88-0.72 1.36-0.96s1.040-0.32 1.6-0.32 1.12 0.080 1.6 0.32c0.48 0.24 0.96 0.48 1.28 0.88s0.64 0.8 0.88 1.28c0.24 0.48 0.32 1.040 0.32 1.6s-0.080 1.12-0.32 1.6c-0.24 0.48-0.48 0.96-0.88 1.28-0.4 0.4-0.8 0.64-1.28 0.88-0.48 0.32-1.040 0.4-1.6 0.4z"></path>
</svg>
<svg id="icon-tuichu" width="16" height="16" viewBox="0 0 16 16" x="256" y="64">
<path fill="#fff" d="M8 15.76c-3.76 0-6.8-3.040-6.8-6.8 0-2.72 1.6-5.040 3.92-6.080v2.24c-1.2 0.88-1.92 2.32-1.92 3.84 0 2.72 2.16 4.88 4.88 4.88s4.88-2.16 4.88-4.88c0-1.6-0.8-2.96-1.92-3.84v-2.24c2.32 1.12 3.92 3.36 3.92 6.080-0.16 3.76-3.2 6.8-6.96 6.8zM8.96 7.040c0 0.56-0.4 0.96-0.96 0.96s-0.96-0.4-0.96-0.96v-5.84c0-0.56 0.4-0.96 0.96-0.96s0.96 0.4 0.96 0.96v5.84z"></path>
</svg>
<svg id="icon-shezhi" width="16" height="16" viewBox="0 0 16 16" x="288" y="64">
<path fill="#fff" d="M14.8 9.52l-0.32-0.16c-0.48-0.24-0.8-0.8-0.8-1.36s0.32-1.12 0.8-1.36l0.32-0.16c0.24-0.16 0.48-0.48 0.4-0.88-0.080-0.16-0.16-0.32-0.16-0.56l-0.24-0.48c-0.16-0.24-0.56-0.4-0.88-0.32l-0.32 0.080c-0.56 0.16-1.12 0-1.52-0.4s-0.56-0.96-0.4-1.52l0.080-0.32c0.080-0.32 0-0.72-0.32-0.88l-0.48-0.24c-0.24 0-0.4-0.080-0.56-0.16-0.32-0.080-0.72 0.080-0.88 0.4l-0.16 0.32c-0.24 0.48-0.8 0.8-1.36 0.8s-1.12-0.32-1.36-0.8l-0.16-0.32c-0.16-0.24-0.48-0.48-0.88-0.4l-0.48 0.24c-0.16 0-0.4 0.080-0.56 0.16-0.24 0.24-0.4 0.64-0.24 0.96l0.080 0.32c0.16 0.48 0 1.12-0.4 1.52s-1.040 0.56-1.52 0.4l-0.32-0.080c-0.32-0.080-0.72 0-0.88 0.32-0.16 0.080-0.24 0.32-0.24 0.48l-0.24 0.48c-0.080 0.4 0.16 0.72 0.4 0.88l0.32 0.16c0.48 0.24 0.8 0.8 0.8 1.36s-0.32 1.12-0.8 1.36l-0.32 0.16c-0.24 0.16-0.48 0.48-0.4 0.88 0.080 0.16 0.16 0.32 0.16 0.56l0.24 0.48c0.16 0.24 0.56 0.4 0.88 0.32l0.32-0.080c0.56-0.16 1.12 0 1.52 0.4s0.56 0.96 0.4 1.52l-0.080 0.32c-0.080 0.32 0 0.72 0.32 0.88l0.48 0.24c0.24 0 0.4 0.080 0.56 0.16 0.32 0.080 0.72-0.080 0.88-0.4l0.16-0.32c0.24-0.48 0.8-0.8 1.36-0.8s1.12 0.32 1.36 0.8l0.16 0.32c0.16 0.32 0.56 0.48 0.88 0.4 0.16-0.080 0.32-0.16 0.56-0.16l0.48-0.24c0.24-0.16 0.4-0.56 0.32-0.88l-0.080-0.32c-0.16-0.56 0-1.12 0.4-1.52s0.96-0.56 1.52-0.4l0.32 0.080c0.32 0.080 0.72 0 0.88-0.32l0.24-0.48c0.080-0.16 0.16-0.32 0.16-0.56 0.080-0.4-0.16-0.72-0.4-0.88M8 11.84c-2.080 0-3.84-1.68-3.84-3.84 0-2.080 1.68-3.84 3.84-3.84 2.080 0 3.84 1.68 3.84 3.84 0 2.080-1.76 3.84-3.84 3.84M8 5.6c-1.36 0-2.4 1.040-2.4 2.4s1.040 2.4 2.4 2.4 2.4-1.040 2.4-2.4-1.040-2.4-2.4-2.4zM8 8.96c-0.56 0-0.96-0.4-0.96-0.96s0.4-0.96 0.96-0.96 0.96 0.4 0.96 0.96-0.4 0.96-0.96 0.96z"></path>
</svg>
<svg id="icon-qunzumoxing" width="16" height="16" viewBox="0 0 16 16" x="320" y="64">
<path fill="#fff" d="M10.8 8.8c0.080 0.16 0.24 0.32 0.32 0.48v0.72c0.96 0.56 1.76 1.28 2.56 1.84v1.12h2.16v-0.8c-0.72-0.56-1.28-1.28-2.32-1.68v-1.12c0.56-0.72 0.88-1.76 0.88-2.56 0-1.28-0.96-2.32-2.080-2.32-0.32 0-0.64 0.080-0.88 0.24 0.080 0.24 0.080 0.56 0.080 0.88-0.080 0.96-0.32 2.16-0.72 3.2zM0.16 12.16v0.8h2.16v-1.12c0.8-0.64 1.52-1.36 2.56-1.92v-0.48c0.16-0.16 0.24-0.32 0.32-0.56-0.48-1.040-0.72-2.24-0.72-3.28 0-0.32 0-0.64 0.080-0.96-0.24-0.080-0.56-0.16-0.88-0.16-1.12 0-2.080 1.040-2.080 2.4 0 0.8 0.4 1.92 0.96 2.56v1.040c-1.12 0.4-1.68 1.12-2.4 1.68zM10.8 5.68c0-1.92-1.040-3.44-2.8-3.44s-2.88 1.6-2.88 3.44c0 1.36 0.56 3.2 1.52 4.080-1.68 0.64-2.64 1.6-3.6 2.32v1.6h10v-1.6c-1.040-0.72-2-1.68-3.68-2.16v-0.080c0.96-0.96 1.44-2.8 1.44-4.16z"></path>
</svg>
<svg id="icon-zuzhimoxing" width="16" height="16" viewBox="0 0 16 16" x="352" y="64">
<path fill="#fff" d="M2.48 7.68h5.2v3.12c0 0.16 0.16 0.32 0.32 0.32s0.32-0.16 0.32-0.32v-3.12h5.2v3.44c0 0.16 0.16 0.32 0.32 0.32s0.32-0.16 0.32-0.32v-3.52c0-0.32-0.24-0.56-0.56-0.56h-5.28v-1.44c0-0.16-0.16-0.32-0.32-0.32s-0.32 0.16-0.32 0.32v1.44h-5.28c-0.32 0-0.56 0.24-0.56 0.56v3.6c0 0.16 0.16 0.32 0.32 0.32s0.32-0.16 0.32-0.32v-3.52zM3.76 12h-3.2c-0.16 0-0.32 0.16-0.32 0.32v3.12c0 0.16 0.16 0.32 0.32 0.32h3.28c0.16 0 0.32-0.16 0.32-0.32v-3.12c-0.080-0.16-0.16-0.32-0.4-0.32zM9.6 12h-3.2c-0.16 0-0.32 0.16-0.32 0.32v3.12c0 0.16 0.16 0.32 0.32 0.32h3.2c0.16 0 0.32-0.16 0.32-0.32v-3.12c0-0.16-0.080-0.32-0.32-0.32zM15.44 12h-3.28c-0.16 0-0.32 0.16-0.32 0.32v3.12c0 0.16 0.16 0.32 0.32 0.32h3.28c0.16 0 0.32-0.16 0.32-0.32v-3.12c0-0.16-0.080-0.32-0.32-0.32zM5.44 4.72h5.2c0.16 0 0.32-0.16 0.32-0.32v-3.84c0-0.16-0.16-0.32-0.32-0.32h-5.2c-0.16 0-0.32 0.16-0.32 0.32v3.92c-0.080 0.16 0.080 0.24 0.32 0.24z"></path>
</svg>
<svg id="icon-guanximoxing" width="16" height="16" viewBox="0 0 16 16" x="384" y="64">
<path fill="#fff" d="M15.52 11.52c0 0.72-0.24 1.36-0.8 1.84l-1.36 1.36c-0.48 0.48-1.12 0.8-1.84 0.8s-1.36-0.24-1.92-0.8l-1.84-1.92c-0.48-0.48-0.8-1.12-0.8-1.84s0.24-1.44 0.8-1.92l-0.8-0.8c-0.56 0.56-1.2 0.8-1.92 0.8s-1.36-0.24-1.92-0.8l-1.84-1.92c-0.48-0.48-0.8-1.12-0.8-1.92 0-0.72 0.24-1.36 0.8-1.84l1.36-1.36c0.48-0.48 1.12-0.8 1.84-0.8s1.36 0.24 1.92 0.8l1.84 2c0.48 0.48 0.8 1.12 0.8 1.84s-0.24 1.44-0.8 1.92l0.8 0.8c0.56-0.56 1.2-0.8 1.92-0.8s1.36 0.24 1.92 0.8l1.92 1.92c0.48 0.48 0.72 1.12 0.72 1.84zM7.28 5.040c0-0.24-0.080-0.48-0.24-0.64l-1.92-1.92c-0.16-0.16-0.4-0.24-0.64-0.24s-0.48 0.080-0.64 0.24l-1.36 1.36c-0.16 0.16-0.24 0.4-0.24 0.64s0.080 0.48 0.24 0.64l1.92 1.92c0.16 0.16 0.4 0.24 0.64 0.24s0.48-0.080 0.64-0.32l-0.16-0.16c-0.080-0.080-0.16-0.16-0.16-0.24l-0.16-0.16c-0.080-0.080-0.080-0.16-0.16-0.24v-0.24c0-0.24 0.080-0.48 0.24-0.64s0.4-0.24 0.64-0.24h0.24c0.080 0 0.16 0.080 0.24 0.080 0.080 0.080 0.16 0.080 0.16 0.16l0.4 0.4c0.24-0.16 0.32-0.4 0.32-0.64zM13.76 11.52c0-0.24-0.080-0.48-0.24-0.64l-1.92-1.92c-0.16-0.16-0.4-0.24-0.64-0.24s-0.48 0.080-0.64 0.32l0.48 0.48c0.080 0.080 0.080 0.16 0.16 0.24v0.24c0 0.24-0.080 0.48-0.24 0.64s-0.4 0.24-0.64 0.24h-0.24c-0.080 0-0.16-0.080-0.24-0.080-0.080-0.080-0.16-0.080-0.16-0.16l-0.32-0.32c-0.24 0.16-0.32 0.4-0.32 0.64s0.080 0.48 0.24 0.64l1.92 1.92c0.16 0.16 0.4 0.24 0.64 0.24s0.48-0.080 0.64-0.24l1.36-1.36c0.080-0.16 0.16-0.4 0.16-0.64z"></path>
</svg>
<svg id="icon-gerengongzuo" width="16" height="16" viewBox="0 0 16 16" x="416" y="64">
<path fill="#fff" d="M6.514 15.2c-0.070-0.141-0.141-0.352-0.141-0.492h-3.516v-3.375c0-0.984 0.703-1.758 1.688-1.969 0.633 0.563 1.477 0.703 2.391 0.703s1.688-0.141 2.391-0.703c0.422 0.070 0.773 0.281 1.055 0.492 0.281-0.211 0.492-0.492 0.773-0.703-0.281-0.281-0.633-0.492-0.984-0.633 0.563-0.773 0.914-1.758 0.914-2.883 0-2.531-1.828-4.008-4.078-4.008-2.32 0-4.148 1.477-4.148 4.008 0 1.125 0.352 2.109 0.914 2.883-1.055 0.352-1.828 1.336-1.828 2.531v4.57h4.922c-0.141-0.141-0.281-0.281-0.352-0.422zM3.772 5.637c0-1.969 1.406-3.094 3.164-3.094s3.164 1.125 3.164 3.094-1.406 3.445-3.164 3.445-3.164-1.477-3.164-3.445zM8.764 13.793c-0.141-0.141-0.281-0.070-0.352 0.070l-0.281 0.984c-0.070 0.141 0 0.211 0.141 0.211h0.070l0.984-0.281c0.211-0.070 0.211-0.211 0.070-0.352l-0.633-0.633zM8.975 13.020c-0.141 0.141-0.141 0.352 0 0.492l0.773 0.773c0.141 0.141 0.352 0.141 0.492 0l3.797-3.727-1.266-1.266-3.797 3.727zM14.881 9.223l-0.773-0.773c-0.141-0.141-0.352-0.141-0.492 0l-0.563 0.563 1.266 1.266 0.563-0.563c0.141-0.141 0.141-0.352 0-0.492z"></path>
</svg>
<svg id="icon-changyong" width="16" height="16" viewBox="0 0 16 16" x="448" y="64">
<path fill="#fff" d="M7.52 6.56c0 0.48-0.4 0.96-0.96 0.96h-5.36c-0.48 0-0.96-0.4-0.96-0.96v-5.36c0-0.48 0.4-0.96 0.96-0.96h5.36c0.48 0 0.96 0.4 0.96 0.96v5.36zM7.52 14.8c0 0.48-0.4 0.96-0.96 0.96h-5.36c-0.48 0-0.96-0.4-0.96-0.96v-5.36c0-0.48 0.4-0.96 0.96-0.96h5.36c0.48 0 0.96 0.4 0.96 0.96v5.36zM15.76 6.56c0 0.48-0.4 0.96-0.96 0.96h-5.36c-0.48 0-0.96-0.4-0.96-0.96v-5.36c0-0.48 0.4-0.96 0.96-0.96h5.36c0.48 0 0.96 0.4 0.96 0.96v5.36zM15.76 14.8c0 0.48-0.4 0.96-0.96 0.96h-5.36c-0.48 0-0.96-0.4-0.96-0.96v-5.36c0-0.48 0.4-0.96 0.96-0.96h5.36c0.48 0 0.96 0.4 0.96 0.96v5.36z"></path>
</svg>
<svg id="icon-gonggongxinxi" width="16" height="16" viewBox="0 0 16 16" x="480" y="64">
<path fill="#fff" d="M12 6.16v-4.64c0-0.72-0.56-1.28-1.28-1.28h-8.96c-0.72 0-1.28 0.56-1.28 1.28v11.52c0 0.72 0.56 1.28 1.28 1.28h4.48v-0.72h-4.48c-0.32 0-0.56-0.24-0.56-0.56v-11.52c0-0.32 0.24-0.56 0.56-0.56h9.040c0.32 0 0.56 0.24 0.56 0.56v4.64h0.64zM8.72 2.56h-5.36c-0.32 0-0.56 0.24-0.56 0.56s0.24 0.56 0.56 0.56h5.28c0.32 0 0.56-0.24 0.56-0.56s-0.24-0.56-0.48-0.56zM8.72 4.96h-5.36c-0.32 0-0.56 0.24-0.56 0.56s0.24 0.56 0.56 0.56h5.28c0.32 0 0.56-0.24 0.56-0.56s-0.24-0.56-0.48-0.56zM6.080 7.52h-2.72c-0.32 0-0.56 0.24-0.56 0.56s0.24 0.56 0.56 0.56h2.64c0.32 0 0.56-0.24 0.56-0.56s-0.24-0.56-0.48-0.56zM11.36 7.44c-2.32 0-4.16 1.84-4.16 4.16s1.84 4.16 4.16 4.16 4.16-1.84 4.16-4.16-1.84-4.16-4.16-4.16zM11.44 14.8c-0.4 0-0.64-0.32-0.64-0.64 0-0.4 0.32-0.64 0.64-0.64 0.4 0 0.64 0.32 0.64 0.64s-0.24 0.64-0.64 0.64zM13.28 10.64c-0.080 0.16-0.16 0.32-0.32 0.48l-0.88 0.88c-0.080 0-0.080 0-0.16 0.080 0 0.080-0.080 0.080-0.080 0.16s0 0.16-0.080 0.24c-0.080 0.32-0.24 0.4-0.48 0.4-0.16 0-0.24-0.080-0.32-0.16s-0.16-0.24-0.16-0.4c0-0.24 0-0.4 0.080-0.56s0.16-0.32 0.24-0.4c0.080-0.16 0.24-0.24 0.48-0.48 0.16-0.16 0.32-0.24 0.4-0.32s0.16-0.16 0.16-0.24c0.080-0.080 0.080-0.16 0.080-0.32 0-0.24-0.080-0.4-0.24-0.56s-0.32-0.24-0.56-0.24c-0.32 0-0.48 0.080-0.64 0.24s-0.24 0.4-0.32 0.64c-0.080 0.32-0.24 0.48-0.48 0.48-0.16 0-0.24-0.080-0.4-0.16-0.080-0.080-0.16-0.24-0.16-0.32 0-0.24 0.080-0.48 0.24-0.8 0.16-0.24 0.4-0.48 0.72-0.64s0.64-0.24 1.040-0.24 0.72 0.080 0.96 0.24c0.32 0.16 0.48 0.32 0.64 0.56s0.24 0.48 0.24 0.8c0.080 0.24 0.080 0.48 0 0.64z"></path>
</svg>
<svg id="icon-jiantou-xia" width="16" height="16" viewBox="0 0 16 16" x="0" y="96">
<path fill="#fff" d="M8.48 11.12c0.32 0.32 0.32 0.72 0 1.040s-0.72 0.32-1.040 0l-7.2-7.2c-0.32-0.32-0.32-0.72 0-1.040s0.72-0.32 1.040 0l7.2 7.2zM14.72 3.84c0.32-0.32 0.72-0.32 1.040 0s0.32 0.72 0 1.040l-7.2 7.2c-0.32 0.32-0.72 0.32-1.040 0s-0.32-0.72 0-1.040l7.2-7.2z"></path>
</svg>
<svg id="icon-gongwenguanli" width="16" height="16" viewBox="0 0 16 16" x="32" y="96">
<path fill="#fff" d="M11.6 2.4v-2.080h-9.36v13.28h2.16v2.16h6.64l2.64-2.64v-10.72h-2.080zM3.12 1.2h7.52v9.44h-2.080v2h-5.44v-11.44zM12.88 12.8h-2.080v2h-5.44v-1.2h3.6l2.64-2.64v-7.6h1.28v9.44z"></path>
</svg>
<svg id="icon-jiantou-shang" width="16" height="16" viewBox="0 0 16 16" x="64" y="96">
<path fill="#fff" d="M8.48 4.88c0.32-0.32 0.32-0.72 0-1.040s-0.72-0.32-1.040 0l-7.2 7.2c-0.32 0.32-0.32 0.72 0 1.040s0.72 0.32 1.040 0l7.2-7.2zM14.72 12.16c0.32 0.32 0.72 0.32 1.040 0s0.32-0.72 0-1.040l-7.2-7.2c-0.32-0.32-0.72-0.32-1.040 0-0.32 0.24-0.32 0.72 0 0.96l7.2 7.28z"></path>
</svg>
<svg id="icon-jiantou-you" width="16" height="16" viewBox="0 0 16 16" x="96" y="96">
<path fill="#fff" d="M11.12 7.52c0.32-0.32 0.72-0.32 1.040 0s0.32 0.72 0 1.040l-7.2 7.2c-0.32 0.32-0.72 0.32-1.040 0s-0.32-0.72 0-1.040l7.2-7.2zM3.84 1.28c-0.32-0.32-0.32-0.72 0-1.040s0.72-0.32 1.040 0l7.2 7.2c0.32 0.32 0.32 0.72 0 1.040s-0.72 0.32-1.040 0l-7.2-7.2z"></path>
</svg>
<svg id="icon-jiantou-zuo" width="16" height="16" viewBox="0 0 16 16" x="128" y="96">
<path fill="#fff" d="M4.88 8.48c-0.32 0.32-0.72 0.32-1.040 0s-0.32-0.72 0-1.040l7.2-7.2c0.32-0.32 0.72-0.32 1.040 0s0.32 0.72 0 1.040l-7.2 7.2zM12.16 14.72c0.32 0.32 0.32 0.72 0 1.040s-0.72 0.32-1.040 0l-7.2-7.2c-0.32-0.32-0.32-0.72 0-1.040 0.24-0.32 0.72-0.32 0.96 0l7.28 7.2z"></path>
</svg>
<svg id="icon-shiwuchuli" width="16" height="16" viewBox="0 0 16 16" x="160" y="96">
<path fill="#fff" d="M7.76 11.68l0.72-0.64 2.8 2.72-0.72 0.72-2.8-2.8zM15.12 9.040l0.72 0.72-4.88 4.8-0.72-0.72 4.88-4.8zM3.76 9.52h2.48c0.24 0 0.48 0.24 0.48 0.48s-0.24 0.48-0.48 0.48h-2.48c-0.24 0-0.48-0.24-0.48-0.48-0.080-0.24 0.16-0.48 0.48-0.48zM3.76 6.48h6c0.24 0 0.48 0.24 0.48 0.48s-0.24 0.48-0.48 0.48h-6c-0.32 0.080-0.56-0.16-0.56-0.48 0-0.24 0.24-0.48 0.56-0.48zM3.76 3.44h6c0.24 0 0.48 0.24 0.48 0.48s-0.24 0.48-0.48 0.48h-6c-0.32 0.080-0.56-0.16-0.56-0.4 0-0.32 0.24-0.56 0.56-0.56zM11.28 0.48h-9.040c-1.12 0-2 0.88-2 2v11.040c0 1.12 0.88 2 2 2h6.56v-1.040h-6.56c-0.56 0-1.040-0.48-1.040-1.040v-10.96c0-0.56 0.48-1.040 1.040-1.040h9.040c0.56 0 1.040 0.48 1.040 1.040v6h1.040v-6c-0.080-1.12-0.96-2-2.080-2z"></path>
</svg>
<svg id="icon-richenganpai" width="16" height="16" viewBox="0 0 16 16" x="192" y="96">
<path fill="#fff" d="M14.32 15.52h-12.64c-0.64 0-1.12-0.48-1.12-1.040v-11.28c0-0.56 0.48-1.040 1.12-1.040h0.56v1.6c0 0.56 0.48 1.040 1.12 1.040h1.12c0.64 0 1.12-0.48 1.12-1.040v-1.6h4.64v1.6c0 0.56 0.48 1.040 1.12 1.040h1.12c0.64 0 1.12-0.48 1.12-1.040v-1.6h0.56c0.64 0 1.12 0.48 1.12 1.040v11.2c0.24 0.64-0.32 1.12-0.96 1.12zM14.32 5.84h-12.64v8.56h12.72v-8.56h-0.080zM9.76 8.96c-0.32 0.24-0.72 0.48-0.96 0.8-0.24 0.4-0.32 0.64-0.48 1.12-0.080 0.4-0.24 0.88-0.24 1.36h-1.28c0.080-0.72 0.24-1.36 0.48-1.84s0.56-0.88 1.040-1.44h-2.080v-0.96h3.52v0.96zM12 4.24c-0.64 0-1.12-0.48-1.12-1.040v-1.6c0-0.56 0.48-1.040 1.12-1.040s1.12 0.48 1.12 1.040v1.6c0.080 0.56-0.48 1.040-1.12 1.040zM4 4.24c-0.64 0-1.2-0.48-1.2-1.040v-1.6c0-0.56 0.48-1.040 1.12-1.040s1.12 0.48 1.12 1.040v1.6c0.080 0.56-0.48 1.040-1.040 1.040z"></path>
</svg>
<svg id="icon-shoucang" width="16" height="16" viewBox="0 0 16 16" x="224" y="96">
<path fill="#fff" d="M8 0.32l2.88 5.84h4.8l-3.84 3.84 1.84 5.68-5.68-2.8-5.68 2.8 1.84-5.68-3.84-3.84h4.8l2.88-5.84z"></path>
</svg>
<svg id="icon-shouye" width="16" height="16" viewBox="0 0 16 16" x="256" y="96">
<path fill="#fff" d="M9.28 14.64v-3.92h-2.48v3.92h-3.76c-0.4 0-0.64-0.24-0.64-0.64v-4.88c0-0.080 0.080-0.16 0.16-0.24 1.040-0.96 2.16-1.84 3.2-2.8 0.64-0.64 1.36-1.28 2.080-1.92 0.080 0 0.080-0.080 0.16-0.080 0.4 0.4 0.88 0.72 1.28 1.12 1.36 1.2 2.8 2.4 4.16 3.6 0.16 0.16 0.24 0.24 0.24 0.48v4.64c0 0.24-0.080 0.56-0.32 0.64-0.080 0.080-0.16 0.080-0.32 0.080h-3.76zM11.12 3.68v-1.84c0-0.4 0.080-0.48 0.48-0.48h1.68c0.32 0 0.4 0.080 0.4 0.4v3.84c0 0.24 0.080 0.32 0.16 0.48 0.64 0.56 1.2 1.040 1.84 1.6 0.32 0.24 0.32 0.4 0.080 0.72-0.16 0.16-0.32 0.4-0.48 0.56-0.16 0.24-0.32 0.24-0.56 0.080-2.16-1.92-4.32-3.84-6.48-5.68l-0.24-0.24c-0.48 0.48-0.96 0.88-1.44 1.28-1.76 1.52-3.52 3.12-5.2 4.64-0.24 0.24-0.4 0.16-0.56-0.080s-0.32-0.4-0.48-0.64c-0.24-0.16-0.24-0.32 0-0.56 0.96-0.88 1.92-1.68 2.88-2.56 1.36-1.2 2.64-2.32 3.92-3.44 0.56-0.56 1.2-0.56 1.76 0 0.72 0.64 1.36 1.2 2.080 1.84 0.080 0 0.080 0.080 0.16 0.080z"></path>
</svg>
<svg id="icon-shuaxin" width="16" height="16" viewBox="0 0 16 16" x="288" y="96">
<path fill="#fff" d="M13.68 2.32c-1.44-1.44-3.44-2.32-5.68-2.32-3.44 0-6.32 2.16-7.52 5.2l1.92 0.72c0.8-2.32 3.040-3.92 5.6-3.92 1.68 0 3.12 0.64 4.24 1.76l-2.24 2.24h6v-6l-2.32 2.32zM8 14c-1.68 0-3.12-0.64-4.24-1.76l2.24-2.24h-6v6l2.32-2.32c1.44 1.44 3.44 2.32 5.68 2.32 3.44 0 6.32-2.16 7.52-5.2l-1.92-0.72c-0.8 2.32-3.040 3.92-5.6 3.92z"></path>
</svg>
<svg id="icon-wangshangjiaoliu" width="16" height="16" viewBox="0 0 16 16" x="320" y="96">
<path fill="#fff" d="M15.76 10.56v-9.040c0-0.32-0.32-0.64-0.64-0.64h-14.24c-0.32 0-0.64 0.32-0.64 0.64v9.040c0 0.32 0.32 0.64 0.64 0.64h6.48l-1.28 2.56h-5.2c-0.32 0-0.64 0.32-0.64 0.64s0.32 0.64 0.64 0.64h14.24c0.32 0 0.64-0.32 0.64-0.64s-0.32-0.64-0.64-0.64h-5.2l-1.28-2.56h6.48c0.32 0 0.64-0.24 0.64-0.64zM14.48 9.92h-12.96v-7.76h12.96v7.76z"></path>
</svg>
<svg id="icon-tongzhi" width="16" height="16" viewBox="0 0 16 16" x="352" y="96">
<path fill="#fff" d="M8.64 1.44c-0.24-0.080-0.48-0.080-0.72 0.080l-3.84 3.2h-3.040c-0.16 0-0.32 0.080-0.4 0.16-0.16 0.16-0.24 0.32-0.24 0.48v5.28c0 0.16 0.080 0.32 0.16 0.48 0.16 0.16 0.32 0.16 0.48 0.16h3.040l3.76 3.12c0.16 0.080 0.24 0.16 0.4 0.16 0.080 0 0.16 0 0.24-0.080 0.24-0.080 0.4-0.32 0.4-0.56v-11.84c0.080-0.24 0-0.48-0.24-0.64M11.2 4.8c-0.32-0.16-0.72 0-0.88 0.32s0 0.72 0.32 0.88c0.080 0 1.040 0.56 1.040 2 0 1.6-0.96 2.080-0.96 2.080-0.32 0.16-0.48 0.56-0.32 0.88 0.080 0.24 0.32 0.4 0.56 0.4 0.080 0 0.16 0 0.32-0.080 0.080 0 1.68-0.88 1.68-3.28s-1.68-3.2-1.76-3.2M13.2 2.8c-0.32-0.16-0.72-0.080-0.88 0.16-0.16 0.32-0.080 0.72 0.16 0.88 0.080 0.080 1.76 1.2 1.76 4.080s-1.6 4-1.68 4.080c-0.32 0.24-0.4 0.64-0.16 0.88 0.16 0.16 0.32 0.32 0.56 0.32 0.16 0 0.24 0 0.4-0.080 0.080-0.080 2.24-1.52 2.24-5.2 0-3.52-2.32-5.040-2.4-5.12"></path>
</svg>
<svg id="icon-wodebianqian" width="16" height="16" viewBox="0 0 16 16" x="384" y="96">
<path fill="#fff" d="M2.96 0.8c-1.12 2.48-1.84 5.2-2.24 8.16 0.88 0.24 1.84 0.4 2.72 0.64 0.8-2.48 1.36-5.28 1.6-8.32-0.56-0.64-1.2-0.88-2.080-0.48zM13.040 10.64v0.48h-7.12v-0.48h7.12zM3.44 12.64h11.2v-6.64l-2.32 0.080h-0.4v-0.4l0.16-2.080h-6.4c0.080-0.48 0.080-0.88 0.16-1.36h7.2l0.24 0.16 2.48 2.4 0.24 0.24v8.96h-12.96l0.4-1.36zM14.32 5.28l-1.52-1.44-0.16 1.52 1.68-0.080zM5.92 8.48v0.48h7.040v-0.48h-7.040zM5.92 6.56v0.48h4.24v-0.48h-4.24zM5.92 4.56v0.48h4.24v-0.48h-4.24zM0.56 12.96l-0.56 1.040 0.32 1.28c0.16 0 0.32 0.080 0.56 0.16l0.8-0.96v-1.2l-1.12-0.32zM3.2 10.080c-0.32 0.96-0.72 2-1.040 2.96-0.64-0.16-1.2-0.32-1.84-0.4 0.16-1.040 0.24-2.080 0.4-3.12 0.8 0.16 1.68 0.4 2.48 0.56z"></path>
</svg>
<svg id="icon-tongxunlu" width="16" height="16" viewBox="0 0 16 16" x="416" y="96">
<path fill="#fff" d="M8.88 8.72c0.72-0.72 1.12-1.68 1.12-2.72v-2c0-2.24-1.76-4-4-4s-4 1.76-4 4v2c0 1.040 0.4 2 1.12 2.72-1.6 0.88-2.8 2.4-3.12 4.24 0 1.68 1.36 3.040 3.040 3.040h6c1.68 0 3.040-1.36 3.040-3.040-0.4-1.76-1.6-3.36-3.2-4.24zM4 4c0-1.12 0.88-2 2-2s2 0.88 2 2v2c0 1.12-0.88 2-2 2s-2-0.88-2-2v-2zM9.040 14h-6c-0.56 0-1.040-0.48-1.040-1.040 0.48-1.76 2.16-3.040 4-3.040s3.52 1.28 4 3.040c0 0.56-0.48 1.040-0.96 1.040zM12 4.96h3.040c0.48 0 0.96-0.4 0.96-0.96s-0.48-0.96-1.040-0.96h-2.96c-0.56 0-0.96 0.48-0.96 0.96 0 0.56 0.4 0.96 0.96 0.96zM15.040 6h-2c-0.56 0-1.040 0.48-1.040 1.040s0.48 1.040 1.040 1.040h2c0.56 0 1.040-0.48 1.040-1.040-0.080-0.56-0.56-1.040-1.040-1.040zM15.040 9.040h-1.040c-0.56 0-1.040 0.48-1.040 1.040s0.48 1.040 1.040 1.040h1.040c0.56 0 1.040-0.48 1.040-1.040-0.080-0.64-0.56-1.040-1.040-1.040z"></path>
</svg>
<svg id="icon-wodedaiban" width="16" height="16" viewBox="0 0 16 16" x="448" y="96">
<path fill="#fff" d="M0.8 0.48h4v4h-4v-4zM6.24 1.76h9.2v1.44h-9.2v-1.44zM6.24 7.12h9.2v1.36h-9.2v-1.36zM0.8 11.52h4v4h-4v-4zM6.24 12.8h9.2v1.44h-9.2v-1.44zM2.4 8.24l-1.2-1.12-0.64 0.72 1.92 1.68 2.96-2.96-0.64-0.72-2.4 2.4z"></path>
</svg>
<svg id="icon-wodeweituo" width="16" height="16" viewBox="0 0 16 16" x="480" y="96">
<path fill="#fff" d="M15.92 11.28c-0.24-0.16-3.36-2.96-3.52-3.2-0.24-0.24-0.4-0.24-0.4-0.24h-5.28s-0.88 0.080-0.8 0.8c0 0.48 0.32 0.88 0.8 1.040 0.48 0.080 1.52 0.16 2.32 0.24 0.24 0 0 0.24 0 0.24l-1.040 0.72h-3.52s-1.44-1.040-2.32-1.76c-1.52-1.12-2.080 0-2.080 0s-0.16 0.4 0 0.64c0.8 0.72 3.68 3.36 3.92 3.52s0.48 0.080 0.48 0.080h6c0.48 0 0.8 0.32 0.8 0.32s0.96 0.8 1.2 1.040c0.48 0.4 0.72 0 0.72 0l2.72-2.96s0.24-0.24 0-0.48M11.84 1.92c0 0.24-0.16 0.4-0.32 0.4h-6.8c-0.24 0-0.4-0.16-0.4-0.4v-0.24c0-0.24 0.16-0.56 0.4-0.56h6.8c0.24 0 0.32 0.24 0.32 0.56v0.24zM1.28 1.76c0 0.32 0.24 0.64 0.56 0.64s0.56-0.32 0.56-0.64-0.24-0.56-0.56-0.56-0.56 0.24-0.56 0.56M11.84 5.12c0 0.24-0.16 0.4-0.32 0.4h-6.8c-0.24 0-0.4-0.16-0.4-0.4v-0.24c0-0.24 0.16-0.56 0.4-0.56h6.8c0.24 0 0.32 0.24 0.32 0.56v0.24zM1.28 4.96c0 0.32 0.24 0.64 0.56 0.64s0.56-0.32 0.56-0.64-0.24-0.56-0.56-0.56-0.56 0.24-0.56 0.56"></path>
</svg>
<svg id="icon-wodeyoujian" width="16" height="16" viewBox="0 0 16 16" x="0" y="128">
<path fill="#fff" d="M15.36 3.040c-0.24-0.24-0.48-0.32-0.72-0.32h-13.28c-0.24 0-0.4 0.080-0.64 0.24l-0.080 0.080c-0.24 0.24-0.32 0.48-0.32 0.8v8.4c0 0.32 0.080 0.56 0.32 0.72s0.4 0.32 0.72 0.32h13.36c0.24 0 0.48-0.080 0.72-0.32s0.32-0.48 0.32-0.72v-8.4c-0.080-0.32-0.16-0.56-0.4-0.8zM14.64 4.32v7.28l-4.32-3.6 2.32-1.92 2-1.76zM8 8.56l-4.080-3.36-1.6-1.36h11.36l-5.68 4.72zM1.36 4.32l4.32 3.68-3.44 2.96-0.88 0.72v-7.36zM2.24 12.24l4.24-3.6 1.2 0.96c0.080 0.080 0.24 0.16 0.32 0.16h0.080c0.080 0 0.080 0 0.16-0.080 0 0 0.080 0 0.080-0.080l1.2-0.96 4.24 3.6h-11.52z"></path>
</svg>
<svg id="icon-xinwengonggao" width="16" height="16" viewBox="0 0 16 16" x="32" y="128">
<path fill="#fff" d="M14.16 1.36h-12.32c-0.96 0-1.76 0.8-1.76 1.76v9.68c0 0.96 0.8 1.76 1.76 1.76h12.32c0.96 0 1.76-0.8 1.76-1.76v-9.68c0-0.96-0.8-1.76-1.76-1.76zM14.96 12.88c0 0.4-0.32 0.8-0.8 0.8h-12.32c-0.4 0-0.8-0.32-0.8-0.8v-9.76c0-0.4 0.32-0.8 0.8-0.8h12.32c0.4 0 0.8 0.32 0.8 0.8v9.76zM2.4 3.84h11.2v1.040h-11.2v-1.040zM8.48 5.92h5.12v1.12h-5.12v-1.12zM8.48 8.080h5.12v1.52h-5.12v-1.52zM8.48 11.040h4.16v1.040h-4.16v-1.040zM2.4 6h4.88v6.080h-4.88v-6.080z"></path>
</svg>
<svg id="icon-ziyuanguanli" width="16" height="16" viewBox="0 0 16 16" x="64" y="128">
<path fill="#fff" d="M7.92 8.96c-0.16 0-0.32-0.080-0.48-0.16l-6.72-3.6c-0.080 0-0.080-0.080-0.16-0.080-0.32-0.32-0.32-0.8 0-1.040 0.080-0.080 0.16-0.080 0.24-0.16l6.8-3.36c0.16-0.080 0.32-0.16 0.48-0.16s0.32 0.080 0.48 0.16l6.64 3.12c0.080 0 0.080 0.080 0.16 0.080 0.16 0.16 0.24 0.32 0.24 0.56s-0.080 0.4-0.24 0.56l-0.080 0.080-6.88 3.84c-0.16 0.080-0.32 0.16-0.48 0.16zM1.76 4.64l6.16 3.28 6.32-3.52-6.16-2.88-6.32 3.12zM7.84 11.2c-0.16 0-0.32-0.080-0.48-0.16l-6.64-3.6c-0.24-0.16-0.4-0.48-0.24-0.72s0.48-0.32 0.72-0.16l6.64 3.6 6.8-3.84c0.24-0.16 0.56-0.080 0.72 0.16s0.080 0.56-0.16 0.72l-6.88 3.84c-0.080 0.080-0.24 0.16-0.48 0.16zM7.84 13.36c-0.16 0-0.32-0.080-0.48-0.16l-6.64-3.6c-0.16-0.080-0.24-0.16-0.24-0.32s0-0.24 0.080-0.4c0.16-0.24 0.48-0.32 0.72-0.24l6.64 3.6 6.8-3.84c0.24-0.16 0.56-0.080 0.72 0.16s0.080 0.56-0.16 0.72l-6.88 3.84c-0.16 0.24-0.32 0.24-0.56 0.24zM7.84 15.6c-0.16 0-0.32-0.080-0.48-0.16l-6.72-3.6c-0.16-0.080-0.24-0.16-0.24-0.32s0-0.24 0.080-0.4c0.16-0.24 0.48-0.32 0.72-0.24l6.64 3.6 6.8-3.84c0.24-0.16 0.56-0.080 0.72 0.16s0.080 0.56-0.16 0.72l-6.88 3.84c-0.080 0.16-0.24 0.24-0.48 0.24z"></path>
</svg>
<svg id="icon-wenjian" width="16" height="16" viewBox="0 0 16 16" x="96" y="128">
<path fill="#fff" d="M8.16 0v5.36h5.36l-5.36-5.36zM7.52 6v-6h-5.36v16h11.68v-10h-6.32z"></path>
</svg>
<svg id="icon-wenjianjia_dakai" width="16" height="16" viewBox="0 0 16 16" x="128" y="128">
<path fill="#fff" d="M14.24 13.92c0 0.56-0.48 0.96-1.040 0.96h-12.48l1.76-8.16c0-0.56 0.48-1.040 0.96-1.040h11.52c0.56 0 0.96 0.48 0.96 1.040l-1.68 7.2M2.72 4.96h11.28v-0.96c0-0.56-0.48-1.040-0.96-1.040h-6v-0.88c0-0.56-0.48-0.96-0.96-0.96h-5.12c-0.48-0.080-0.96 0.4-0.96 0.96v11.92l1.76-8c0-0.64 0.4-1.040 0.96-1.040"></path>
</svg>
<svg id="icon-wenjianjia_guanbi" width="16" height="16" viewBox="0 0 16 16" x="160" y="128">
<path fill="#fff" d="M14.56 3.28h-6.080l-0.48-0.8c-0.48-0.96-0.64-1.44-1.44-1.44h-5.12c-0.8 0-1.44 0.64-1.44 1.44v10.96c0 0.8 0.64 1.44 1.44 1.44h13.2c0.8 0 1.44-0.64 1.44-1.44v-8.8c0-0.72-0.72-1.36-1.52-1.36z"></path>
</svg>
<svg id="icon-info" width="16" height="16" viewBox="0 0 16 16" x="192" y="128">
<path fill="#fff" d="M8 14.969c-3.842 0-6.969-3.126-6.969-6.969s3.127-6.969 6.969-6.969c3.843 0 6.969 3.126 6.969 6.969s-3.126 6.969-6.969 6.969zM8 2.031c-3.292 0-5.969 2.678-5.969 5.969s2.678 5.969 5.969 5.969c3.291 0 5.969-2.678 5.969-5.969s-2.678-5.969-5.969-5.969zM7.25 4.75c0 0.414 0.336 0.75 0.75 0.75s0.75-0.336 0.75-0.75v0c0-0.414-0.336-0.75-0.75-0.75s-0.75 0.336-0.75 0.75v0zM8 12c-0.276 0-0.5-0.223-0.5-0.5v-4.5c0-0.276 0.224-0.5 0.5-0.5s0.5 0.224 0.5 0.5v4.5c0 0.277-0.224 0.5-0.5 0.5z"></path>
</svg>
<svg id="icon-biaodan" width="16" height="16" viewBox="0 0 16 16" x="224" y="128">
<path fill="#fff" d="M13.12 1.44h-3.040c-0.32-0.88-1.12-1.44-2.080-1.44s-1.76 0.56-2 1.44h-3.12c-0.8 0-1.44 0.64-1.44 1.44v11.6c0 0.8 0.64 1.44 1.44 1.44h10.16c0.8 0 1.44-0.64 1.44-1.44v-11.6c0.080-0.8-0.56-1.44-1.36-1.44zM8 1.44c0.4 0 0.72 0.4 0.72 0.72s-0.32 0.72-0.72 0.72-0.72-0.4-0.72-0.72 0.32-0.72 0.72-0.72zM13.12 14.56h-10.24v-11.68h1.44v2.16h7.28v-2.16h1.44v11.68h0.080zM4.4 8.72h7.28v-1.44h-7.28v1.44zM4.4 11.6h4.4v-1.44h-4.4v1.44z"></path>
</svg>
<svg id="icon-biaodanfenlei" width="16" height="16" viewBox="0 0 16 16" x="256" y="128">
<path fill="#fff" d="M0 0.48v7.040h16v-7.040h-16zM15.040 6.48h-14v-4.96h14v4.96zM10 4.48h1.040v1.040h0.96v-1.040h1.040v-0.96h1.040v-1.040h-5.040v1.040h1.040v0.96h-0.080zM0 15.52h16v-7.040h-16v7.040zM1.040 9.52h14v5.040h-14v-5.040zM9.040 11.52h1.040v1.040h1.040v1.040h0.88v-1.040h1.040v-1.040h1.040v-1.040h-5.040v1.040z"></path>
</svg>
<svg id="icon-bumen" width="16" height="16" viewBox="0 0 16 16" x="288" y="128">
<path fill="#fff" d="M2.64 10.080h-1.36c-0.72 0-1.28 0.56-1.28 1.28v3.12c0 0.72 0.56 1.28 1.28 1.28h3.68c0.72 0 1.28-0.56 1.28-1.28v-3.12c0-0.72-0.56-1.28-1.28-1.28h-2.32zM4.96 10.96c0.24 0 0.4 0.16 0.4 0.4v3.12c0 0.24-0.16 0.4-0.4 0.4h-3.68c-0.24 0-0.4-0.16-0.4-0.4v-3.12c0-0.24 0.16-0.4 0.4-0.4h3.68zM8.48 5.92h1.28c0.72 0 1.28-0.56 1.28-1.28v-3.12c0-0.72-0.56-1.28-1.28-1.28h-3.6c-0.72 0-1.28 0.56-1.28 1.28v3.12c0 0.72 0.56 1.28 1.28 1.28h2.32zM6.16 5.040c-0.24 0-0.4-0.16-0.4-0.4v-3.12c0-0.24 0.16-0.4 0.4-0.4h3.68c0.24 0 0.4 0.16 0.4 0.4v3.12c0 0.24-0.16 0.4-0.4 0.4h-3.68zM14.72 10.080h-3.6c-0.72 0-1.28 0.56-1.28 1.28v3.12c0 0.72 0.56 1.28 1.28 1.28h3.68c0.72 0 1.28-0.56 1.28-1.28v-3.12c-0.080-0.72-0.64-1.28-1.36-1.28zM15.12 14.48c0 0.24-0.16 0.4-0.4 0.4h-3.68c-0.24 0-0.4-0.16-0.4-0.4v-3.12c0-0.24 0.16-0.4 0.4-0.4h3.68c0.24 0 0.4 0.16 0.4 0.4v3.12zM13.36 10.080v-2.4h-4.88v-1.76h-0.88v1.76h-4.96v2.4h0.88v-1.44h8.88v1.44h0.96z"></path>
</svg>
<svg id="icon-biaodanfenzu" width="16" height="16" viewBox="0 0 16 16" x="320" y="128">
<path fill="#fff" d="M12.48 3.6s-0.4-0.080-0.32 0.24l1.040 3.040 0.4-1.44 1.68 2.16 0.72-0.88-2.080-1.68 1.44-0.4-2.88-1.040zM0.72 7.6h11.12c0.16 0 0.24-0.4 0.24-0.88s-0.24-0.72-0.24-0.72h-10c-0.16 0-0.24-0.16-0.24-0.24v-2.64c0-0.16 0.080-0.24 0.24-0.24h12c0.16 0 0.24 0.080 0.24 0.24v0.080c0 0.16 0.64 0.16 1.040 0.16 0.48 0 0.56-0.080 0.56-0.24v-1.12c0-0.4-0.32-0.72-0.72-0.72h-14.24c-0.4 0-0.72 0.32-0.72 0.72v4.88c0 0.4 0.32 0.72 0.72 0.72zM14.96 8.88h-14.24c-0.4 0-0.72 0.32-0.72 0.72v4.48c0 0.4 0.32 0.72 0.72 0.72h14.24c0.4 0 0.72-0.32 0.72-0.72v-4.48c0-0.4-0.32-0.72-0.72-0.72zM14.080 12.88c0 0.16-0.080 0.24-0.24 0.24h-12c-0.16 0-0.24-0.080-0.24-0.24v-2.24c0-0.080 0.080-0.24 0.24-0.24h12c0.16 0 0.24 0.080 0.24 0.24v2.24z"></path>
</svg>
<svg id="icon-caidanyezijiedian" width="16" height="16" viewBox="0 0 16 16" x="352" y="128">
<path fill="#fff" d="M13.28 10.72c-1.040 0-2.080 0.56-2.48 1.6h-3.76c-0.88 0-1.76-0.72-1.76-1.76v-4.4c0.56 0.32 1.040 0.4 1.76 0.4h3.84c0.4 0.88 1.28 1.6 2.48 1.6 1.44 0 2.64-1.2 2.64-2.64s-1.2-2.64-2.64-2.64c-1.040 0-2.080 0.56-2.48 1.6h-3.84c-0.88-0.32-1.76-1.12-1.76-2v-0.24h2.96v-2.24h-8.16v2.24h3.040v8.16c-0.080 2.24 1.68 4 3.92 4h3.84c0.4 0.88 1.28 1.6 2.48 1.6 1.44 0 2.64-1.2 2.64-2.64-0.080-1.44-1.2-2.64-2.72-2.64zM13.28 4c0.88 0 1.6 0.72 1.6 1.6s-0.72 1.6-1.6 1.6-1.6-0.72-1.6-1.6c0.16-0.88 0.72-1.6 1.6-1.6zM13.28 14.96c-0.88 0-1.6-0.72-1.6-1.6s0.72-1.6 1.6-1.6 1.6 0.72 1.6 1.6c0.080 0.88-0.72 1.6-1.6 1.6z"></path>
</svg>
<svg id="icon-caidanfenzu" width="16" height="16" viewBox="0 0 16 16" x="384" y="128">
<path fill="#fff" d="M1.28 15.76c-0.64 0-1.12-0.56-1.12-1.2v-8.96c0-0.64 0.48-1.2 1.12-1.2h9.44c0.64 0 1.12 0.56 1.12 1.2v8.96c0 0.64-0.48 1.2-1.12 1.2h-9.44zM1.28 5.2c-0.16 0-0.32 0.16-0.32 0.4v9.12c0.080 0.16 0.16 0.24 0.32 0.24h9.44c0.24 0 0.4-0.16 0.4-0.4v-8.96c0-0.24-0.16-0.4-0.4-0.4h-9.44zM13.12 12.48v-8.96c0-0.24-0.16-0.4-0.4-0.4h-8.4c-0.16 0-0.4-0.16-0.4-0.4s0.16-0.4 0.4-0.4h8.4c0.64 0 1.12 0.56 1.12 1.2v8.96c0 0.24-0.16 0.4-0.4 0.4-0.16 0-0.32-0.16-0.32-0.4zM15.12 10.4v-9.040c0-0.24-0.16-0.4-0.4-0.4h-8.48c-0.16 0-0.32-0.16-0.32-0.4s0.16-0.4 0.4-0.4h8.4c0.64 0 1.12 0.56 1.12 1.2v9.040c0 0.24-0.16 0.4-0.4 0.4s-0.4-0.24-0.32-0.4zM0 14.64v-9.040c0-0.8 0.56-1.44 1.28-1.44h9.44c0.72 0.080 1.28 0.72 1.28 1.44v8.96c0 0.8-0.56 1.36-1.28 1.36h-9.44c-0.72 0.080-1.28-0.56-1.28-1.28zM1.28 4.64c-0.48 0-0.88 0.4-0.88 0.96v8.96c0 0.56 0.4 0.96 0.96 0.96h9.44c0.48 0 0.96-0.48 0.96-0.96v-8.96c0-0.56-0.4-0.96-0.96-0.96h-9.52zM0.88 14.96h-0.16v-9.36c0-0.32 0.24-0.64 0.56-0.64h9.44c0.32 0 0.56 0.24 0.56 0.64v8.96c0 0.32-0.24 0.64-0.56 0.64h-9.44c-0.16 0-0.32-0.080-0.4-0.24zM1.28 5.44c-0.080 0-0.16 0.080-0.16 0.16v9.12c0 0.080 0.080 0.16 0.16 0.16h9.44c0.080 0 0.16-0.080 0.16-0.24v-9.040c0-0.080-0.080-0.24-0.16-0.24h-9.44v0.080zM12.88 12.48v-8.96c0-0.080-0.080-0.24-0.16-0.24h-8.4c-0.32 0-0.56-0.24-0.56-0.56s0.24-0.64 0.56-0.64h8.4c0.72 0 1.28 0.64 1.28 1.36v8.96c0 0.32-0.24 0.56-0.56 0.56-0.32 0.080-0.56-0.16-0.56-0.48zM4.32 2.48c-0.080 0-0.16 0.080-0.16 0.16s0.080 0.16 0.16 0.16h8.4c0.32 0 0.56 0.24 0.56 0.64v8.96c0 0.16 0.080 0.24 0.16 0.24s0.16-0.080 0.16-0.16v-8.96c0-0.56-0.4-0.96-0.96-0.96h-8.32v-0.080zM15.040 10.8c-0.080-0.080-0.16-0.24-0.16-0.4v-9.040c0-0.080-0.080-0.24-0.16-0.24h-8.48c-0.32 0-0.56-0.24-0.56-0.56 0.080-0.32 0.32-0.56 0.56-0.56h8.4c0.8 0 1.36 0.64 1.36 1.44v8.96c0 0.32-0.24 0.56-0.56 0.56-0.16 0-0.32-0.080-0.4-0.16zM6.24 0.4c-0.080 0-0.16 0.080-0.16 0.16 0 0.16 0.080 0.24 0.16 0.24h8.4c0.32 0 0.56 0.24 0.56 0.64v8.96c0 0.080 0 0.080 0.080 0.16 0 0.080 0.080 0.080 0.16 0.080s0.16-0.080 0.16-0.16v-9.12c0-0.56-0.4-0.96-0.96-0.96h-8.4z"></path>
</svg>
<svg id="icon-cunchufenlei" width="16" height="16" viewBox="0 0 16 16" x="416" y="128">
<path fill="#fff" d="M12 0h-12v16h16v-12l-4-4zM12 12.96h-10v-4.96h10v4.96zM2 6v-4h10v4h-10z"></path>
</svg>
<svg id="icon-cunchu" width="16" height="16" viewBox="0 0 16 16" x="448" y="128">
<path fill="#fff" d="M14.080 0h-12.16c-0.88 0-1.6 0.72-1.6 1.6v12.8c0 0.88 0.72 1.6 1.6 1.6h12.080c0.88 0 1.6-0.72 1.6-1.6v-12.8c0.080-0.88-0.64-1.6-1.52-1.6zM3.92 1.12h8.16v5.76h-8.16v-5.76zM14.48 14.48c0 0.24-0.16 0.4-0.4 0.4h-0.48v-1.36c0-0.48-0.4-0.88-0.88-0.88h-9.36c-0.48 0-0.88 0.4-0.88 0.88v1.36h-0.56c-0.24 0-0.4-0.16-0.4-0.4v-12.88c0-0.24 0.16-0.4 0.4-0.4h0.8v6.32c0 0.32 0.24 0.56 0.56 0.56h9.28c0.32 0 0.56-0.24 0.56-0.56v-6.4h0.88c0.24 0 0.4 0.16 0.4 0.4l0.080 12.96zM10.080 2.080c-0.32 0-0.56 0.24-0.56 0.56v2.4c0 0.32 0.24 0.56 0.56 0.56s0.56-0.24 0.56-0.56v-2.4c0-0.32-0.32-0.56-0.56-0.56z"></path>
</svg>
<svg id="icon-liuchengfenlei" width="16" height="16" viewBox="0 0 16 16" x="480" y="128">
<path fill="#fff" d="M14.88 10.24h-1.84v-2.24h-4.48v-1.84h2.96c0.56 0 1.12-0.56 1.12-1.12v-3.76c0-0.56-0.56-1.12-1.12-1.12h-7.040c-0.56 0-1.12 0.56-1.12 1.12v3.76c0 0.56 0.56 1.12 1.12 1.12h2.96v1.84h-4.48v2.24h-1.84c-0.56 0-1.12 0.56-1.12 1.12v3.36c0 0.56 0.56 1.12 1.12 1.12h4.8c0.56 0 1.12-0.56 1.12-1.12v-3.36c0-0.56-0.56-1.12-1.12-1.12h-1.84v-1.12h7.84v1.12h-1.84c-0.56 0-1.12 0.56-1.12 1.12v3.36c0 0.56 0.56 1.12 1.12 1.12h4.8c0.56 0 1.12-0.56 1.12-1.12v-3.36c0-0.56-0.56-1.12-1.12-1.12zM5.92 11.36v3.36h-4.8v-3.36h4.8zM4.48 5.040v-3.76h7.040v3.76h-7.040zM14.88 14.72h-4.8v-3.36h4.8v3.36z"></path>
</svg>
<svg id="icon-liucheng" width="16" height="16" viewBox="0 0 16 16" x="0" y="160">
<path fill="#fff" d="M12.32 9.84c-1.12 0-2 0.56-2.56 1.44l-3.36-1.92c0.24-0.4 0.32-0.88 0.32-1.36 0-0.32-0.080-0.64-0.16-0.88l3.44-1.92c0.56 0.64 1.36 0.96 2.24 0.96 1.68 0 3.040-1.36 3.040-3.040s-1.36-3.040-3.12-3.040c-1.68 0-3.040 1.36-3.040 3.040 0 0.32 0.080 0.64 0.16 0.88l-3.36 1.92c-0.56-0.64-1.36-1.040-2.24-1.040-1.68 0-3.040 1.36-3.040 3.12s1.36 3.12 3.040 3.12c0.72 0 1.36-0.24 1.84-0.64l3.68 2.16v0.32c0 1.68 1.36 3.040 3.040 3.040s3.040-1.36 3.040-3.040c0.080-1.76-1.28-3.12-2.96-3.12zM12.32 1.2c1.040 0 1.84 0.8 1.84 1.84s-0.8 1.84-1.84 1.84c-1.040 0-1.84-0.8-1.84-1.84 0-0.96 0.8-1.84 1.84-1.84zM3.76 9.84c-1.040 0-1.84-0.8-1.84-1.84s0.8-1.84 1.84-1.84c0.96 0 1.84 0.8 1.84 1.84-0.080 1.040-0.88 1.84-1.84 1.84zM12.32 14.8c-1.040 0-1.84-0.8-1.84-1.84s0.8-1.84 1.84-1.84c1.040 0 1.84 0.8 1.84 1.84-0.080 0.96-0.88 1.84-1.84 1.84z"></path>
</svg>
<svg id="icon-cunchufenzu" width="16" height="16" viewBox="0 0 16 16" x="32" y="160">
<path fill="#fff" d="M10.72 8.56l-1.84 1.76v-3.92c0-0.48-0.4-0.88-0.88-0.88s-0.88 0.4-0.88 0.88v3.92l-1.84-1.76c-0.32-0.32-0.88-0.32-1.28 0-0.32 0.32-0.32 0.88 0 1.28l3.28 3.2c0.16 0.16 0.4 0.24 0.64 0.24s0.4-0.080 0.64-0.24l3.28-3.2c0.32-0.32 0.4-0.88 0-1.28-0.24-0.32-0.8-0.32-1.12 0zM14.4 2.96c0-1.44-1.12-2.56-2.48-2.56h-7.84c-1.36 0-2.48 1.12-2.48 2.48v0.080c-0.96 0.32-1.6 1.2-1.6 2.24v7.92c0 1.36 1.12 2.48 2.48 2.48h11.040c1.36 0 2.48-1.12 2.48-2.48v-7.92c0-1.040-0.64-1.92-1.6-2.24zM4.080 2.16h7.92c0.32 0 0.64 0.24 0.64 0.56h-9.28c0.080-0.32 0.32-0.56 0.72-0.56zM14.24 13.12c0 0.4-0.32 0.72-0.72 0.72h-11.040c-0.4 0-0.72-0.32-0.72-0.72v-7.92c0-0.4 0.32-0.72 0.72-0.72h11.040c0.4 0 0.72 0.32 0.72 0.72v7.92z"></path>
</svg>
<svg id="icon-liuchengfenzu" width="16" height="16" viewBox="0 0 16 16" x="64" y="160">
<path fill="#fff" d="M13.36 8.8c-0.080-1.12-0.96-1.92-2.16-1.92-0.56 0-1.040 0.24-1.44 0.64-0.080 0.080-0.16 0.16-0.16 0.24l-2.8-0.32c-0.080-0.48-0.32-0.96-0.72-1.28l1.2-2.080c0.16 0 0.32 0.080 0.4 0.080 1.12 0 2.080-0.96 2.080-2.080s-0.88-2.080-2.080-2.080c-1.12 0-2.080 0.96-2.080 2.080 0 0.56 0.24 1.040 0.56 1.44l-1.12 2.16h-0.4c-0.56 0-1.040 0.24-1.44 0.64s-0.56 0.96-0.56 1.52c0.080 1.12 0.96 1.92 2.080 1.92h0.080c0.56 0 1.040-0.24 1.44-0.64 0.16-0.16 0.24-0.32 0.32-0.48l2.64 0.24v0.080c0 0.4 0.16 0.8 0.4 1.12l-0.96 1.76h-0.16c-1.2 0-2.080 0.96-2.080 2.080s0.96 2.080 2.080 2.080c1.12 0 2.080-0.96 2.080-2.080 0-0.64-0.32-1.2-0.8-1.6l0.8-1.52c0.24 0.080 0.48 0.16 0.72 0.16h0.080c0.56 0 1.040-0.24 1.44-0.64 0.4-0.48 0.56-0.96 0.56-1.52zM7.68 1.2c0.48 0 0.88 0.4 0.88 0.88s-0.4 0.88-0.88 0.88c-0.48 0-0.88-0.4-0.88-0.88s0.4-0.88 0.88-0.88zM5.36 8.32c-0.16 0.16-0.4 0.24-0.64 0.32h-0.080c-0.48 0-0.88-0.4-0.88-0.8 0-0.24 0.080-0.48 0.24-0.64s0.4-0.24 0.64-0.32c0.56-0.080 0.96 0.32 0.96 0.8 0 0.24-0.080 0.4-0.24 0.64zM8.48 14.8c-0.48 0-0.88-0.4-0.88-0.88s0.4-0.88 0.88-0.88c0.48 0 0.88 0.4 0.88 0.88s-0.4 0.88-0.88 0.88zM11.92 9.44c-0.16 0.16-0.4 0.24-0.64 0.32h-0.080c-0.48 0-0.88-0.4-0.88-0.8 0-0.24 0.080-0.48 0.24-0.64s0.4-0.24 0.64-0.32c0.48 0 0.88 0.4 0.88 0.8 0.080 0.24 0 0.48-0.16 0.64z"></path>
</svg>
<svg id="icon-zuzhi" width="16" height="16" viewBox="0 0 16 16" x="96" y="160">
<path fill="#fff" d="M13.76 5.44h2.24l-8.080-4.8-7.92 4.8h2v8.4h-1.12v1.6h14v-1.6h-1.12v-8.4M6.48 13.76h-2.4v-8.4h2.4v8.4M11.68 13.76h-2.32v-8.4h2.32v8.4"></path>
</svg>
<svg id="icon-yonghu" width="16" height="16" viewBox="0 0 16 16" x="128" y="160">
<path fill="#fff" d="M11.6 8.8c0.56-0.88 0.88-2.080 0.88-3.28 0-3.040-2-5.52-4.48-5.52s-4.48 2.48-4.48 5.52c0 1.2 0.32 2.4 0.88 3.28-2.32 1.12-3.92 3.28-3.92 5.68v0.48c0 0.56 0.48 1.040 0.96 1.040h13.040c0.56 0 0.96-0.48 0.96-1.040v-0.48c0.080-2.48-1.52-4.56-3.84-5.68zM8 1.52c1.6 0 2.96 1.84 2.96 4s-1.36 4-2.96 4-3.040-1.84-3.040-4c0.080-2.16 1.44-4 3.040-4zM2 14.48c0-2 1.36-3.68 3.44-4.48 0.72 0.64 1.6 1.040 2.56 1.040s1.84-0.4 2.56-1.040c2 0.8 3.44 2.56 3.44 4.48h-12z"></path>
</svg>
<svg id="icon-bianji" width="16" height="16" viewBox="0 0 16 16" x="160" y="160">
<path fill="#fff" d="M2.638 10.49l3.274 3.433 8.065-8.464-3.274-3.433-8.065 8.464M0.003 16l5.19-1.278-3.354-3.433-1.837 4.711M14.854 1.148c-0.958-0.958-1.757-1.677-2.715-0.639l-0.639 0.719 3.354 3.513 0.639-0.719c0.958-0.958 0.319-1.837-0.639-2.875"></path>
</svg>
<svg id="icon-queren" width="16" height="16" viewBox="0 0 16 16" x="192" y="160">
<path fill="#fff" d="M14.4 2.24l-8.32 8.24-4.48-4.4-1.6 1.68 6.080 6 9.92-9.92-1.6-1.6z"></path>
</svg>
<svg id="icon-zhankai" width="16" height="16" viewBox="0 0 16 16" x="224" y="160">
<path fill="#fff" d="M8 0c-4.4 0-8 3.6-8 8s3.6 8 8 8 8-3.6 8-8-3.6-8-8-8zM8 14.72c-3.76 0-6.8-3.040-6.8-6.8s3.040-6.8 6.8-6.8 6.8 3.040 6.8 6.8-3.040 6.8-6.8 6.8zM8 9.040l-3.68-3.76-0.88 0.88 4.56 4.56 4.64-4.56-0.88-0.88-3.76 3.76z"></path>
</svg>
<svg id="icon-guanbi" width="16" height="16" viewBox="0 0 16 16" x="256" y="160">
<path fill="#fff" d="M8 0c-4.4 0-8 3.6-8 8s3.6 8 8 8 8-3.6 8-8-3.6-8-8-8zM8 14.72c-3.76 0-6.8-3.040-6.8-6.8s3.040-6.8 6.8-6.8 6.8 3.040 6.8 6.8-3.040 6.8-6.8 6.8zM9.040 8l-3.76 3.68 0.88 0.88 4.56-4.56-4.56-4.64-0.88 0.88 3.76 3.76z"></path>
</svg>
<svg id="icon-qingjia" width="16" height="16" viewBox="0 0 16 16" x="288" y="160">
<path fill="#fff" d="M1.040 2.64h3.040v0.88c0 0.24 0.24 0.48 0.48 0.48s0.48-0.24 0.48-0.48v-0.88h3.84v0.88c0 0.24 0.24 0.48 0.48 0.48s0.48-0.24 0.48-0.48v-0.88h2.64v4.4h1.040v-4.4c0-0.56-0.48-1.040-1.040-1.040h-2.56v-0.96c0-0.24-0.24-0.48-0.48-0.48s-0.48 0.24-0.48 0.48v0.96h-3.92v-0.96c0-0.24-0.24-0.48-0.48-0.48s-0.48 0.24-0.48 0.48v0.96h-3.040c-0.56 0-1.040 0.48-1.040 1.040v9.68c0 0.56 0.48 1.040 1.040 1.040h6.080v-1.040h-6.080v-9.68zM2.64 6.16c0 0.24 0.16 0.56 0.4 0.64 0.24 0.16 0.56 0.16 0.8 0s0.4-0.4 0.4-0.64-0.16-0.56-0.4-0.64c-0.24-0.16-0.56-0.16-0.8 0s-0.4 0.4-0.4 0.64M6.080 6.16c0 0.24 0.16 0.56 0.4 0.64 0.24 0.16 0.56 0.16 0.8 0s0.4-0.4 0.4-0.64-0.16-0.56-0.4-0.64c-0.24-0.16-0.56-0.16-0.8 0s-0.4 0.4-0.4 0.64M9.44 6.16c0 0.24 0.16 0.56 0.4 0.64 0.24 0.16 0.56 0.16 0.8 0s0.4-0.4 0.4-0.64-0.16-0.56-0.4-0.64c-0.24-0.16-0.56-0.16-0.8 0-0.32 0.16-0.4 0.4-0.4 0.64M2.64 9.2c0 0.24 0.16 0.56 0.4 0.64 0.24 0.16 0.56 0.16 0.8 0s0.4-0.4 0.4-0.64-0.16-0.56-0.4-0.64c-0.24-0.16-0.56-0.16-0.8 0-0.24 0.080-0.4 0.4-0.4 0.64M6.080 9.2c0 0.24 0.16 0.56 0.4 0.64 0.24 0.16 0.56 0.16 0.8 0s0.4-0.4 0.4-0.64-0.16-0.56-0.4-0.64c-0.24-0.16-0.56-0.16-0.8 0-0.24 0.080-0.4 0.4-0.4 0.64M12.080 8.080c-2.16 0-3.92 1.76-3.92 3.92s1.76 3.92 3.92 3.92 3.92-1.76 3.92-3.92-1.76-3.92-3.92-3.92zM12.080 14.88c-1.6 0-2.88-1.28-2.88-2.88s1.28-2.88 2.88-2.88 2.88 1.28 2.88 2.88-1.28 2.88-2.88 2.88zM13.6 11.44h-0.96v-1.12c0-0.24-0.24-0.48-0.48-0.48s-0.48 0.24-0.48 0.48v1.68c0 0.24 0.24 0.48 0.48 0.48h1.44c0.24 0 0.48-0.24 0.48-0.48 0-0.32-0.24-0.56-0.48-0.56z"></path>
</svg>
<svg id="icon-xinwenfabu" width="16" height="16" viewBox="0 0 16 16" x="320" y="160">
<path fill="#fff" d="M13.040 7.040h-10v-4h0.96v2.96h8v-2.96h1.040v4zM11.040 4.96h-3.040v-1.92h1.040v0.96h0.96v-0.96h1.040v1.92zM16 16h-16v-16h13.040v1.040h-12v14h14v-12h0.96v12.96zM3.040 9.040h10v0.96h-10v-0.96zM3.040 11.040h10v0.96h-10v-0.96zM3.040 13.040h10v0.96h-10v-0.96z"></path>
</svg>
<svg id="icon-yongyinshenqing" width="16" height="16" viewBox="0 0 16 16" x="352" y="160">
<path fill="#fff" d="M4.56 7.2c0.080 0.16 0.16 0.24 0.24 0.32l0.24 0.24c0.24 0.24 0.24 0.4 0 0.72l-0.16 0.16c-0.080 0-0.16 0.080-0.16 0.16l-0.080 0.080c-0.080 0.080-0.24 0.24-0.32 0.4-0.24 0.4-0.24 0.88 0 1.28s0.56 0.56 1.040 0.56h5.28c0.16 0 0.24 0 0.4-0.080 0.4-0.080 0.64-0.4 0.8-0.72 0.16-0.4 0.080-0.8-0.16-1.12-0.080-0.16-0.24-0.32-0.4-0.4l-0.16-0.16c-0.32-0.32-0.32-0.48 0-0.88 0.080-0.32 0.32-0.56 0.48-0.8 0.72-1.040 0.96-2.16 0.8-3.36-0.16-0.88-0.48-1.6-1.040-2.16-0.48-0.56-1.2-1.040-2-1.28-0.48-0.080-0.96-0.16-1.44-0.16-1.12 0-2.080 0.4-2.96 1.28-1.040 0.96-1.52 2.16-1.36 3.6 0.080 0.8 0.4 1.6 0.96 2.32zM5.6 1.92c0.32-0.32 0.72-0.56 1.12-0.72s0.8-0.24 1.2-0.24 0.72 0.080 1.12 0.16c0.64 0.24 1.2 0.56 1.6 0.96 0.4 0.48 0.64 1.040 0.8 1.68 0.080 0.48 0.080 0.88 0 1.36-0.16 0.48-0.32 0.88-0.64 1.28-0.16 0.24-0.32 0.4-0.48 0.64-0.64 0.72-0.64 1.44 0.080 2.080 0.080 0.080 0.080 0.16 0.16 0.16l0.32 0.32c0.080 0.080 0.080 0.24 0.080 0.24 0 0.080-0.080 0.16-0.16 0.16h-5.44c-0.16 0-0.16-0.080-0.24-0.080-0.080-0.080-0.080-0.16 0-0.32 0-0.080 0.080-0.16 0.16-0.24l0.48-0.48c0.48-0.56 0.56-1.28 0-1.92-0.080 0.080-0.16 0-0.24-0.080s-0.080-0.16-0.16-0.24c-0.48-0.64-0.8-1.2-0.8-1.84-0.080-0.56 0-1.12 0.16-1.6s0.48-0.88 0.88-1.28zM15.12 12.8c0-0.32-0.080-0.64-0.32-0.88s-0.56-0.32-0.88-0.32h-11.76c-0.72 0-1.2 0.48-1.2 1.2v1.6h14.16v-1.6zM1.84 12.72c0-0.16 0.080-0.24 0.24-0.24h11.76c0.080 0 0.16 0 0.24 0.080s0.080 0.16 0.080 0.24v0.64h-12.32v-0.72zM1.68 15.040h12.64v0.96h-12.64v-0.96z"></path>
</svg>
<svg id="icon-huiyishenqing" width="16" height="16" viewBox="0 0 16 16" x="384" y="160">
<path fill="#fff" d="M11.92 6.64h-1.12c-0.16-0.88-0.72-1.6-1.52-2 0.4-0.4 0.64-0.88 0.64-1.52 0-1.12-0.88-2-1.92-2s-1.92 0.88-1.92 2c0 0.56 0.24 1.12 0.64 1.52-0.8 0.4-1.36 1.12-1.52 2h-1.12c-2.24 0-4.080 1.84-4.080 4.080s1.84 4.080 4.080 4.080h7.76c2.24 0 4.080-1.84 4.080-4.080 0.080-2.24-1.76-4.080-4-4.080zM8 2c0.64 0 1.12 0.56 1.12 1.2s-0.48 1.2-1.12 1.2c-0.64 0-1.12-0.56-1.12-1.2 0-0.72 0.48-1.2 1.12-1.2zM8 5.12c0.96 0 1.68 0.64 2 1.52h-3.92c0.24-0.88 1.040-1.52 1.92-1.52zM8 12.24c1.040 0 1.84 0.72 2 1.76h-4c0.16-1.040 0.96-1.76 2-1.76zM6.88 10.24c0-0.64 0.48-1.2 1.12-1.2s1.12 0.56 1.12 1.2-0.48 1.2-1.12 1.2c-0.64 0-1.12-0.56-1.12-1.2zM11.92 14h-1.040c-0.080-0.96-0.72-1.84-1.52-2.24 0.4-0.4 0.64-0.88 0.64-1.52 0-1.12-0.88-2-1.92-2s-1.92 0.88-1.92 2c0 0.56 0.24 1.12 0.64 1.52-0.88 0.4-1.44 1.28-1.52 2.24h-1.2c-1.84 0-3.28-1.44-3.28-3.28s1.44-3.28 3.28-3.28h7.76c1.84 0 3.28 1.44 3.28 3.28s-1.44 3.28-3.2 3.28z"></path>
</svg>
<svg id="icon-shouwenguanli" width="16" height="16" viewBox="0 0 16 16" x="416" y="160">
<path fill="#fff" d="M12.32 11.12l3.68-8.32-2-0.88-3.68 8.32 2 0.88M14.16 9.28v5.76h-13.2v-14.080h13.2c0.080 0 0.16 0 0.16 0.080l0.8 0.32v-0.88c0-0.24-0.24-0.48-0.48-0.48h-14.16c-0.24 0-0.48 0.24-0.48 0.48v15.12c0 0.16 0.24 0.4 0.48 0.4h14.24c0.24 0 0.48-0.24 0.48-0.48v-8.4l-1.040 2.16M10.080 10.8l2 0.88-2.080 2 0.080-2.88zM7.28 8.4h-4.4c-0.24 0-0.48-0.24-0.48-0.48s0.24-0.48 0.48-0.48h4.32c0.24 0 0.48 0.24 0.48 0.48 0.080 0.24-0.16 0.48-0.4 0.48M10.32 4.88h-7.44c-0.24 0-0.48-0.24-0.48-0.48s0.24-0.48 0.48-0.48h7.44c0.24 0 0.48 0.24 0.48 0.48s-0.24 0.48-0.48 0.48M7.28 12h-4.4c-0.24 0-0.48-0.24-0.48-0.48s0.24-0.48 0.48-0.48h4.32c0.24 0 0.48 0.24 0.48 0.48 0.080 0.24-0.16 0.48-0.4 0.48"></path>
</svg>
<svg id="icon-urse" width="16" height="16" viewBox="0 0 16 16" x="448" y="160">
<path fill="#fff" d="M15.36 4.88c-0.4-0.96-0.96-1.84-1.68-2.56s-1.6-1.28-2.56-1.68c-0.96-0.4-2.080-0.64-3.12-0.64s-2.16 0.24-3.12 0.64c-0.96 0.4-1.84 0.96-2.56 1.68s-1.28 1.6-1.68 2.56c-0.4 0.96-0.64 2.080-0.64 3.12s0.24 2.16 0.64 3.12c0.4 0.96 0.96 1.84 1.68 2.56s1.6 1.28 2.56 1.68c0.96 0.4 2.080 0.64 3.12 0.64s2.16-0.24 3.12-0.64c0.96-0.4 1.84-0.96 2.56-1.68s1.28-1.6 1.68-2.56c0.4-0.96 0.64-2 0.64-3.12 0-1.040-0.24-2.16-0.64-3.12zM8 8.96c-1.6 0-2.88-1.28-2.88-2.88s1.28-2.88 2.88-2.88 2.88 1.28 2.88 2.88-1.28 2.88-2.88 2.88zM4.96 10.8c0.88-0.72 1.92-1.040 3.040-1.040s2.16 0.4 3.040 1.040c0.8 0.64 1.44 1.6 1.68 2.64-0.56 0.48-1.2 0.96-1.92 1.2-0.88 0.4-1.84 0.56-2.8 0.56s-1.92-0.16-2.8-0.56c-0.72-0.32-1.36-0.72-1.92-1.2 0.24-1.040 0.8-2 1.68-2.64zM11.52 10.16c-0.48-0.4-1.040-0.72-1.6-0.88h-0.080c0.48-0.32 0.96-0.72 1.28-1.2 0.4-0.56 0.56-1.28 0.56-1.92 0-2-1.6-3.68-3.68-3.68-2 0-3.68 1.6-3.68 3.68 0 0.72 0.16 1.36 0.56 1.92 0.32 0.48 0.72 0.88 1.28 1.2h-0.080c-0.56 0.24-1.12 0.48-1.6 0.88-0.88 0.64-1.52 1.6-1.84 2.56-0.48-0.56-0.96-1.28-1.28-2-0.4-0.8-0.56-1.76-0.56-2.72s0.16-1.92 0.56-2.8c0.4-0.88 0.88-1.6 1.52-2.32 0.64-0.64 1.44-1.2 2.32-1.52 0.88-0.4 1.84-0.56 2.8-0.56s1.92 0.16 2.8 0.56c0.88 0.4 1.6 0.88 2.32 1.52 0.64 0.64 1.2 1.44 1.52 2.32 0.4 0.88 0.56 1.84 0.56 2.8s-0.16 1.92-0.56 2.8c-0.32 0.72-0.72 1.36-1.28 2-0.32-1.040-0.96-2-1.84-2.64z"></path>
</svg>
<svg id="icon-password" width="16" height="16" viewBox="0 0 16 16" x="480" y="160">
<path fill="#fff" d="M8 16c-1.040 0-2.16-0.24-3.12-0.64s-1.84-0.96-2.56-1.68c-0.72-0.72-1.28-1.6-1.68-2.56s-0.64-2.080-0.64-3.12 0.24-2.16 0.64-3.12c0.4-0.96 0.96-1.84 1.68-2.56s1.6-1.28 2.56-1.68c0.96-0.4 2.080-0.64 3.12-0.64s2.16 0.24 3.12 0.64c0.96 0.4 1.84 0.96 2.56 1.68s1.28 1.6 1.68 2.56c0.4 0.96 0.64 2.080 0.64 3.12s-0.24 2.16-0.64 3.12c-0.4 0.96-0.96 1.84-1.68 2.56s-1.6 1.28-2.56 1.68c-0.96 0.4-2.080 0.64-3.12 0.64zM8 0.8c-4 0-7.2 3.2-7.2 7.2s3.2 7.2 7.2 7.2 7.2-3.2 7.2-7.2-3.2-7.2-7.2-7.2zM10.4 5.6c0-1.36-0.96-2.32-2.4-2.32s-2.4 1.040-2.4 2.4v1.12h-0.24c-0.64 0-1.2 0.56-1.2 1.2v3.52c0 0.64 0.56 1.2 1.2 1.2h5.28c0.64 0 1.2-0.56 1.2-1.2v-3.52c0-0.64-0.56-1.2-1.2-1.2h-4.4v-1.12c0-1.040 0.72-1.84 1.76-1.84s1.76 0.64 1.76 1.68c0 0 0 0.24 0.32 0.24 0.24 0.080 0.32-0.16 0.32-0.16zM11.28 11.52c0 0.32-0.24 0.56-0.56 0.56h-5.36c-0.32 0-0.56-0.24-0.56-0.56v-3.52c0-0.32 0.24-0.56 0.56-0.56h5.28c0.32 0 0.56 0.24 0.56 0.56v3.52h0.080zM8 8.56c-0.32 0-0.56 0.24-0.56 0.56 0 0.24 0.080 0.4 0.32 0.48v0.96c0 0.16 0.16 0.32 0.32 0.32s0.32-0.16 0.32-0.32v-0.96c0.16-0.080 0.32-0.32 0.32-0.48-0.16-0.24-0.4-0.56-0.72-0.56z"></path>
</svg>
<svg id="icon-man" width="16" height="16" viewBox="0 0 16 16" x="0" y="192">
<path fill="#fff" d="M6.249 9.234c0.159 0.159 0.716 0.876 1.831 0.876 0.955 0 1.592-0.557 1.831-0.796-0.080-0.239-0.080-0.557 0.080-0.955 0.955-1.035 1.831-2.706 1.831-4.378-0.159-2.627-1.831-3.98-3.821-3.98s-3.662 1.353-3.662 3.901c0 1.672 0.716 3.343 1.831 4.378 0.159 0.398 0.159 0.716 0.080 0.955zM10.547 9.791s-0.637 2.945-1.512 4.617c-0.318-1.274-0.796-2.388-0.796-2.388s0.716-0.239 0.716-0.716c0-0.557-0.876-0.876-0.876-0.876s-0.955 0.159-0.955 0.876c0 0.398 0.716 0.716 0.716 0.716s-0.478 1.114-0.796 2.308c-0.796-1.592-1.433-4.458-1.433-4.458-2.070 0.716-4.298 2.070-4.298 3.423v0.478c0 1.831 3.502 2.229 6.846 2.229s6.766-0.398 6.766-2.229v-0.478c-0.080-1.433-2.308-2.786-4.378-3.502z"></path>
</svg>
<svg id="icon-woman" width="16" height="16" viewBox="0 0 16 16" x="32" y="192">
<path fill="#fff" d="M9.92 10.24v-0.24h2.88v-5.68c0-2.4-2.16-4.32-4.8-4.32s-4.8 1.92-4.8 4.32v5.68h2.88v0.24l-5.68 3.68v2.080h15.2v-2l-5.68-3.76zM10.080 13.84c-1.36 1.36-2.080-0.72-2.080-0.72s-0.72 2-2.080 0.72c0 0-0.64-0.4-0.64-3.040l2.8 2.32 2.8-2.32c-0.16 2.64-0.8 3.040-0.8 3.040z"></path>
</svg>
<svg id="icon-checkbox" width="16" height="16" viewBox="0 0 16 16" x="64" y="192">
<path fill="#fff" d="M13.6 0h-11.2c-1.36 0-2.4 1.040-2.4 2.4v11.2c0 1.28 1.040 2.4 2.4 2.4h11.2c1.36 0 2.4-1.12 2.4-2.4v-11.2c0-1.36-1.040-2.4-2.4-2.4zM9.76 9.36c-1.84 2-2.48 3.44-2.48 3.44s-0.8-0.88-1.68-1.92c-0.88-1.040-2.4-1.52-2.4-1.52l2.64-1.84 1.28 2.72s0.32-1.2 2.24-3.92c1.84-2.8 3.28-3.12 3.28-3.12s-0.080 0.96 0 2.080c0 0.72 0.16 1.52 0.16 1.52s-1.28 0.64-3.040 2.56z"></path>
</svg>
<svg id="icon-checkbox_" width="16" height="16" viewBox="0 0 16 16" x="96" y="192">
<path fill="#fff" d="M13.6 0h-11.2c-1.36 0-2.4 1.040-2.4 2.4v11.2c0 1.28 1.040 2.4 2.4 2.4h11.2c1.36 0 2.4-1.12 2.4-2.4v-11.2c0-1.36-1.040-2.4-2.4-2.4zM14.8 12.8c0 1.12-0.88 2-2 2h-9.6c-1.12 0-2-0.96-2-2v-9.6c0-1.12 0.88-2 2-2h9.6c1.12 0 2 0.88 2 2v9.6zM9.76 9.36c-1.84 2-2.48 3.44-2.48 3.44s-0.8-0.88-1.68-1.92-2.4-1.52-2.4-1.52l2.64-1.84 1.28 2.72s0.32-1.2 2.24-3.92c1.84-2.8 3.28-3.12 3.28-3.12s-0.080 0.96 0 2.080c0 0.72 0.16 1.52 0.16 1.52s-1.28 0.64-3.040 2.56z"></path>
</svg>
<svg id="icon-radio" width="16" height="16" viewBox="0 0 16 16" x="128" y="192">
<path fill="#fff" d="M8 0c-4.4 0-8 3.6-8 8s3.6 8 8 8 8-3.6 8-8-3.6-8-8-8zM12.88 12.88c-0.64 0.64-1.36 1.12-2.16 1.44-0.88 0.32-1.76 0.56-2.64 0.56s-1.84-0.16-2.64-0.56c-0.8-0.32-1.52-0.88-2.16-1.44-0.64-0.64-1.12-1.36-1.44-2.16-0.32-0.88-0.56-1.76-0.56-2.64s0.16-1.84 0.56-2.64c0.32-0.8 0.88-1.52 1.44-2.16 0.64-0.64 1.36-1.12 2.16-1.44 0.72-0.56 1.6-0.72 2.56-0.72s1.84 0.16 2.64 0.56c0.8 0.32 1.52 0.88 2.16 1.44 0.64 0.64 1.12 1.36 1.44 2.16 0.32 0.88 0.56 1.76 0.56 2.64s-0.16 1.84-0.56 2.64c-0.24 0.96-0.72 1.68-1.36 2.32zM4.4 8c0 2 1.6 3.6 3.6 3.6s3.6-1.6 3.6-3.6-1.6-3.6-3.6-3.6-3.6 1.6-3.6 3.6"></path>
</svg>
<svg id="icon-radio_" width="16" height="16" viewBox="0 0 16 16" x="160" y="192">
<path fill="#fff" d="M8 0c-4.4 0-8 3.6-8 8s3.6 8 8 8 8-3.6 8-8-3.6-8-8-8zM12.88 12.88c-0.64 0.64-1.36 1.12-2.16 1.44-0.88 0.32-1.76 0.56-2.64 0.56s-1.84-0.16-2.64-0.56c-0.8-0.32-1.52-0.88-2.16-1.44-0.64-0.64-1.12-1.36-1.44-2.16-0.32-0.88-0.56-1.76-0.56-2.64s0.16-1.84 0.56-2.64c0.32-0.8 0.88-1.52 1.44-2.16 0.64-0.64 1.36-1.12 2.16-1.44 0.72-0.56 1.6-0.72 2.56-0.72s1.84 0.16 2.64 0.56c0.8 0.32 1.52 0.88 2.16 1.44 0.64 0.64 1.12 1.36 1.44 2.16 0.32 0.88 0.56 1.76 0.56 2.64s-0.16 1.84-0.56 2.64c-0.24 0.96-0.72 1.68-1.36 2.32z"></path>
</svg>
<svg id="icon-checkbox_1" width="16" height="16" viewBox="0 0 16 16" x="192" y="192">
<path fill="#fff" d="M13.6 0h-11.2c-1.36 0-2.4 1.040-2.4 2.4v11.2c0 1.28 1.040 2.4 2.4 2.4h11.2c1.36 0 2.4-1.12 2.4-2.4v-11.2c0-1.36-1.040-2.4-2.4-2.4zM14.8 12.8c0 1.12-0.88 2-2 2h-9.6c-1.12 0-2-0.96-2-2v-9.6c0-1.12 0.88-2 2-2h9.6c1.12 0 2 0.88 2 2v9.6z"></path>
</svg>
<svg id="icon-style" width="16" height="16" viewBox="0 0 16 16" x="224" y="192">
<path fill="#fff" d="M4.48 8c0 1.92 1.52 3.44 3.52 3.44v-6.96c-1.92 0-3.52 1.6-3.52 3.52zM8 0c-4.4 0-8 3.6-8 8s3.6 8 8 8 8-3.6 8-8-3.6-8-8-8zM8 12.4c-2.4 0-4.4-2-4.4-4.4s2-4.4 4.4-4.4 4.4 2 4.4 4.4-2 4.4-4.4 4.4z"></path>
</svg>
<svg id="icon-Preservation" width="16" height="16" viewBox="0 0 16 16" x="256" y="192">
<path fill="#fff" d="M5.28 4.4h5.44v3.6h-5.44zM8 0c-4.4 0-8 3.6-8 8s3.6 8 8 8 8-3.6 8-8-3.6-8-8-8zM7.44 12h-0.96v-1.6h0.96v1.6zM12 11.84c0 0.080-0.080 0.16-0.16 0.16h-2.4v-2.32h-3.68v2.32h-0.56l-1.2-1.2v-6.64c0-0.080 0.080-0.16 0.16-0.16h7.6c0.16 0 0.24 0.080 0.24 0.16v7.68z"></path>
</svg>
<svg id="icon-open" width="16" height="16" viewBox="0 0 16 16" x="288" y="192">
<path fill="#fff" d="M8 0c-4.4 0-8 3.6-8 8s3.6 8 8 8 8-3.6 8-8-3.6-8-8-8zM8.080 4l2.64 2.64h-2.64v-2.64zM10.88 12h-5.76v-8h2.64v3.040h3.2v4.96z"></path>
</svg>
<svg id="icon-preview" width="16" height="16" viewBox="0 0 16 16" x="320" y="192">
<path fill="#fff" d="M8 0c-4.4 0-8 3.6-8 8s3.6 8 8 8 8-3.6 8-8-3.6-8-8-8zM8 11.28c-2.64 0-4.8-3.2-4.8-3.28s2.16-3.28 4.8-3.28 4.88 3.36 4.8 3.28c0 0-2.16 3.28-4.8 3.28zM8 5.76c-1.12 0-2 0.96-2 2.16s0.88 2.16 2 2.16 2-0.96 2-2.16c0-1.2-0.88-2.16-2-2.16zM8 8.88c-0.56 0-0.96-0.48-0.96-1.040s0.4-1.040 0.96-1.040 0.96 0.48 0.96 1.040c0 0.64-0.48 1.040-0.96 1.040z"></path>
</svg>
<svg id="icon-Save" width="16" height="16" viewBox="0 0 16 16" x="352" y="192">
<path fill="#fff" d="M8 0c-4.4 0-8 3.6-8 8s3.6 8 8 8 8-3.6 8-8-3.6-8-8-8zM4.96 10h-0.8v-5.6c0-0.48 0.32-0.8 0.8-0.8h4.8v0.8h-4.8v5.6zM11.76 11.6c0 0.48-0.24 0.8-0.72 0.8h-4.48c-0.4 0-0.8-0.32-0.8-0.8v-5.6c0-0.48 0.32-0.8 0.8-0.8h4.4c0.48 0 0.8 0.32 0.8 0.8v5.6z"></path>
</svg>
<svg id="icon-Preservation_" width="16" height="16" viewBox="0 0 16 16" x="384" y="192">
<path fill="#fff" d="M5.040 8.080v2.88h5.84v-2.88c0-0.080-0.080-0.16-0.16-0.16h-5.6c-0.080 0-0.080 0.080-0.080 0.16zM9.52 8.4c0-0.080 0.080-0.16 0.16-0.16h0.72c0.080 0 0.16 0.080 0.16 0.16v0.72c0 0.080-0.080 0.16-0.16 0.16h-0.8c-0.080 0-0.16-0.080-0.16-0.16v-0.72zM5.12 6.32h3.92c0.080 0 0.16-0.080 0.16-0.16v-0.96c0-0.080-0.080-0.16-0.16-0.16h-3.92c-0.080 0-0.16 0.080-0.16 0.16v0.96c0.080 0.080 0.080 0.16 0.16 0.16zM8 0c-4.4 0-8 3.6-8 8s3.6 8 8 8 8-3.6 8-8-3.6-8-8-8zM12 11.36c0 0.32-0.24 0.64-0.64 0.64h-6.72c-0.4 0-0.64-0.24-0.64-0.64v-6.72c0-0.4 0.24-0.64 0.64-0.64h5.44l1.92 1.92v5.44z"></path>
</svg>
<svg id="icon-simulation" width="16" height="16" viewBox="0 0 16 16" x="416" y="192">
<path fill="#fff" d="M11.12 6.080h-6.24c-0.24 0-0.4 0.16-0.4 0.4v4.16c0 0.24 0.16 0.4 0.4 0.4h6.16c0.24 0 0.4-0.16 0.4-0.4v-4.16c0.080-0.24-0.16-0.4-0.32-0.4zM6 9.68c-0.24 0-0.4-0.16-0.4-0.4s0.16-0.4 0.4-0.4 0.4 0.16 0.4 0.4-0.16 0.4-0.4 0.4zM6 8.16c-0.24 0-0.4-0.24-0.4-0.4s0.16-0.4 0.4-0.4 0.4 0.16 0.4 0.4-0.16 0.4-0.4 0.4zM10.16 9.68h-2.64c-0.24 0-0.4-0.16-0.4-0.4s0.16-0.4 0.4-0.4h2.72c0.24 0 0.4 0.16 0.4 0.4s-0.24 0.4-0.48 0.4zM10.16 8.080h-2.64c-0.24 0-0.4-0.16-0.4-0.4s0.16-0.4 0.4-0.4h2.72c0.24 0 0.4 0.16 0.4 0.4-0.080 0.24-0.24 0.4-0.48 0.4zM8 0c-4.4 0-8 3.6-8 8s3.6 8 8 8 8-3.6 8-8-3.6-8-8-8zM11.52 11.6h-6.96s-0.56 0.080-0.56-0.64v-5.92s0-0.64 0.72-0.64h2.4s0.32-0.080 0.56 0.32c0.24 0.4 0.32 0.56 0.32 0.56s0.080 0.080 0.32 0.080h3.12s0.56 0 0.56 0.64v5.040c0-0.080 0.080 0.56-0.48 0.56z"></path>
</svg>
<svg id="icon-Release" width="16" height="16" viewBox="0 0 16 16" x="448" y="192">
<path fill="#fff" d="M8 0c-4.4 0-8 3.6-8 8s3.6 8 8 8 8-3.6 8-8-3.6-8-8-8zM3.68 6.56c-0.080-0.080-0.080-0.24-0.080-0.32 0-0.16 0.080-0.24 0.16-0.32 0.16-0.16 0.48-0.16 0.64 0.080l0.24 0.32-0.64 0.48-0.32-0.24zM4.88 6.4l2.32 2.64 0.16 0.4 0.4 0.96-0.96-0.56-0.4-0.24-2.24-2.56 0.72-0.64zM10.32 8.56s0.080 0.080 0 0l0.080 0.48s0 0.080-0.080 0.080h-2.56l-0.16-0.32c0-0.080-0.080-0.080-0.080-0.16l-0.080-0.16 2.88 0.080zM10.32 9.6s0.080 0 0 0l0.080 0.48s0 0.080-0.080 0.080h-2.16l-0.24-0.56h2.4zM10.32 8.16h-3.6s-0.080 0-0.080-0.080v-0.48s0-0.080 0.080-0.080h3.6s0.080 0 0.080 0.080l-0.080 0.56c0.080-0.080 0 0 0 0zM8.8 6.48c0 0.080-0.080 0.080 0 0l-2.080 0.080s-0.080 0-0.080-0.080v-0.4s0-0.080 0.080-0.080h2s0.080 0 0.080 0.080v0.4zM11.6 11.12c0 0.32-0.24 0.56-0.56 0.56h-5.12c-0.32 0-0.56-0.24-0.56-0.56v-2l0.72 0.8v1.040h4.88v-4.32h-0.96c-0.32 0-0.56-0.24-0.56-0.56v-1.040h-3.36v2l-0.72-0.8v-1.36c0-0.32 0.24-0.56 0.56-0.56h3.68c0.16 0 0.32 0.16 0.32 0.16l1.52 1.52s0.16 0.16 0.16 0.32v4.8z"></path>
</svg>
<svg id="icon-shouquan" width="16" height="16" viewBox="0 0 16 16" x="480" y="192">
<path fill="#fff" d="M15.28 5.36l-6.8 6.8c-0.16 0.16-0.48 0.16-0.64 0l-0.080-0.16-3.76-3.76c-0.16-0.16-0.16-0.48 0-0.64l0.96-0.96c0.16-0.16 0.48-0.16 0.64 0l2.64 2.64 5.52-5.52c0.16-0.16 0.48-0.16 0.64 0l0.88 1.040c0.16 0.16 0.16 0.4 0 0.56M11.36 3.28c-0.64-0.56-0.72-1.68-0.72-1.68s-1.6-0.32-3.2-0.32-3.2 0.32-3.2 0.32-0.080 1.040-0.72 1.6c-0.56 0.64-1.68 0.72-1.68 0.72s-0.16 2.080 0 3.92c0.16 1.76 0.64 3.52 2.24 4.88 1.36 1.12 3.28 1.92 3.28 1.92s1.52-0.72 2.72-1.44c1.28-0.8 2.4-1.92 2.8-4.080v-0.24l1.28-1.28c-0.080 0.64-0.080 1.2-0.24 1.76-0.4 2.56-1.84 3.92-3.36 4.88-1.28 0.96-3.12 1.76-3.12 1.76s-2.4-1.040-4-2.4c-1.92-1.6-2.48-3.76-2.72-5.84-0.24-2.16-0.080-4.64-0.080-4.64s1.36-0.080 2.16-0.8c0.72-0.72 0.88-2 0.88-2s1.92-0.32 3.76-0.32c1.92 0 3.84 0.32 3.84 0.32s0.080 1.28 0.88 2c0.32 0.32 0.8 0.48 1.2 0.56l-0.96 0.88c-0.32 0-0.72-0.16-1.040-0.48"></path>
</svg>
<svg id="icon-pifu" width="16" height="16" viewBox="0 0 16 16" x="0" y="224">
<path fill="#fff" d="M8.080 2.88c0.96 0 1.84-0.64 2.080-1.6 1.12 0.32 3.36 0.96 5.84 2.8l-1.92 3.6-1.6-0.4v7.36h-8.96v-7.28l-1.6 0.4-1.92-3.68c2.64-2 5.12-2.64 6.080-2.8 0.24 0.96 1.040 1.6 2 1.6z"></path>
</svg>
<svg id="icon-gengduo" width="16" height="16" viewBox="0 0 16 16" x="32" y="224">
<path fill="#fff" d="M8 0c-4.4 0-8 3.6-8 8s3.6 8 8 8 8-3.6 8-8-3.6-8-8-8zM3.6 9.44c-0.8 0-1.44-0.64-1.44-1.44s0.64-1.44 1.44-1.44 1.44 0.64 1.44 1.44c0.080 0.8-0.64 1.44-1.44 1.44zM8 9.44c-0.8 0-1.44-0.64-1.44-1.44s0.64-1.44 1.44-1.44 1.44 0.64 1.44 1.44-0.64 1.44-1.44 1.44zM12.4 9.44c-0.8 0-1.44-0.64-1.44-1.44s0.64-1.44 1.44-1.44 1.44 0.64 1.44 1.44-0.64 1.44-1.44 1.44z"></path>
</svg>
<svg id="icon-qiehuan_admin" width="16" height="16" viewBox="0 0 16 16" x="64" y="224">
<path fill="#fff" d="M9.92 3.44c-0.24-0.24-0.56-0.24-0.8 0s-0.24 0.56 0 0.8l1.52 1.52h-6.64c-0.32 0-0.56 0.24-0.56 0.56s0.24 0.56 0.56 0.56h8c0.080 0 0.56 0 0.56-0.56 0-0.32-0.080-0.48-0.080-0.48l-2.56-2.4zM12 9.12h-8c-0.080 0-0.56 0-0.56 0.56 0 0.32 0.080 0.48 0.080 0.48l2.48 2.4c0.24 0.24 0.56 0.24 0.8 0s0.24-0.56 0-0.8l-1.52-1.52h6.72c0.32 0 0.56-0.24 0.56-0.56s-0.24-0.56-0.56-0.56zM8 0c-4.48 0-8 3.52-8 8s3.52 8 8 8 8-3.52 8-8-3.52-8-8-8zM8 14.88c-3.76 0-6.88-3.12-6.88-6.88s3.12-6.88 6.88-6.88 6.88 3.12 6.88 6.88-3.12 6.88-6.88 6.88z"></path>
</svg>
<svg id="icon-shoucang_wenjian" width="16" height="16" viewBox="0 0 16 16" x="96" y="224">
<path fill="#fff" d="M6.8 8h5.44c0.32 0 0.56-0.24 0.56-0.48s-0.24-0.48-0.56-0.48h-5.44c-0.32 0-0.56 0.24-0.56 0.48s0.24 0.48 0.56 0.48zM6.8 9.84h5.44c0.32 0 0.56-0.24 0.56-0.48s-0.24-0.48-0.56-0.48h-5.44c-0.32 0-0.56 0.24-0.56 0.48-0.080 0.32 0.24 0.48 0.56 0.48zM6.8 11.6h5.44c0.32 0 0.56-0.24 0.56-0.48s-0.24-0.48-0.56-0.48h-5.44c-0.32 0-0.56 0.24-0.56 0.48-0.080 0.24 0.24 0.48 0.56 0.48zM14.24 2.8l-2.080-2c-0.48-0.48-1.28-0.8-1.92-0.8h-5.12c-0.64 0-1.12 0.48-1.12 1.12v12.24c0 0.64 0.48 1.12 1.12 1.12h8.8c0.64 0 1.12-0.48 1.12-1.12v-8.56c0-0.64-0.4-1.52-0.8-2zM14.080 13.44c0 0.16-0.080 0.24-0.24 0.24h-8.8c-0.16 0-0.24-0.080-0.24-0.24v-12.32c0-0.16 0.080-0.24 0.24-0.24h5.36v3.6h3.6v8.96h0.080zM4.32 1.44h-2.24c-0.64 0-1.12 0.48-1.12 1.12v12.24c0 0.64 0.48 1.12 1.12 1.12h8.8c0.64 0 1.12-0.48 1.12-1.12 0 0 0.16-0.96-0.4-0.8-0.16 0-0.48-0.080-0.48 0.8 0 0.16-0.080 0.24-0.24 0.24h-8.8c-0.16 0-0.24-0.080-0.24-0.24v-12.24c0.080-0.080 0.16-0.16 0.24-0.16h2.16c0.8-0.48 0.080-0.96 0.080-0.96z"></path>
</svg>
<svg id="icon-qiehuan_qianhoutai" width="16" height="16" viewBox="0 0 16 16" x="128" y="224">
<path fill="#fff" d="M3.2 16v-1.6h11.2v-11.2h1.6v12.8h-12.8zM1.6 12h4.72v1.6h-6.32v-13.6h13.6v5.52h-1.6v-3.92h-10.4v10.4zM8.8 3.2l-0.080 1.84h-1.6l4.88 5.28v-2.32h1.6v4.8h-4.8v-1.6h1.68l-4.64-5.36v2.080h-1.84v-4.72h4.8z"></path>
</svg>
<svg id="icon-dengpao" width="16" height="16" viewBox="0 0 16 16" x="160" y="224">
<path fill="#fff" d="M2.8 6.32h-1.040c-0.16 0-0.24 0.080-0.24 0.16 0 0.16 0.080 0.24 0.24 0.24h1.040c0.16 0 0.24-0.080 0.24-0.24-0.080-0.080-0.16-0.16-0.24-0.16zM3.68 1.92c-0.080-0.080-0.24-0.080-0.32 0s-0.080 0.24 0 0.32l0.72 0.72c0.080 0.080 0.24 0.080 0.32 0s0.080-0.24 0-0.32l-0.72-0.72zM8 1.44c0.16 0 0.24-0.080 0.24-0.24v-0.96c-0.080-0.16-0.16-0.24-0.24-0.24-0.16 0-0.24 0.080-0.24 0.24v1.040c0 0.080 0.080 0.16 0.24 0.16zM12.24 1.84l-0.72 0.72c-0.080 0.080-0.080 0.24 0 0.32s0.24 0.080 0.32 0l0.72-0.72c0.080-0.080 0.080-0.24 0-0.32s-0.24-0.080-0.32 0zM14.24 6.24h-1.040c-0.16 0-0.24 0.080-0.24 0.24s0.080 0.24 0.24 0.24h1.040c0.16 0 0.24-0.080 0.24-0.24s-0.080-0.24-0.24-0.24zM6.64 15.36h2.88c0.16-0.24 0.24-0.48 0.24-0.88h-3.6c0 0.32 0.24 0.56 0.48 0.88zM6.64 15.6c0.080 0.080 0.96 0.4 1.44 0.4 0.64 0 1.28-0.32 1.44-0.4h-2.88zM8 3.28c-2.32 0-4.16 1.84-4.16 4.16 0 0.96 0.32 1.84 0.8 2.48 0.48 0.88 1.2 2.4 1.44 3.92v0.080h3.76v-0.080c0.32-1.6 1.040-3.2 1.52-4.080 0.48-0.64 0.72-1.52 0.72-2.4 0.080-2.24-1.76-4.080-4.080-4.080zM10.16 7.040c-0.16 0-0.32-0.16-0.32-0.32 0-0.48-0.16-0.8-0.48-1.12s-0.72-0.48-1.040-0.48c-0.16 0-0.32-0.16-0.32-0.32s0.16-0.32 0.32-0.32c0.56 0 1.040 0.16 1.52 0.56s0.64 0.96 0.64 1.6c0 0.24-0.080 0.4-0.32 0.4z"></path>
</svg>
<svg id="icon-banben" width="16" height="16" viewBox="0 0 16 16" x="192" y="224">
<path fill="#fff" d="M8 0c-4.4 0-8 3.6-8 8s3.6 8 8 8 8-3.6 8-8c0-1.040-0.24-2.16-0.64-3.12h-1.92c0.56 0.96 0.88 2 0.88 3.12 0 3.44-2.8 6.24-6.24 6.24s-6.24-2.8-6.24-6.24 2.8-6.24 6.16-6.24c0.48 0 0.88-0.4 0.88-0.88s-0.4-0.88-0.88-0.88zM9.84 4.88l-1.68 5.36c-0.080 0.24-0.16 0.48-0.16 0.8 0-0.24-0.080-0.48-0.16-0.72l-1.6-5.36h-1.76l2.56 7.6h1.84l2.64-7.6c0-0.080 0.16-0.8 0.8-0.88 0.64 0 1.040 0.88 1.040 0.88h2c-0.72-1.84-1.84-2.4-2.8-2.4-1.84 0-2.32 1.36-2.64 2.32-0.080-0.080-0.080 0-0.080 0z"></path>
</svg>
<svg id="icon-xiazai" width="16" height="16" viewBox="0 0 16 16" x="224" y="224">
<path fill="#fff" d="M13.6 5.6h-3.2v-4.88c0-0.32-0.24-0.64-0.48-0.72h-3.52c-0.4 0-0.64 0.16-0.8 0.48v5.040h-3.2c-0.4 0.080-0.72 0.4-0.72 0.8 0 0.16 0 0.24 0.080 0.4 0 0.080 0.080 0.080 0.080 0.16l5.2 6.32c0.16 0.16 0.4 0.24 0.64 0.24 0.24 0.080 0.56 0 0.72-0.16l5.68-6.32c0.080-0.080 0.16-0.16 0.16-0.24 0.080-0.080 0.080-0.24 0.080-0.32 0-0.56-0.32-0.8-0.72-0.8zM7.76 11.76l-3.84-4.72h2.48c0.32-0.080 0.64-0.32 0.64-0.72v-4.8h1.84v4.8c0 0.32 0.16 0.56 0.48 0.64 0.080 0.080 0.16 0.080 0.32 0.080h2.32l-4.24 4.72zM13.040 14.48h-10.080c-0.4 0-0.72 0.32-0.72 0.72s0.32 0.8 0.72 0.8h10.080c0.4 0 0.72-0.32 0.72-0.72s-0.32-0.8-0.72-0.8z"></path>
</svg>
<svg id="icon-book" width="16" height="16" viewBox="0 0 16 16" x="256" y="224">
<path fill="#fff" d="M14.367 3.067c-0.2-0.167-0.667-0.367-1.733-0.367-0.467 0-1 0.033-1.6 0.133-1.733 0.233-2.567 0.633-2.967 0.9-0.4-0.267-1.233-0.667-2.967-0.9-0.6-0.067-1.133-0.133-1.6-0.133-1.2 0-1.667 0.267-1.767 0.367-0.3 0.2-0.5 0.6-0.5 0.967v7.567c0 0.467 0.367 0.867 0.833 0.867 0.067 0 0.167 0 0.233-0.033 0 0 0.5-0.133 1.433-0.133 0.367 0 0.733 0.033 1.1 0.067 1.933 0.2 2.6 0.7 2.6 0.7 0.167 0.167 0.4 0.233 0.633 0.233 0.2 0 0.4-0.067 0.567-0.167 0 0 0.667-0.433 2.667-0.767 0.333-0.067 0.667-0.067 1-0.067 0.833 0 1.467 0.167 1.467 0.167 0.067 0.033 0.167 0.033 0.233 0.033 0.167 0 0.4-0.067 0.6-0.3 0.133-0.167 0.133-0.4 0.133-0.533v-7.633c0.033-0.133 0-0.667-0.367-0.967zM14.1 11.6c0 0.133 0 0.133-0.033 0.167-0.067 0.067-0.067 0.033-0.1 0.033 0 0-0.7-0.2-1.667-0.2-0.367 0-0.767 0.033-1.1 0.1-2.167 0.367-2.867 0.833-2.967 0.9s-0.233 0.067-0.367-0.033c-0.067-0.067-0.833-0.667-2.967-0.867-0.4-0.033-0.8-0.067-1.167-0.067-1.067 0-1.6 0.167-1.6 0.167h-0.067c-0.1 0-0.167-0.1-0.167-0.2v-7.567c0-0.167 0.1-0.367 0.2-0.433 0 0 0.333-0.233 1.367-0.233 0.433 0 0.967 0.033 1.533 0.133 1.667 0.233 2.367 0.6 2.667 0.8v5c0 0.2 0.133 0.333 0.333 0.333s0.333-0.133 0.333-0.333v-4.933c0.167-0.167 0.867-0.633 2.767-0.867 0.567-0.067 1.1-0.133 1.533-0.133 1.033 0 1.3 0.2 1.3 0.233 0.1 0.067 0.167 0.267 0.167 0.433v7.567zM7.5 10.667c0 0.276 0.224 0.5 0.5 0.5s0.5-0.224 0.5-0.5c0-0.276-0.224-0.5-0.5-0.5s-0.5 0.224-0.5 0.5z"></path>
</svg>
</svg>
