<?xml version="1.0" encoding="utf-8"?>
<!-- Generated by IcoMoon.io -->
<svg version="1.1" xmlns="http://www.w3.org/2000/svg" xmlns:xlink="http://www.w3.org/1999/xlink" width="560" height="272" viewBox="0 0 560 272">
<svg id="icon-star" width="20" height="20" viewBox="0 0 20 20" x="0" y="0">
<path fill="#808080" d="M16.739 8.539c-0.118-0.339-0.419-0.587-0.782-0.641l-3.533-0.525-1.536-3.188c-0.162-0.335-0.508-0.549-0.888-0.549s-0.726 0.214-0.888 0.549l-1.536 3.188-3.533 0.525c-0.363 0.054-0.665 0.302-0.782 0.641s-0.028 0.714 0.228 0.97l2.589 2.585-0.6 3.586c-0.061 0.361 0.095 0.723 0.402 0.935 0.168 0.116 0.367 0.175 0.565 0.175 0.163 0 0.326-0.040 0.474-0.119l3.080-1.658 3.081 1.658c0.148 0.079 0.311 0.119 0.474 0.119 0.198 0 0.396-0.059 0.565-0.175 0.307-0.211 0.463-0.574 0.402-0.935l-0.601-3.586 2.59-2.585c0.256-0.256 0.344-0.63 0.228-0.97zM13.22 11.427c-0.217 0.216-0.316 0.522-0.266 0.821l0.601 3.586-3.081-1.657c-0.148-0.080-0.311-0.119-0.474-0.119s-0.326 0.040-0.474 0.119l-3.081 1.657 0.601-3.586c0.050-0.299-0.048-0.604-0.266-0.821l-2.589-2.585 3.533-0.526c0.323-0.048 0.601-0.25 0.74-0.538l1.537-3.188 1.536 3.188c0.139 0.288 0.417 0.49 0.739 0.538l3.534 0.526-2.589 2.585z"></path>
</svg>
<svg id="icon-icon" width="20" height="20" viewBox="0 0 20 20" x="36" y="0">
<path fill="#808080" d="M2.492 9.112c-1.375 0-2.49 1.115-2.49 2.49s1.115 2.49 2.49 2.49 2.49-1.115 2.49-2.49-1.115-2.49-2.49-2.49zM2.492 13.262c-0.917 0-1.66-0.743-1.66-1.66s0.743-1.66 1.66-1.66c0.917 0 1.66 0.743 1.66 1.66s-0.743 1.66-1.66 1.66zM17.43 9.112c-1.375 0-2.49 1.115-2.49 2.49s1.115 2.49 2.49 2.49 2.49-1.115 2.49-2.49-1.115-2.49-2.49-2.49zM17.43 13.262c-0.917 0-1.66-0.743-1.66-1.66s0.743-1.66 1.66-1.66 1.66 0.743 1.66 1.66c0 0.917-0.743 1.66-1.66 1.66zM9.961 9.112c-1.375 0-2.49 1.115-2.49 2.49s1.115 2.49 2.49 2.49 2.49-1.115 2.49-2.49-1.115-2.49-2.49-2.49zM9.961 13.262c-0.917 0-1.66-0.743-1.66-1.66s0.743-1.66 1.66-1.66c0.917 0 1.66 0.743 1.66 1.66s-0.743 1.66-1.66 1.66z"></path>
</svg>
<svg id="icon-point" width="20" height="20" viewBox="0 0 20 20" x="72" y="0">
<path fill="#808080" d="M6.298 10c0 2.045 1.658 3.702 3.702 3.702s3.702-1.658 3.702-3.702c0-2.045-1.658-3.702-3.702-3.702s-3.702 1.658-3.702 3.702c0 0 0 0 0 0z"></path>
</svg>
<svg id="icon-radio_current" width="20" height="20" viewBox="0 0 20 20" x="108" y="0">
<path fill="#808080" d="M9.979 1.241c-4.826 0-8.738 3.911-8.738 8.74 0 4.824 3.912 8.735 8.738 8.735s8.738-3.911 8.738-8.735c0-4.829-3.912-8.74-8.738-8.74zM8.606 14.501l-4.12-4.121 1.373-1.371 2.747 2.744 5.493-5.491 1.373 1.372-6.866 6.867z"></path>
</svg>
<svg id="icon-right-arrow" width="20" height="20" viewBox="0 0 20 20" x="144" y="0">
<path fill="#808080" d="M11.423 10.84c0.467-0.479 0.467-1.255 0-1.734l-8.516-8.744c-0.467-0.479-1.225-0.479-1.693 0s-0.467 1.255 0 1.734l7.672 7.877-7.672 7.877c-0.467 0.479-0.467 1.255 0 1.734s1.225 0.479 1.693 0l8.516-8.744zM8.599 2.096l7.672 7.877-7.672 7.877c-0.467 0.479-0.467 1.255 0 1.734s1.225 0.479 1.693 0l8.516-8.744c0.467-0.479 0.467-1.255 0-1.734l-8.516-8.744c-0.467-0.479-1.225-0.479-1.693 0s-0.467 1.255 0 1.734z"></path>
</svg>
<svg id="icon-left-arrow" width="20" height="20" viewBox="0 0 20 20" x="180" y="0">
<path fill="#808080" d="M8.577 9.16c-0.467 0.479-0.467 1.255 0 1.734l8.516 8.744c0.467 0.479 1.225 0.479 1.693 0s0.467-1.255 0-1.734l-7.672-7.877 7.672-7.877c0.467-0.479 0.467-1.255 0-1.734s-1.225-0.479-1.693 0l-8.516 8.744zM11.401 17.904l-7.672-7.877 7.672-7.877c0.467-0.479 0.467-1.255 0-1.734s-1.225-0.479-1.693 0l-8.516 8.744c-0.467 0.479-0.467 1.255 0 1.734l8.516 8.744c0.467 0.479 1.225 0.479 1.693 0s0.467-1.255 0-1.734z"></path>
</svg>
<svg id="icon-box" width="20" height="20" viewBox="0 0 20 20" x="216" y="0">
<path fill="#808080" d="M17.257 4.228l-7.123-2.274c-0.233-0.074-0.483-0.073-0.715 0.003l-6.726 2.218c-0.188 0.065-0.196 0.327-0.012 0.403l6.607 2.624c0.626 0.248 1.323 0.243 1.945-0.014l6.044-2.502c0.211-0.087 0.198-0.389-0.019-0.459zM9.949 16.495l-0.462-7.355c-0.026-0.407-0.279-0.765-0.655-0.924l-6.364-2.69c-0.247-0.105-0.512 0.107-0.464 0.371l1.123 6.184c0.093 0.512 0.397 0.961 0.837 1.238l5.505 3.46c0.216 0.136 0.495-0.030 0.479-0.284zM16.986 5.729l-5.271 2.379c-0.623 0.298-1.019 0.926-1.019 1.615l-0.027 6.7c0 0.342 0.382 0.546 0.667 0.355l5.675-4.051c0.345-0.291 0.438-0.584 0.484-1.014l0.489-5.264c0.112-1.010-0.293-1.069-0.998-0.721z"></path>
</svg>
<svg id="icon-yuan-copy-copy-copy-copy" width="20" height="20" viewBox="0 0 20 20" x="252" y="0">
<path fill="#808080" d="M0.032 10.161c0 5.434 4.405 9.839 9.839 9.839s9.839-4.405 9.839-9.839c0-5.434-4.405-9.839-9.839-9.839s-9.839 4.405-9.839 9.839z"></path>
</svg>
<svg id="icon-radiooff" width="20" height="20" viewBox="0 0 20 20" x="288" y="0">
<path fill="#808080" d="M10 0.532c-5.226 0-9.468 4.242-9.468 9.468s4.242 9.468 9.468 9.468 9.468-4.242 9.468-9.468-4.242-9.468-9.468-9.468zM10 17.574c-4.185 0-7.574-3.389-7.574-7.574s3.389-7.574 7.574-7.574 7.574 3.389 7.574 7.574-3.389 7.574-7.574 7.574z"></path>
</svg>
<svg id="icon-message" width="20" height="20" viewBox="0 0 20 20" x="324" y="0">
<path fill="#808080" d="M17.558 2.468h-15.15c-0.659 0-1.194 0.534-1.194 1.194v10.683c0 0.659 0.534 1.194 1.194 1.194h3.125c0.079 0 0.141 0.069 0.133 0.148l0.161 2.242c-0.008 0.068 0.034 0.108 0.083 0.060l2.52-2.32c0.083-0.083 0.057-0.13 0.175-0.13h8.954c0.659 0 1.194-0.534 1.194-1.194v-10.683c0-0.659-0.534-1.194-1.194-1.194zM5.059 10.447c-0.876 0-1.586-0.71-1.586-1.586s0.71-1.586 1.586-1.586c0.876 0 1.586 0.71 1.586 1.586s-0.71 1.586-1.586 1.586zM10.136 10.447c-0.876 0-1.586-0.71-1.586-1.586s0.71-1.586 1.586-1.586c0.876 0 1.586 0.71 1.586 1.586s-0.71 1.586-1.586 1.586zM14.932 10.447c-0.876 0-1.586-0.71-1.586-1.586s0.71-1.586 1.586-1.586c0.876 0 1.586 0.71 1.586 1.586s-0.71 1.586-1.586 1.586z"></path>
</svg>
<svg id="icon-menu" width="20" height="20" viewBox="0 0 20 20" x="360" y="0">
<path fill="#808080" d="M17.823 4.469h-15.65c-0.878 0-1.589-0.712-1.589-1.589s0.712-1.589 1.589-1.589h15.65c0.878 0 1.589 0.712 1.589 1.589s-0.712 1.589-1.589 1.589zM19.412 9.971c0-0.878-0.712-1.589-1.589-1.589h-15.65c-0.878 0-1.589 0.712-1.589 1.589s0.712 1.589 1.589 1.589h15.65c0.878 0 1.589-0.712 1.589-1.589zM19.412 17.062c0-0.878-0.712-1.589-1.589-1.589h-15.65c-0.878 0-1.589 0.712-1.589 1.589s0.712 1.589 1.589 1.589h15.65c0.878 0 1.589-0.712 1.589-1.589z"></path>
</svg>
<svg id="icon-xiajiantou" width="20" height="20" viewBox="0 0 20 20" x="396" y="0">
<path fill="#808080" d="M19.746 1.708l-1.414-1.416-8.292 8.294-8.294-8.294-1.414 1.416 9.708 9.706zM10.040 16.586l-8.294-8.294-1.414 1.416 9.708 9.706 9.706-9.706-1.414-1.416z"></path>
</svg>
<svg id="icon-menu1" width="20" height="20" viewBox="0 0 20 20" x="432" y="0">
<path fill="#808080" d="M11.808 9.317c-0.723 0-1.31-0.587-1.31-1.31v-5.313c0-0.723 0.587-1.31 1.31-1.31h5.313c0.723 0 1.31 0.587 1.31 1.31v5.313c0 0.723-0.587 1.31-1.31 1.31h-5.313zM16.697 8.683c0.608 0 1.101-0.493 1.101-1.101v-4.465c0-0.608-0.493-1.101-1.101-1.101h-4.465c-0.608 0-1.101 0.493-1.101 1.101v4.465c0 0.608 0.493 1.101 1.101 1.101h4.465zM2.775 9.317c-0.723 0-1.31-0.587-1.31-1.31v-5.313c0-0.723 0.587-1.31 1.31-1.31h5.313c0.723 0 1.31 0.587 1.31 1.31v5.313c0 0.723-0.587 1.31-1.31 1.31h-5.313zM7.664 8.683c0.608 0 1.101-0.493 1.101-1.101v-4.465c0-0.608-0.493-1.101-1.101-1.101h-4.465c-0.608 0-1.101 0.493-1.101 1.101v4.465c0 0.608 0.493 1.101 1.101 1.101h4.465zM2.775 18.225c-0.723 0-1.31-0.587-1.31-1.31v-5.313c0-0.723 0.587-1.31 1.31-1.31h5.313c0.723 0 1.31 0.587 1.31 1.31v5.313c0 0.723-0.587 1.31-1.31 1.31h-5.313zM7.664 17.592c0.608 0 1.101-0.493 1.101-1.101v-4.465c0-0.608-0.493-1.101-1.101-1.101h-4.465c-0.608 0-1.101 0.493-1.101 1.101v4.465c0 0.608 0.493 1.101 1.101 1.101h4.465zM15.276 18.361c-0.448 0.448-1.175 0.448-1.623 0l-3.291-3.291c-0.448-0.448-0.448-1.175 0-1.623l3.291-3.291c0.448-0.448 1.175-0.448 1.623 0l3.291 3.291c0.448 0.448 0.448 1.175 0 1.623l-3.291 3.291zM17.912 14.94c0.377-0.377 0.377-0.987 0-1.364l-2.766-2.766c-0.377-0.377-0.987-0.377-1.364 0l-2.766 2.766c-0.377 0.377-0.377 0.987 0 1.364l2.766 2.766c0.377 0.377 0.987 0.377 1.364 0l2.766-2.766z"></path>
</svg>
<svg id="icon-view1" width="20" height="20" viewBox="0 0 20 20" x="468" y="0">
<path fill="#808080" d="M10 8.125c-1.036 0-1.875 0.839-1.875 1.875s0.839 1.875 1.875 1.875v0c1.036 0 1.875-0.839 1.875-1.875s-0.839-1.875-1.875-1.875v0zM19.999 10.118c-0-0.009-0.001-0.017-0.002-0.025-0-0.005-0.001-0.009-0.002-0.014l0 0.001c0-0.006-0.001-0.012-0.003-0.018-0.001-0.007-0.001-0.014-0.003-0.021-0.001-0.001-0.001-0.002-0.001-0.003-0.026-0.165-0.101-0.309-0.209-0.421l0 0c-0.638-0.774-1.397-1.463-2.169-2.091-1.662-1.355-3.563-2.489-5.661-2.945-1.213-0.264-2.433-0.275-3.652-0.052-1.109 0.203-2.178 0.625-3.178 1.148-1.566 0.819-2.996 1.947-4.242 3.213-0.231 0.234-0.46 0.473-0.67 0.727-0.279 0.338-0.279 0.74 0 1.078 0.638 0.774 1.397 1.462 2.169 2.091 1.663 1.355 3.563 2.488 5.662 2.945 1.213 0.264 2.434 0.275 3.652 0.052 1.109-0.203 2.178-0.625 3.178-1.148 1.566-0.819 2.996-1.947 4.242-3.212 0.23-0.234 0.46-0.473 0.67-0.728 0.112-0.115 0.185-0.262 0.209-0.421l0.001-0.003c0.001-0.006 0.002-0.013 0.002-0.020l0-0.001c0.001-0.006 0.002-0.012 0.003-0.018l0.002-0.013 0.002-0.025c0.001-0.013 0.001-0.025 0.001-0.038l-0.002-0.038zM10 13.75c-2.071 0-3.75-1.679-3.75-3.75s1.679-3.75 3.75-3.75 3.75 1.679 3.75 3.75c0 2.071-1.679 3.75-3.75 3.75z"></path>
</svg>
<svg id="icon-new" width="20" height="20" viewBox="0 0 20 20" x="504" y="0">
<path fill="#808080" d="M17.62 5.75h-13.87c-0.75 0-1.25 0.5-1.25 1.25v4.38l-1.25 2.88 2.62-0.5h13.75c0.75 0 1.25-0.5 1.25-1.25v-5.51c0.010-0.62-0.62-1.25-1.25-1.25zM8.38 11.58h-0.68l-1.57-2.2v2.2h-0.78v-3.66h0.68l1.57 2.2v-2.2h0.78v3.66zM11.88 11.58h-2.78v-3.66h2.65v0.78h-1.87v0.72h1.88v0.78h-1.88v0.65h2v0.73zM15.83 11.58h-0.68l-0.61-2.24-0.71 2.24h-0.67l-0.98-3.65h0.79l0.6 2.19 0.6-2.19h0.68l0.6 2.19 0.6-2.19h0.79l-1.010 3.65z"></path>
</svg>
<svg id="icon-tuding" width="20" height="20" viewBox="0 0 20 20" x="540" y="0">
<path fill="#808080" d="M6.513 0.408l-6.077 6.077c-0.207 0.207-0.335 0.493-0.335 0.808 0 0.001 0 0.002 0 0.004v-0c0 0.001 0 0.002 0 0.003 0 0.316 0.128 0.602 0.335 0.808l0.336 0.336c0.333 0.333 0.915 0.574 1.386 0.574h1.148c0.163 0 0.458 0.122 0.574 0.238l3.207 3.207c0.116 0.116 0.238 0.411 0.238 0.574v1.148c0 0.471 0.241 1.053 0.574 1.386l0.337 0.336c0.448 0.448 1.176 0.448 1.623 0l1.783-1.783 7.388 5.683c0.096 0.074 0.217 0.119 0.35 0.119 0.158 0 0.302-0.064 0.406-0.168l0-0c0.104-0.104 0.168-0.247 0.168-0.405 0-0.001 0-0.001 0-0.002v0c0-0.123-0.039-0.246-0.119-0.35l-5.683-7.388 1.783-1.783c0.207-0.207 0.335-0.493 0.335-0.808 0-0.001 0-0.002 0-0.003v0c0-0.307-0.119-0.596-0.335-0.812l-0.336-0.336c-0.333-0.333-0.915-0.574-1.386-0.574h-1.148c-0.163 0-0.458-0.122-0.574-0.238l-3.207-3.207c-0.116-0.116-0.238-0.411-0.238-0.574v-1.148c0-0.471-0.241-1.053-0.574-1.386l-0.337-0.336c-0.216-0.216-0.505-0.335-0.812-0.335s-0.596 0.119-0.812 0.335h0.002zM16.241 16.213l-3.781-2.908 0.873-0.873 2.908 3.781zM7.661 1.556c0.116 0.116 0.238 0.411 0.238 0.574v1.148c0 0.471 0.241 1.053 0.574 1.386l3.207 3.207c0.333 0.333 0.915 0.574 1.386 0.574h1.148c0.163 0 0.458 0.122 0.574 0.238l0.335 0.335v0.001h0.001l-6.077 6.077-0.336-0.337c-0.116-0.116-0.238-0.411-0.238-0.574v-1.148c0-0.471-0.241-1.053-0.574-1.386l-3.207-3.207c-0.333-0.333-0.915-0.574-1.386-0.574h-1.148c-0.163 0-0.458-0.122-0.574-0.238l-0.336-0.336 6.077-6.077 0.336 0.336z"></path>
</svg>
<svg id="icon-folder_add" width="20" height="20" viewBox="0 0 20 20" x="0" y="36">
<path fill="#808080" d="M18.75 15.313h-0.938v-0.938c0-0.518-0.42-0.938-0.938-0.938s-0.938 0.42-0.938 0.938v0 0.938h-0.938c-0.518 0-0.938 0.42-0.938 0.938s0.42 0.938 0.938 0.938v0h0.938v0.938c0 0.518 0.42 0.938 0.938 0.938s0.938-0.42 0.938-0.938v0-0.938h0.938c0.518 0 0.938-0.42 0.938-0.938s-0.42-0.938-0.938-0.938v0zM0 15.938c0 0.518 0.42 0.938 0.938 0.938v0h12.302c-0.070-0.186-0.112-0.4-0.115-0.624v-0.001c0-1.036 0.839-1.875 1.875-1.875v0c0-1.036 0.839-1.875 1.875-1.875s1.875 0.839 1.875 1.875v0c0.482 0 0.918 0.188 1.25 0.487v-8.924h-20v10zM19.063 3.125h-11.568l-1.869-1.875h-4.688c-0.518 0-0.938 0.42-0.938 0.938v0 2.813h20v-0.938c0-0.518-0.42-0.938-0.938-0.938v0z"></path>
</svg>
<svg id="icon-view" width="20" height="20" viewBox="0 0 20 20" x="36" y="36">
<path fill="#808080" d="M12.582 6.265h-6.976c-0.165 0-0.275-0.11-0.275-0.275s0.11-0.275 0.275-0.275h6.976c0.165 0 0.275 0.11 0.275 0.275s-0.165 0.275-0.275 0.275zM9.176 8.737h-3.571c-0.165 0-0.275-0.11-0.275-0.275s0.11-0.275 0.275-0.275h3.625c0.165 0 0.275 0.11 0.275 0.275s-0.165 0.275-0.33 0.275zM14.175 16.921h-9.613c-0.769 0-1.428-0.659-1.428-1.428v-10.876c0-0.769 0.659-1.428 1.428-1.428h9.613c0.769 0 1.428 0.659 1.428 1.428v1.648c0 0.165-0.11 0.275-0.275 0.275s-0.275-0.11-0.275-0.275v-1.648c0-0.494-0.385-0.879-0.879-0.879h-9.613c-0.494 0-0.879 0.385-0.879 0.879v10.876c0 0.494 0.385 0.879 0.879 0.879h9.613c0.494 0 0.879-0.385 0.879-0.879 0-0.165 0.11-0.275 0.275-0.275s0.275 0.11 0.275 0.275c0 0.824-0.659 1.428-1.428 1.428zM13.571 13.351c-1.538 0-2.747-1.263-2.747-2.747s1.263-2.747 2.747-2.747 2.747 1.263 2.747 2.747-1.208 2.747-2.747 2.747zM13.571 8.352c-1.208 0-2.197 0.989-2.197 2.197s0.989 2.197 2.197 2.197 2.197-0.989 2.197-2.197-0.989-2.197-2.197-2.197zM17.965 14.834c-0.055 0-0.165 0-0.22-0.055l-2.417-2.417c-0.11-0.11-0.11-0.275 0-0.385s0.275-0.11 0.385 0l2.417 2.417c0.11 0.11 0.11 0.275 0 0.385 0 0-0.11 0.055-0.165 0.055z"></path>
</svg>
<svg id="icon-delete" width="20" height="20" viewBox="0 0 20 20" x="72" y="36">
<path fill="#808080" d="M1 2h18v2h-18zM7 0h6v2h-6zM3 6h2v13h-2zM6 8.6h2v8.7h-2zM9 8.6h2v8.7h-2zM12 8.6h2v8.7h-2zM15.2 6h2v13h-2zM3 5h14.2v2h-14.2zM3 18h14.2v2h-14.2z"></path>
</svg>
<svg id="icon-edit" width="20" height="20" viewBox="0 0 20 20" x="108" y="36">
<path fill="#808080" d="M1 7h6v-6zM16.3 5.7l-8.1 7.4-0.7 3.1 3.4-0.4 8.1-7.3-2.7-2.8zM8.3 15.5l0.4-1.4 1.1 1.1-1.5 0.3zM3 18h11v2h-11zM1 20v-13h2v13zM14 20v-4h2v4zM14 10v-9h2v9zM7 1h7v2h-7z"></path>
</svg>
<svg id="icon-add" width="20" height="20" viewBox="0 0 20 20" x="144" y="36">
<path fill="#808080" d="M2 8.8h16.5v3h-16.5zM8.8 2h3v16.5h-3z"></path>
</svg>
<svg id="icon-check" width="20" height="20" viewBox="0 0 20 20" x="180" y="36">
<path fill="#808080" d="M10 1c-5 0-9 4-9 9s4 9 9 9 9-4 9-9-4-9-9-9zM10.9 14.8h-1.6v-1.8h1.6v1.8zM11.4 7l-0.6 5.2h-1.5l-0.6-5.2v-2.1h2.8v2.1z"></path>
</svg>
<svg id="icon-clock" width="20" height="20" viewBox="0 0 20 20" x="216" y="36">
<path fill="#808080" d="M10 1c-5 0-9 4-9 9s4 9 9 9 9-4 9-9-4-9-9-9zM10 17.1c-3.9 0-7.1-3.2-7.1-7.1s3.2-7.1 7.1-7.1 7.1 3.2 7.1 7.1c0 3.9-3.2 7.1-7.1 7.1zM9.6 11.6c-0.5 0-1-0.4-1-1v-5.1c0-0.5 0.4-1 1-1 0.5 0 1 0.4 1 1v5.1c0 0.5-0.5 1-1 1zM15.2 12.5c-0.1 0.4-0.5 0.6-0.8 0.5l-5.2-1.5c-0.4-0.1-0.6-0.5-0.5-0.8 0.1-0.4 0.5-0.6 0.8-0.5l5.2 1.5c0.4 0.1 0.6 0.5 0.5 0.8z"></path>
</svg>
<svg id="icon-close" width="20" height="20" viewBox="0 0 20 20" x="252" y="36">
<path fill="#808080" d="M3.391 15.058l11.667-11.667 2.121 2.121-11.667 11.668zM3.391 5.442l2.121-2.122 11.668 11.668-2.12 2.12z"></path>
</svg>
<svg id="icon-calendar" width="20" height="20" viewBox="0 0 20 20" x="288" y="36">
<path fill="#808080" d="M4.2 9h2v2h-2zM7.4 9h2v2h-2zM10.6 9h2v2h-2zM13.9 9h2v2h-2zM4.2 12.3h2v2h-2zM7.4 12.3h2v2h-2zM10.6 12.3h2v2h-2zM13.9 12.3h2v2h-2zM4.2 15.5h2v2h-2zM7.4 15.5h2v2h-2zM10.6 15.5h2v2h-2zM13.9 15.5h2v2h-2zM17.5 2.4h-1.7v1c0 1-0.8 1.8-1.8 1.8s-1.8-0.8-1.8-1.8v-1h-3.4v1c0 1-0.8 1.8-1.8 1.8s-1.8-0.8-1.8-1.8v-1h-2.3c-0.9 0-1.5 0.7-1.5 1.5v14.5c0 0.9 0.7 1.5 1.5 1.5h14.5c0.9 0 1.5-0.7 1.5-1.5v-14.5c0.1-0.8-0.6-1.5-1.4-1.5zM17.5 18.5h-14.6v-11h14.5v11zM7 4.7c-0.6 0-1.2-0.5-1.2-1.2v-1.8c0.1-0.7 0.6-1.2 1.2-1.2s1.2 0.5 1.2 1.2v1.9c0 0.6-0.5 1.1-1.2 1.1zM14 4.5c-0.6 0-1.2-0.5-1.2-1.2v-1.8c0-0.6 0.5-1.2 1.2-1.2 0.6 0 1.2 0.5 1.2 1.2v1.9c-0.1 0.6-0.6 1.1-1.2 1.1z"></path>
</svg>
<svg id="icon-download" width="20" height="20" viewBox="0 0 20 20" x="324" y="36">
<path fill="#808080" d="M9.1 0h2.8v12.8h-2.8zM4.5 10.721l1.98-1.98 6.010 6.010-1.98 1.98zM14.52 8.741l1.98 1.98-6.010 6.010-1.98-1.98zM2 17h17v2.8h-17z"></path>
</svg>
<svg id="icon-first" width="20" height="20" viewBox="0 0 20 20" x="360" y="36">
<path fill="#808080" d="M14 3.4v14.6l-8-7.3 8-7.3zM7 18h-2v-15h2z"></path>
</svg>
<svg id="icon-Eye" width="20" height="20" viewBox="0 0 20 20" x="396" y="36">
<path fill="#808080" d="M10.1 15c-6.4 0-9.1-5-9.2-5.2l-0.2-0.2 0.1-0.2c0.2-0.3 3.3-5.2 9.1-5.2s9.3 4.9 9.5 5.1l0.2 0.2-0.1 0.3c-0.1 0.2-2.7 5.2-9.4 5.2zM1.9 9.6c0.6 1 3.1 4.4 8.2 4.4 5.3 0 7.7-3.4 8.3-4.4-0.8-1-4-4.5-8.5-4.5-4.6 0.1-7.4 3.6-8 4.5zM10 13c-2.1 0-3.7-1.5-3.7-3.4s1.7-3.4 3.7-3.4c2.1 0 3.7 1.5 3.7 3.4s-1.7 3.4-3.7 3.4zM10 7.2c-1.5 0-2.7 1.1-2.7 2.4s1.2 2.4 2.7 2.4 2.7-1.1 2.7-2.4c0-1.3-1.2-2.4-2.7-2.4zM9.5 9.5c0 0.552 0.448 1 1 1s1-0.448 1-1v0c0-0.552-0.448-1-1-1s-1 0.448-1 1v0z"></path>
</svg>
<svg id="icon-Last" width="20" height="20" viewBox="0 0 20 20" x="432" y="36">
<path fill="#808080" d="M5 17.6v-14.6l8 7.3-8 7.3zM12 3h2v15h-2z"></path>
</svg>
<svg id="icon-Maximization" width="20" height="20" viewBox="0 0 20 20" x="468" y="36">
<path fill="#808080" d="M19.901 7.861c0-0.398-0.299-0.697-0.697-0.697s-0.697 0.299-0.697 0.697v8.756c0 0.498-0.199 0.995-0.597 1.393s-0.896 0.597-1.393 0.597h-13.234c-0.498 0-0.995-0.199-1.393-0.597s-0.597-0.896-0.597-1.393v-13.234c0-1.095 0.896-1.891 1.891-1.891h8.756c0.398 0 0.697-0.299 0.697-0.697s-0.299-0.697-0.697-0.697l-8.657-0.1c-1.791 0-3.284 1.493-3.284 3.383v13.234c0 0.896 0.398 1.692 0.995 2.388 0.597 0.597 1.493 0.995 2.388 0.995h13.234c0.896 0 1.692-0.398 2.388-0.995 0.597-0.597 0.995-1.493 0.995-2.388v-8.756h-0.1zM14.926 1.393h2.587l-9.751 9.751c-0.299 0.299-0.299 0.697 0 0.995s0.697 0.299 0.995 0l9.751-9.751v2.587c0 0.199 0.1 0.398 0.199 0.498s0.299 0.199 0.498 0.199 0.398-0.1 0.498-0.199c0.1-0.1 0.199-0.299 0.199-0.498v-4.279c0-0.398-0.398-0.697-0.796-0.697h-4.279c-0.398 0-0.697 0.299-0.697 0.697 0.1 0.398 0.398 0.697 0.796 0.697z"></path>
</svg>
<svg id="icon-minimize" width="20" height="20" viewBox="0 0 20 20" x="504" y="36">
<path fill="#808080" d="M18 9v2h-15v-2z"></path>
</svg>
<svg id="icon-Previouspage" width="20" height="20" viewBox="0 0 20 20" x="540" y="36">
<path fill="#808080" d="M10 3v14.6l-9.7-7.3 9.7-7.3zM19 3v14.6l-9.7-7.3 9.7-7.3z"></path>
</svg>
<svg id="icon-nextpage" width="20" height="20" viewBox="0 0 20 20" x="0" y="72">
<path fill="#808080" d="M9.3 17.6v-14.6l9.7 7.3-9.7 7.3zM0.3 17.6v-14.6l9.7 7.3-9.7 7.3z"></path>
</svg>
<svg id="icon-link" width="20" height="20" viewBox="0 0 20 20" x="36" y="72">
<path fill="#808080" d="M6.4 16.5c-0.5 0.5-1.3 0.5-1.8 0l-1.8-1.8c-0.5-0.5-0.5-1.3 0-1.8l4.5-4.5c-1-0.6-2.3-0.5-3.1 0.3l-3.2 3.2c-1 1-1 2.6 0 3.6l2.7 2.7c1 1 2.6 1 3.6 0l3.2-3.2c0.8-0.8 1-2.1 0.4-3.1l-4.5 4.6zM18.2 3.7l-2.7-2.7c-1-1-2.6-1-3.6 0l-3.2 3.2c-0.8 0.8-1 2.1-0.4 3.1l4.5-4.5c0.5-0.5 1.3-0.5 1.8 0l1.8 1.8c0.5 0.5 0.5 1.3 0 1.8l-4.5 4.5c1 0.6 2.3 0.5 3.1-0.4l3.2-3.2c1-1 1-2.6 0-3.6zM5.5 12.9c0 0.5 0.4 1 1 1 0.3 0 0.5-0.1 0.7-0.3l6.3-6.3c0.2-0.2 0.3-0.4 0.3-0.7 0-0.5-0.4-1-1-1-0.3 0-0.5 0.1-0.7 0.3l-6.3 6.3c-0.2 0.1-0.3 0.4-0.3 0.7zM5.5 12.9"></path>
</svg>
<svg id="icon-search2" width="20" height="20" viewBox="0 0 20 20" x="72" y="72">
<path fill="#808080" d="M7.805 0.499c-3.99 0-7.282 3.292-7.282 7.282s3.292 7.282 7.282 7.282 7.282-3.292 7.282-7.282-3.192-7.282-7.282-7.282zM7.805 13.067c-2.893 0-5.287-2.394-5.287-5.287s2.394-5.287 5.287-5.287 5.287 2.394 5.287 5.287c0 2.993-2.294 5.287-5.287 5.287zM16.683 19.551l-5.287-5.287c-0.499-0.499-0.499-1.397 0-1.895l0.1-0.1c0.499-0.499 1.397-0.499 1.895 0l5.287 5.287c0.499 0.499 0.499 1.397 0 1.895l-0.1 0.1c-0.499 0.598-1.397 0.598-1.895 0z"></path>
</svg>
<svg id="icon-storage" width="20" height="20" viewBox="0 0 20 20" x="108" y="72">
<path fill="#808080" d="M16 7.9c-0.2-3.1-2.8-5.5-5.9-5.5s-5.6 2.4-5.9 5.5c-2.3 0.2-4.2 2.2-4.2 4.6s1.8 4.4 4.1 4.6h1.5c0.3 0 0.5-0.2 0.5-0.5s-0.2-0.5-0.5-0.5h-1.3c-1.8-0.2-3.1-1.7-3.1-3.5 0-2 1.6-3.6 3.6-3.6 0.3 0 0.5-0.2 0.5-0.5 0-2.7 2.2-4.9 4.9-4.9s4.9 2.2 4.9 4.9c0 0.3 0.2 0.5 0.5 0.5 1.9 0 3.4 1.6 3.4 3.6 0 1.9-1.8 3.4-3.4 3.5h-1.6c-0.3 0-0.5 0.2-0.5 0.5s0.2 0.5 0.5 0.5h1.5c2.1-0.2 4.4-2.1 4.4-4.6 0.1-2.5-1.6-4.4-3.9-4.6zM10 13.3l-1.6 1.7v-7.2c0-0.3-0.2-0.5-0.5-0.5s-0.5 0.2-0.5 0.5v7l-1.5-1.5c-0.2-0.2-0.5-0.2-0.7 0s-0.2 0.5 0 0.7l2.5 2.5c0.1 0.1 0.2 0.1 0.4 0.1 0.1 0 0.3 0 0.4-0.1l2.5-2.5c0.2-0.2 0.2-0.5 0-0.7-0.4-0.2-0.8-0.2-1 0zM14.6 10.9c0.2 0.2 0.5 0.2 0.7 0s0.2-0.5 0-0.7l-2.5-2.5c-0.2-0.2-0.5-0.2-0.7 0l-0.1 0.2-2.3 2.3c-0.2 0.2-0.2 0.5 0 0.7 0.1 0.1 0.2 0.1 0.4 0.1 0.1 0 0.3 0 0.4-0.1l1.5-1.5 0.1 6.5c0 0.3 0.2 0.5 0.5 0.5s0.5-0.2 0.5-0.5l-0.1-6.8 1.6 1.8zM14.6 10.9"></path>
</svg>
<svg id="icon-search" width="20" height="20" viewBox="0 0 20 20" x="144" y="72">
<path fill="#808080" d="M7.805 0.499c-3.99 0-7.282 3.292-7.282 7.282s3.292 7.282 7.282 7.282 7.282-3.292 7.282-7.282-3.192-7.282-7.282-7.282zM7.805 13.067c-2.893 0-5.287-2.394-5.287-5.287s2.394-5.287 5.287-5.287 5.287 2.394 5.287 5.287c0 2.992-2.294 5.287-5.287 5.287zM16.683 19.551l-5.287-5.287c-0.499-0.499-0.499-1.396 0-1.895l0.1-0.1c0.499-0.499 1.397-0.499 1.895 0l5.287 5.287c0.499 0.499 0.499 1.396 0 1.895l-0.1 0.1c-0.499 0.599-1.396 0.599-1.895 0z"></path>
</svg>
<svg id="icon-jiaosemoxing" width="20" height="20" viewBox="0 0 20 20" x="180" y="72">
<path fill="#808080" d="M10.6 10.4c-0.9 0.6-1.9 0.9-3 0.9s-2.1-0.3-3-0.9c-2.3 1.1-4 3.6-4 6.4 0 2.9 13.9 3 13.9 0 0.1-2.8-1.5-5.3-3.9-6.4zM7.6 10.5c2.6 0 4.7-2.1 4.7-4.7s-2.1-4.7-4.7-4.7c-2.5-0.1-4.6 2.1-4.6 4.7s2.1 4.7 4.6 4.7zM15.9 10.1c-0.7 0.5-1.5 0.8-2.4 0.8 1.7 1.4 2.8 3.6 2.8 6.1v0.3c1.8-0.3 3.1-0.8 3.1-1.7-0.1-2.4-1.5-4.5-3.5-5.5zM12 10.1c0.4 0.2 0.9 0.3 1.4 0.3 2.1 0 3.8-1.7 3.8-3.9s-1.7-3.9-3.8-3.9h-0.3c0.6 0.9 1 2 1 3.2-0.1 1.7-0.9 3.3-2.1 4.3z"></path>
</svg>
<svg id="icon-gangweimoxing" width="20" height="20" viewBox="0 0 20 20" x="216" y="72">
<path fill="#808080" d="M10 10.5c-2.8 0-5-2.2-5-5 0-2.7 2.2-5 5-5 2.7 0 5 2.2 5 5s-2.2 5-5 5zM1 16c0 1.933 1.567 3.5 3.5 3.5s3.5-1.567 3.5-3.5v0c0-1.933-1.567-3.5-3.5-3.5s-3.5 1.567-3.5 3.5v0zM12 16c0 1.933 1.567 3.5 3.5 3.5s3.5-1.567 3.5-3.5v0c0-1.933-1.567-3.5-3.5-3.5s-3.5 1.567-3.5 3.5v0zM14.8 13.6c-0.5 0.3-1.1 0.1-1.4-0.4l-1.8-3.1c-0.2-0.4-0.1-1.1 0.4-1.3 0.5-0.3 1.1-0.1 1.4 0.4l1.8 3.1c0.2 0.4 0.1 1-0.4 1.3zM5 13.6c0.5 0.3 1.1 0.1 1.4-0.4l1.8-3.1c0.2-0.4 0.1-1.1-0.4-1.3-0.5-0.3-1.1-0.1-1.4 0.3l-1.8 3.1c-0.2 0.5-0.1 1.1 0.4 1.4zM13.4 16.2c0-0.6-0.5-1-1.2-1h-4.4c-0.6 0-1.2 0.4-1.2 1 0 0.5 0.5 1 1.2 1h4.4c0.6 0 1.2-0.5 1.2-1z"></path>
</svg>
<svg id="icon-denglu" width="20" height="20" viewBox="0 0 20 20" x="252" y="72">
<path fill="#808080" d="M13.6 12c0.6 0 1.1 0.1 1.6 0.3s0.9 0.5 1.3 0.8c0.4 0.3 0.7 0.8 0.9 1.2 0.2 0.5 0.3 1 0.3 1.5v3c0 0.2-0.1 0.4-0.2 0.5s-0.3 0.2-0.5 0.2h-14c-0.2 0-0.4-0.1-0.5-0.2s-0.2-0.3-0.2-0.5v-3.1c0-0.5 0.1-1 0.3-1.5s0.5-0.9 0.9-1.2c0.4-0.3 0.8-0.6 1.3-0.8s1-0.3 1.6-0.3h7.2v0.1zM10 10.6c-0.7 0-1.4-0.1-2-0.4s-1.2-0.6-1.7-1.1c-0.5-0.5-0.8-1-1.1-1.6-0.2-0.6-0.4-1.3-0.4-2s0.1-1.4 0.4-2c0.3-0.6 0.6-1.2 1.1-1.6 0.5-0.5 1.1-0.9 1.7-1.2s1.3-0.4 2-0.4 1.4 0.1 2 0.4c0.6 0.3 1.2 0.6 1.6 1.1s0.8 1 1.1 1.6c0.3 0.6 0.4 1.3 0.4 2s-0.1 1.4-0.4 2c-0.3 0.6-0.6 1.2-1.1 1.6-0.5 0.5-1 0.8-1.6 1.1-0.6 0.4-1.3 0.5-2 0.5z"></path>
</svg>
<svg id="icon-tuichu" width="20" height="20" viewBox="0 0 20 20" x="288" y="72">
<path fill="#808080" d="M10 19.7c-4.7 0-8.5-3.8-8.5-8.5 0-3.4 2-6.3 4.9-7.6v2.8c-1.5 1.1-2.4 2.9-2.4 4.8 0 3.4 2.7 6.1 6.1 6.1s6.1-2.7 6.1-6.1c0-2-1-3.7-2.4-4.8v-2.8c2.9 1.4 4.9 4.2 4.9 7.6-0.2 4.7-4 8.5-8.7 8.5zM11.2 8.8c0 0.7-0.5 1.2-1.2 1.2s-1.2-0.5-1.2-1.2v-7.3c0-0.7 0.5-1.2 1.2-1.2s1.2 0.5 1.2 1.2v7.3z"></path>
</svg>
<svg id="icon-shezhi" width="20" height="20" viewBox="0 0 20 20" x="324" y="72">
<path fill="#808080" d="M18.5 11.9l-0.4-0.2c-0.6-0.3-1-1-1-1.7s0.4-1.4 1-1.7l0.4-0.2c0.3-0.2 0.6-0.6 0.5-1.1-0.1-0.2-0.2-0.4-0.2-0.7l-0.3-0.6c-0.2-0.3-0.7-0.5-1.1-0.4l-0.4 0.1c-0.7 0.2-1.4 0-1.9-0.5s-0.7-1.2-0.5-1.9l0.1-0.4c0.1-0.4 0-0.9-0.4-1.1l-0.6-0.3c-0.3 0-0.5-0.1-0.7-0.2-0.4-0.1-0.9 0.1-1.1 0.5l-0.2 0.4c-0.3 0.6-1 1-1.7 1s-1.4-0.4-1.7-1l-0.2-0.4c-0.2-0.3-0.6-0.6-1.1-0.5l-0.6 0.3c-0.2 0-0.5 0.1-0.7 0.2-0.3 0.3-0.5 0.8-0.3 1.2l0.1 0.4c0.2 0.6 0 1.4-0.5 1.9s-1.3 0.7-1.9 0.5l-0.4-0.1c-0.4-0.1-0.9 0-1.1 0.4-0.2 0.1-0.3 0.4-0.3 0.6l-0.3 0.6c-0.1 0.5 0.2 0.9 0.5 1.1l0.4 0.2c0.6 0.3 1 1 1 1.7s-0.4 1.4-1 1.7l-0.4 0.2c-0.3 0.2-0.6 0.6-0.5 1.1 0.1 0.2 0.2 0.4 0.2 0.7l0.3 0.6c0.2 0.3 0.7 0.5 1.1 0.4l0.4-0.1c0.7-0.2 1.4 0 1.9 0.5s0.7 1.2 0.5 1.9l-0.1 0.4c-0.1 0.4 0 0.9 0.4 1.1l0.6 0.3c0.3 0 0.5 0.1 0.7 0.2 0.4 0.1 0.9-0.1 1.1-0.5l0.2-0.4c0.3-0.6 1-1 1.7-1s1.4 0.4 1.7 1l0.2 0.4c0.2 0.4 0.7 0.6 1.1 0.5 0.2-0.1 0.4-0.2 0.7-0.2l0.6-0.3c0.3-0.2 0.5-0.7 0.4-1.1l-0.1-0.4c-0.2-0.7 0-1.4 0.5-1.9s1.2-0.7 1.9-0.5l0.4 0.1c0.4 0.1 0.9 0 1.1-0.4l0.3-0.6c0.1-0.2 0.2-0.4 0.2-0.7 0.1-0.5-0.2-0.9-0.5-1.1M10 14.8c-2.6 0-4.8-2.1-4.8-4.8 0-2.6 2.1-4.8 4.8-4.8 2.6 0 4.8 2.1 4.8 4.8 0 2.6-2.2 4.8-4.8 4.8M10 7c-1.7 0-3 1.3-3 3s1.3 3 3 3 3-1.3 3-3-1.3-3-3-3zM10 11.2c-0.7 0-1.2-0.5-1.2-1.2s0.5-1.2 1.2-1.2 1.2 0.5 1.2 1.2-0.5 1.2-1.2 1.2z"></path>
</svg>
<svg id="icon-qunzumoxing" width="20" height="20" viewBox="0 0 20 20" x="360" y="72">
<path fill="#808080" d="M13.5 11c0.1 0.2 0.3 0.4 0.4 0.6v0.9c1.2 0.7 2.2 1.6 3.2 2.3v1.4h2.7v-1c-0.9-0.7-1.6-1.6-2.9-2.1v-1.4c0.7-0.9 1.1-2.2 1.1-3.2 0-1.6-1.2-2.9-2.6-2.9-0.4 0-0.8 0.1-1.1 0.3 0.1 0.3 0.1 0.7 0.1 1.1-0.1 1.2-0.4 2.7-0.9 4zM0.2 15.2v1h2.7v-1.4c1-0.8 1.9-1.7 3.2-2.4v-0.6c0.2-0.2 0.3-0.4 0.4-0.7-0.6-1.3-0.9-2.8-0.9-4.1 0-0.4 0-0.8 0.1-1.2-0.3-0.1-0.7-0.2-1.1-0.2-1.4 0-2.6 1.3-2.6 3 0 1 0.5 2.4 1.2 3.2v1.3c-1.4 0.5-2.1 1.4-3 2.1zM13.5 7.1c0-2.4-1.3-4.3-3.5-4.3s-3.6 2-3.6 4.3c0 1.7 0.7 4 1.9 5.1-2.1 0.8-3.3 2-4.5 2.9v2h12.5v-2c-1.3-0.9-2.5-2.1-4.6-2.7v-0.1c1.2-1.2 1.8-3.5 1.8-5.2z"></path>
</svg>
<svg id="icon-zuzhimoxing" width="20" height="20" viewBox="0 0 20 20" x="396" y="72">
<path fill="#808080" d="M3.1 9.6h6.5v3.9c0 0.2 0.2 0.4 0.4 0.4s0.4-0.2 0.4-0.4v-3.9h6.5v4.3c0 0.2 0.2 0.4 0.4 0.4s0.4-0.2 0.4-0.4v-4.4c0-0.4-0.3-0.7-0.7-0.7h-6.6v-1.8c0-0.2-0.2-0.4-0.4-0.4s-0.4 0.2-0.4 0.4v1.8h-6.6c-0.4 0-0.7 0.3-0.7 0.7v4.5c0 0.2 0.2 0.4 0.4 0.4s0.4-0.2 0.4-0.4v-4.4zM4.7 15h-4c-0.2 0-0.4 0.2-0.4 0.4v3.9c0 0.2 0.2 0.4 0.4 0.4h4.1c0.2 0 0.4-0.2 0.4-0.4v-3.9c-0.1-0.2-0.2-0.4-0.5-0.4zM12 15h-4c-0.2 0-0.4 0.2-0.4 0.4v3.9c0 0.2 0.2 0.4 0.4 0.4h4c0.2 0 0.4-0.2 0.4-0.4v-3.9c0-0.2-0.1-0.4-0.4-0.4zM19.3 15h-4.1c-0.2 0-0.4 0.2-0.4 0.4v3.9c0 0.2 0.2 0.4 0.4 0.4h4.1c0.2 0 0.4-0.2 0.4-0.4v-3.9c0-0.2-0.1-0.4-0.4-0.4zM6.8 5.9h6.5c0.2 0 0.4-0.2 0.4-0.4v-4.8c0-0.2-0.2-0.4-0.4-0.4h-6.5c-0.2 0-0.4 0.2-0.4 0.4v4.9c-0.1 0.2 0.1 0.3 0.4 0.3z"></path>
</svg>
<svg id="icon-guanximoxing" width="20" height="20" viewBox="0 0 20 20" x="432" y="72">
<path fill="#808080" d="M19.4 14.4c0 0.9-0.3 1.7-1 2.3l-1.7 1.7c-0.6 0.6-1.4 1-2.3 1s-1.7-0.3-2.4-1l-2.3-2.4c-0.6-0.6-1-1.4-1-2.3s0.3-1.8 1-2.4l-1-1c-0.7 0.7-1.5 1-2.4 1s-1.7-0.3-2.4-1l-2.3-2.4c-0.6-0.6-1-1.4-1-2.4 0-0.9 0.3-1.7 1-2.3l1.7-1.7c0.6-0.6 1.4-1 2.3-1s1.7 0.3 2.4 1l2.3 2.5c0.6 0.6 1 1.4 1 2.3s-0.3 1.8-1 2.4l1 1c0.7-0.7 1.5-1 2.4-1s1.7 0.3 2.4 1l2.4 2.4c0.6 0.6 0.9 1.4 0.9 2.3zM9.1 6.3c0-0.3-0.1-0.6-0.3-0.8l-2.4-2.4c-0.2-0.2-0.5-0.3-0.8-0.3s-0.6 0.1-0.8 0.3l-1.7 1.7c-0.2 0.2-0.3 0.5-0.3 0.8s0.1 0.6 0.3 0.8l2.4 2.4c0.2 0.2 0.5 0.3 0.8 0.3s0.6-0.1 0.8-0.4l-0.2-0.2c-0.1-0.1-0.2-0.2-0.2-0.3l-0.2-0.2c-0.1-0.1-0.1-0.2-0.2-0.3v-0.3c0-0.3 0.1-0.6 0.3-0.8s0.5-0.3 0.8-0.3h0.3c0.1 0 0.2 0.1 0.3 0.1 0.1 0.1 0.2 0.1 0.2 0.2l0.5 0.5c0.3-0.2 0.4-0.5 0.4-0.8zM17.2 14.4c0-0.3-0.1-0.6-0.3-0.8l-2.4-2.4c-0.2-0.2-0.5-0.3-0.8-0.3s-0.6 0.1-0.8 0.4l0.6 0.6c0.1 0.1 0.1 0.2 0.2 0.3v0.3c0 0.3-0.1 0.6-0.3 0.8s-0.5 0.3-0.8 0.3h-0.3c-0.1 0-0.2-0.1-0.3-0.1-0.1-0.1-0.2-0.1-0.2-0.2l-0.4-0.4c-0.3 0.2-0.4 0.5-0.4 0.8s0.1 0.6 0.3 0.8l2.4 2.4c0.2 0.2 0.5 0.3 0.8 0.3s0.6-0.1 0.8-0.3l1.7-1.7c0.1-0.2 0.2-0.5 0.2-0.8z"></path>
</svg>
<svg id="icon-gerengongzuo" width="20" height="20" viewBox="0 0 20 20" x="468" y="72">
<path fill="#808080" d="M8.143 19c-0.088-0.176-0.176-0.439-0.176-0.615h-4.395v-4.219c0-1.23 0.879-2.197 2.109-2.461 0.791 0.703 1.846 0.879 2.988 0.879s2.109-0.176 2.988-0.879c0.527 0.088 0.967 0.352 1.318 0.615 0.352-0.264 0.615-0.615 0.967-0.879-0.352-0.352-0.791-0.615-1.23-0.791 0.703-0.967 1.143-2.197 1.143-3.604 0-3.164-2.285-5.010-5.098-5.010-2.9 0-5.186 1.846-5.186 5.010 0 1.406 0.439 2.637 1.143 3.604-1.318 0.439-2.285 1.67-2.285 3.164v5.713h6.152c-0.176-0.176-0.352-0.352-0.439-0.527zM4.715 7.046c0-2.461 1.758-3.867 3.955-3.867s3.955 1.406 3.955 3.867-1.758 4.307-3.955 4.307-3.955-1.846-3.955-4.307zM10.955 17.242c-0.176-0.176-0.352-0.088-0.439 0.088l-0.352 1.23c-0.088 0.176 0 0.264 0.176 0.264h0.088l1.23-0.352c0.264-0.088 0.264-0.264 0.088-0.439l-0.791-0.791zM11.219 16.275c-0.176 0.176-0.176 0.439 0 0.615l0.967 0.967c0.176 0.176 0.439 0.176 0.615 0l4.746-4.658-1.582-1.582-4.746 4.658zM18.602 11.529l-0.967-0.967c-0.176-0.176-0.439-0.176-0.615 0l-0.703 0.703 1.582 1.582 0.703-0.703c0.176-0.176 0.176-0.439 0-0.615z"></path>
</svg>
<svg id="icon-changyong" width="20" height="20" viewBox="0 0 20 20" x="504" y="72">
<path fill="#808080" d="M9.4 8.2c0 0.6-0.5 1.2-1.2 1.2h-6.7c-0.6 0-1.2-0.5-1.2-1.2v-6.7c0-0.6 0.5-1.2 1.2-1.2h6.7c0.6 0 1.2 0.5 1.2 1.2v6.7zM9.4 18.5c0 0.6-0.5 1.2-1.2 1.2h-6.7c-0.6 0-1.2-0.5-1.2-1.2v-6.7c0-0.6 0.5-1.2 1.2-1.2h6.7c0.6 0 1.2 0.5 1.2 1.2v6.7zM19.7 8.2c0 0.6-0.5 1.2-1.2 1.2h-6.7c-0.6 0-1.2-0.5-1.2-1.2v-6.7c0-0.6 0.5-1.2 1.2-1.2h6.7c0.6 0 1.2 0.5 1.2 1.2v6.7zM19.7 18.5c0 0.6-0.5 1.2-1.2 1.2h-6.7c-0.6 0-1.2-0.5-1.2-1.2v-6.7c0-0.6 0.5-1.2 1.2-1.2h6.7c0.6 0 1.2 0.5 1.2 1.2v6.7z"></path>
</svg>
<svg id="icon-gonggongxinxi" width="20" height="20" viewBox="0 0 20 20" x="540" y="72">
<path fill="#808080" d="M15 7.7v-5.8c0-0.9-0.7-1.6-1.6-1.6h-11.2c-0.9 0-1.6 0.7-1.6 1.6v14.4c0 0.9 0.7 1.6 1.6 1.6h5.6v-0.9h-5.6c-0.4 0-0.7-0.3-0.7-0.7v-14.4c0-0.4 0.3-0.7 0.7-0.7h11.3c0.4 0 0.7 0.3 0.7 0.7v5.8h0.8zM10.9 3.2h-6.7c-0.4 0-0.7 0.3-0.7 0.7s0.3 0.7 0.7 0.7h6.6c0.4 0 0.7-0.3 0.7-0.7s-0.3-0.7-0.6-0.7zM10.9 6.2h-6.7c-0.4 0-0.7 0.3-0.7 0.7s0.3 0.7 0.7 0.7h6.6c0.4 0 0.7-0.3 0.7-0.7s-0.3-0.7-0.6-0.7zM7.6 9.4h-3.4c-0.4 0-0.7 0.3-0.7 0.7s0.3 0.7 0.7 0.7h3.3c0.4 0 0.7-0.3 0.7-0.7s-0.3-0.7-0.6-0.7zM14.2 9.3c-2.9 0-5.2 2.3-5.2 5.2s2.3 5.2 5.2 5.2 5.2-2.3 5.2-5.2-2.3-5.2-5.2-5.2zM14.3 18.5c-0.5 0-0.8-0.4-0.8-0.8 0-0.5 0.4-0.8 0.8-0.8 0.5 0 0.8 0.4 0.8 0.8s-0.3 0.8-0.8 0.8zM16.6 13.3c-0.1 0.2-0.2 0.4-0.4 0.6l-1.1 1.1c-0.1 0-0.1 0-0.2 0.1 0 0.1-0.1 0.1-0.1 0.2s0 0.2-0.1 0.3c-0.1 0.4-0.3 0.5-0.6 0.5-0.2 0-0.3-0.1-0.4-0.2s-0.2-0.3-0.2-0.5c0-0.3 0-0.5 0.1-0.7s0.2-0.4 0.3-0.5c0.1-0.2 0.3-0.3 0.6-0.6 0.2-0.2 0.4-0.3 0.5-0.4s0.2-0.2 0.2-0.3c0.1-0.1 0.1-0.2 0.1-0.4 0-0.3-0.1-0.5-0.3-0.7s-0.4-0.3-0.7-0.3c-0.4 0-0.6 0.1-0.8 0.3s-0.3 0.5-0.4 0.8c-0.1 0.4-0.3 0.6-0.6 0.6-0.2 0-0.3-0.1-0.5-0.2-0.1-0.1-0.2-0.3-0.2-0.4 0-0.3 0.1-0.6 0.3-1 0.2-0.3 0.5-0.6 0.9-0.8s0.8-0.3 1.3-0.3 0.9 0.1 1.2 0.3c0.4 0.2 0.6 0.4 0.8 0.7s0.3 0.6 0.3 1c0.1 0.3 0.1 0.6 0 0.8z"></path>
</svg>
<svg id="icon-jiantou-xia" width="20" height="20" viewBox="0 0 20 20" x="0" y="108">
<path fill="#808080" d="M10.6 13.9c0.4 0.4 0.4 0.9 0 1.3s-0.9 0.4-1.3 0l-9-9c-0.4-0.4-0.4-0.9 0-1.3s0.9-0.4 1.3 0l9 9zM18.4 4.8c0.4-0.4 0.9-0.4 1.3 0s0.4 0.9 0 1.3l-9 9c-0.4 0.4-0.9 0.4-1.3 0s-0.4-0.9 0-1.3l9-9z"></path>
</svg>
<svg id="icon-gongwenguanli" width="20" height="20" viewBox="0 0 20 20" x="36" y="108">
<path fill="#808080" d="M14.5 3v-2.6h-11.7v16.6h2.7v2.7h8.3l3.3-3.3v-13.4h-2.6zM3.9 1.5h9.4v11.8h-2.6v2.5h-6.8v-14.3zM16.1 16h-2.6v2.5h-6.8v-1.5h4.5l3.3-3.3v-9.5h1.6v11.8z"></path>
</svg>
<svg id="icon-jiantou-shang" width="20" height="20" viewBox="0 0 20 20" x="72" y="108">
<path fill="#808080" d="M10.6 6.1c0.4-0.4 0.4-0.9 0-1.3s-0.9-0.4-1.3 0l-9 9c-0.4 0.4-0.4 0.9 0 1.3s0.9 0.4 1.3 0l9-9zM18.4 15.2c0.4 0.4 0.9 0.4 1.3 0s0.4-0.9 0-1.3l-9-9c-0.4-0.4-0.9-0.4-1.3 0-0.4 0.3-0.4 0.9 0 1.2l9 9.1z"></path>
</svg>
<svg id="icon-jiantou-you" width="20" height="20" viewBox="0 0 20 20" x="108" y="108">
<path fill="#808080" d="M13.9 9.4c0.4-0.4 0.9-0.4 1.3 0s0.4 0.9 0 1.3l-9 9c-0.4 0.4-0.9 0.4-1.3 0s-0.4-0.9 0-1.3l9-9zM4.8 1.6c-0.4-0.4-0.4-0.9 0-1.3s0.9-0.4 1.3 0l9 9c0.4 0.4 0.4 0.9 0 1.3s-0.9 0.4-1.3 0l-9-9z"></path>
</svg>
<svg id="icon-jiantou-zuo" width="20" height="20" viewBox="0 0 20 20" x="144" y="108">
<path fill="#808080" d="M6.1 10.6c-0.4 0.4-0.9 0.4-1.3 0s-0.4-0.9 0-1.3l9-9c0.4-0.4 0.9-0.4 1.3 0s0.4 0.9 0 1.3l-9 9zM15.2 18.4c0.4 0.4 0.4 0.9 0 1.3s-0.9 0.4-1.3 0l-9-9c-0.4-0.4-0.4-0.9 0-1.3 0.3-0.4 0.9-0.4 1.2 0l9.1 9z"></path>
</svg>
<svg id="icon-shiwuchuli" width="20" height="20" viewBox="0 0 20 20" x="180" y="108">
<path fill="#808080" d="M9.7 14.6l0.9-0.8 3.5 3.4-0.9 0.9-3.5-3.5zM18.9 11.3l0.9 0.9-6.1 6-0.9-0.9 6.1-6zM4.7 11.9h3.1c0.3 0 0.6 0.3 0.6 0.6s-0.3 0.6-0.6 0.6h-3.1c-0.3 0-0.6-0.3-0.6-0.6-0.1-0.3 0.2-0.6 0.6-0.6zM4.7 8.1h7.5c0.3 0 0.6 0.3 0.6 0.6s-0.3 0.6-0.6 0.6h-7.5c-0.4 0.1-0.7-0.2-0.7-0.6 0-0.3 0.3-0.6 0.7-0.6zM4.7 4.3h7.5c0.3 0 0.6 0.3 0.6 0.6s-0.3 0.6-0.6 0.6h-7.5c-0.4 0.1-0.7-0.2-0.7-0.5 0-0.4 0.3-0.7 0.7-0.7zM14.1 0.6h-11.3c-1.4 0-2.5 1.1-2.5 2.5v13.8c0 1.4 1.1 2.5 2.5 2.5h8.2v-1.3h-8.2c-0.7 0-1.3-0.6-1.3-1.3v-13.7c0-0.7 0.6-1.3 1.3-1.3h11.3c0.7 0 1.3 0.6 1.3 1.3v7.5h1.3v-7.5c-0.1-1.4-1.2-2.5-2.6-2.5z"></path>
</svg>
<svg id="icon-richenganpai" width="20" height="20" viewBox="0 0 20 20" x="216" y="108">
<path fill="#808080" d="M17.9 19.4h-15.8c-0.8 0-1.4-0.6-1.4-1.3v-14.1c0-0.7 0.6-1.3 1.4-1.3h0.7v2c0 0.7 0.6 1.3 1.4 1.3h1.4c0.8 0 1.4-0.6 1.4-1.3v-2h5.8v2c0 0.7 0.6 1.3 1.4 1.3h1.4c0.8 0 1.4-0.6 1.4-1.3v-2h0.7c0.8 0 1.4 0.6 1.4 1.3v14c0.3 0.8-0.4 1.4-1.2 1.4zM17.9 7.3h-15.8v10.7h15.9v-10.7h-0.1zM12.2 11.2c-0.4 0.3-0.9 0.6-1.2 1-0.3 0.5-0.4 0.8-0.6 1.4-0.1 0.5-0.3 1.1-0.3 1.7h-1.6c0.1-0.9 0.3-1.7 0.6-2.3s0.7-1.1 1.3-1.8h-2.6v-1.2h4.4v1.2zM15 5.3c-0.8 0-1.4-0.6-1.4-1.3v-2c0-0.7 0.6-1.3 1.4-1.3s1.4 0.6 1.4 1.3v2c0.1 0.7-0.6 1.3-1.4 1.3zM5 5.3c-0.8 0-1.5-0.6-1.5-1.3v-2c0-0.7 0.6-1.3 1.4-1.3s1.4 0.6 1.4 1.3v2c0.1 0.7-0.6 1.3-1.3 1.3z"></path>
</svg>
<svg id="icon-shoucang" width="20" height="20" viewBox="0 0 20 20" x="252" y="108">
<path fill="#808080" d="M10 0.4l3.6 7.3h6l-4.8 4.8 2.3 7.1-7.1-3.5-7.1 3.5 2.3-7.1-4.8-4.8h6l3.6-7.3z"></path>
</svg>
<svg id="icon-shouye" width="20" height="20" viewBox="0 0 20 20" x="288" y="108">
<path fill="#808080" d="M11.6 18.3v-4.9h-3.1v4.9h-4.7c-0.5 0-0.8-0.3-0.8-0.8v-6.1c0-0.1 0.1-0.2 0.2-0.3 1.3-1.2 2.7-2.3 4-3.5 0.8-0.8 1.7-1.6 2.6-2.4 0.1 0 0.1-0.1 0.2-0.1 0.5 0.5 1.1 0.9 1.6 1.4 1.7 1.5 3.5 3 5.2 4.5 0.2 0.2 0.3 0.3 0.3 0.6v5.8c0 0.3-0.1 0.7-0.4 0.8-0.1 0.1-0.2 0.1-0.4 0.1h-4.7zM13.9 4.6v-2.3c0-0.5 0.1-0.6 0.6-0.6h2.1c0.4 0 0.5 0.1 0.5 0.5v4.8c0 0.3 0.1 0.4 0.2 0.6 0.8 0.7 1.5 1.3 2.3 2 0.4 0.3 0.4 0.5 0.1 0.9-0.2 0.2-0.4 0.5-0.6 0.7-0.2 0.3-0.4 0.3-0.7 0.1-2.7-2.4-5.4-4.8-8.1-7.1l-0.3-0.3c-0.6 0.6-1.2 1.1-1.8 1.6-2.2 1.9-4.4 3.9-6.5 5.8-0.3 0.3-0.5 0.2-0.7-0.1s-0.4-0.5-0.6-0.8c-0.3-0.2-0.3-0.4 0-0.7 1.2-1.1 2.4-2.1 3.6-3.2 1.7-1.5 3.3-2.9 4.9-4.3 0.7-0.7 1.5-0.7 2.2 0 0.9 0.8 1.7 1.5 2.6 2.3 0.1 0 0.1 0.1 0.2 0.1z"></path>
</svg>
<svg id="icon-shuaxin" width="20" height="20" viewBox="0 0 20 20" x="324" y="108">
<path fill="#808080" d="M17.1 2.9c-1.8-1.8-4.3-2.9-7.1-2.9-4.3 0-7.9 2.7-9.4 6.5l2.4 0.9c1-2.9 3.8-4.9 7-4.9 2.1 0 3.9 0.8 5.3 2.2l-2.8 2.8h7.5v-7.5l-2.9 2.9zM10 17.5c-2.1 0-3.9-0.8-5.3-2.2l2.8-2.8h-7.5v7.5l2.9-2.9c1.8 1.8 4.3 2.9 7.1 2.9 4.3 0 7.9-2.7 9.4-6.5l-2.4-0.9c-1 2.9-3.8 4.9-7 4.9z"></path>
</svg>
<svg id="icon-wangshangjiaoliu" width="20" height="20" viewBox="0 0 20 20" x="360" y="108">
<path fill="#808080" d="M19.7 13.2v-11.3c0-0.4-0.4-0.8-0.8-0.8h-17.8c-0.4 0-0.8 0.4-0.8 0.8v11.3c0 0.4 0.4 0.8 0.8 0.8h8.1l-1.6 3.2h-6.5c-0.4 0-0.8 0.4-0.8 0.8s0.4 0.8 0.8 0.8h17.8c0.4 0 0.8-0.4 0.8-0.8s-0.4-0.8-0.8-0.8h-6.5l-1.6-3.2h8.1c0.4 0 0.8-0.3 0.8-0.8zM18.1 12.4h-16.2v-9.7h16.2v9.7z"></path>
</svg>
<svg id="icon-tongzhi" width="20" height="20" viewBox="0 0 20 20" x="396" y="108">
<path fill="#808080" d="M10.8 1.8c-0.3-0.1-0.6-0.1-0.9 0.1l-4.8 4h-3.8c-0.2 0-0.4 0.1-0.5 0.2-0.2 0.2-0.3 0.4-0.3 0.6v6.6c0 0.2 0.1 0.4 0.2 0.6 0.2 0.2 0.4 0.2 0.6 0.2h3.8l4.7 3.9c0.2 0.1 0.3 0.2 0.5 0.2 0.1 0 0.2 0 0.3-0.1 0.3-0.1 0.5-0.4 0.5-0.7v-14.8c0.1-0.3 0-0.6-0.3-0.8M14 6c-0.4-0.2-0.9 0-1.1 0.4s0 0.9 0.4 1.1c0.1 0 1.3 0.7 1.3 2.5 0 2-1.2 2.6-1.2 2.6-0.4 0.2-0.6 0.7-0.4 1.1 0.1 0.3 0.4 0.5 0.7 0.5 0.1 0 0.2 0 0.4-0.1 0.1 0 2.1-1.1 2.1-4.1s-2.1-4-2.2-4M16.5 3.5c-0.4-0.2-0.9-0.1-1.1 0.2-0.2 0.4-0.1 0.9 0.2 1.1 0.1 0.1 2.2 1.5 2.2 5.1s-2 5-2.1 5.1c-0.4 0.3-0.5 0.8-0.2 1.1 0.2 0.2 0.4 0.4 0.7 0.4 0.2 0 0.3 0 0.5-0.1 0.1-0.1 2.8-1.9 2.8-6.5 0-4.4-2.9-6.3-3-6.4"></path>
</svg>
<svg id="icon-wodebianqian" width="20" height="20" viewBox="0 0 20 20" x="432" y="108">
<path fill="#808080" d="M3.7 1c-1.4 3.1-2.3 6.5-2.8 10.2 1.1 0.3 2.3 0.5 3.4 0.8 1-3.1 1.7-6.6 2-10.4-0.7-0.8-1.5-1.1-2.6-0.6zM16.3 13.3v0.6h-8.9v-0.6h8.9zM4.3 15.8h14v-8.3l-2.9 0.1h-0.5v-0.5l0.2-2.6h-8c0.1-0.6 0.1-1.1 0.2-1.7h9l0.3 0.2 3.1 3 0.3 0.3v11.2h-16.2l0.5-1.7zM17.9 6.6l-1.9-1.8-0.2 1.9 2.1-0.1zM7.4 10.6v0.6h8.8v-0.6h-8.8zM7.4 8.2v0.6h5.3v-0.6h-5.3zM7.4 5.7v0.6h5.3v-0.6h-5.3zM0.7 16.2l-0.7 1.3 0.4 1.6c0.2 0 0.4 0.1 0.7 0.2l1-1.2v-1.5l-1.4-0.4zM4 12.6c-0.4 1.2-0.9 2.5-1.3 3.7-0.8-0.2-1.5-0.4-2.3-0.5 0.2-1.3 0.3-2.6 0.5-3.9 1 0.2 2.1 0.5 3.1 0.7z"></path>
</svg>
<svg id="icon-tongxunlu" width="20" height="20" viewBox="0 0 20 20" x="468" y="108">
<path fill="#808080" d="M11.1 10.9c0.9-0.9 1.4-2.1 1.4-3.4v-2.5c0-2.8-2.2-5-5-5s-5 2.2-5 5v2.5c0 1.3 0.5 2.5 1.4 3.4-2 1.1-3.5 3-3.9 5.3 0 2.1 1.7 3.8 3.8 3.8h7.5c2.1 0 3.8-1.7 3.8-3.8-0.5-2.2-2-4.2-4-5.3zM5 5c0-1.4 1.1-2.5 2.5-2.5s2.5 1.1 2.5 2.5v2.5c0 1.4-1.1 2.5-2.5 2.5s-2.5-1.1-2.5-2.5v-2.5zM11.3 17.5h-7.5c-0.7 0-1.3-0.6-1.3-1.3 0.6-2.2 2.7-3.8 5-3.8s4.4 1.6 5 3.8c0 0.7-0.6 1.3-1.2 1.3zM15 6.2h3.8c0.6 0 1.2-0.5 1.2-1.2s-0.6-1.2-1.3-1.2h-3.7c-0.7 0-1.2 0.6-1.2 1.2 0 0.7 0.5 1.2 1.2 1.2zM18.8 7.5h-2.5c-0.7 0-1.3 0.6-1.3 1.3s0.6 1.3 1.3 1.3h2.5c0.7 0 1.3-0.6 1.3-1.3-0.1-0.7-0.7-1.3-1.3-1.3zM18.8 11.3h-1.3c-0.7 0-1.3 0.6-1.3 1.3s0.6 1.3 1.3 1.3h1.3c0.7 0 1.3-0.6 1.3-1.3-0.1-0.8-0.7-1.3-1.3-1.3z"></path>
</svg>
<svg id="icon-wodedaiban" width="20" height="20" viewBox="0 0 20 20" x="504" y="108">
<path fill="#808080" d="M1 0.6h5v5h-5v-5zM7.8 2.2h11.5v1.8h-11.5v-1.8zM7.8 8.9h11.5v1.7h-11.5v-1.7zM1 14.4h5v5h-5v-5zM7.8 16h11.5v1.8h-11.5v-1.8zM3 10.3l-1.5-1.4-0.8 0.9 2.4 2.1 3.7-3.7-0.8-0.9-3 3z"></path>
</svg>
<svg id="icon-wodeweituo" width="20" height="20" viewBox="0 0 20 20" x="540" y="108">
<path fill="#808080" d="M19.9 14.1c-0.3-0.2-4.2-3.7-4.4-4-0.3-0.3-0.5-0.3-0.5-0.3h-6.6s-1.1 0.1-1 1c0 0.6 0.4 1.1 1 1.3 0.6 0.1 1.9 0.2 2.9 0.3 0.3 0 0 0.3 0 0.3l-1.3 0.9h-4.4s-1.8-1.3-2.9-2.2c-1.9-1.4-2.6 0-2.6 0s-0.2 0.5 0 0.8c1 0.9 4.6 4.2 4.9 4.4s0.6 0.1 0.6 0.1h7.5c0.6 0 1 0.4 1 0.4s1.2 1 1.5 1.3c0.6 0.5 0.9 0 0.9 0l3.4-3.7s0.3-0.3 0-0.6M14.8 2.4c0 0.3-0.2 0.5-0.4 0.5h-8.5c-0.3 0-0.5-0.2-0.5-0.5v-0.3c0-0.3 0.2-0.7 0.5-0.7h8.5c0.3 0 0.4 0.3 0.4 0.7v0.3zM1.6 2.2c0 0.4 0.3 0.8 0.7 0.8s0.7-0.4 0.7-0.8-0.3-0.7-0.7-0.7-0.7 0.3-0.7 0.7M14.8 6.4c0 0.3-0.2 0.5-0.4 0.5h-8.5c-0.3 0-0.5-0.2-0.5-0.5v-0.3c0-0.3 0.2-0.7 0.5-0.7h8.5c0.3 0 0.4 0.3 0.4 0.7v0.3zM1.6 6.2c0 0.4 0.3 0.8 0.7 0.8s0.7-0.4 0.7-0.8-0.3-0.7-0.7-0.7-0.7 0.3-0.7 0.7"></path>
</svg>
<svg id="icon-wodeyoujian" width="20" height="20" viewBox="0 0 20 20" x="0" y="144">
<path fill="#808080" d="M19.2 3.8c-0.3-0.3-0.6-0.4-0.9-0.4h-16.6c-0.3 0-0.5 0.1-0.8 0.3l-0.1 0.1c-0.3 0.3-0.4 0.6-0.4 1v10.5c0 0.4 0.1 0.7 0.4 0.9s0.5 0.4 0.9 0.4h16.7c0.3 0 0.6-0.1 0.9-0.4s0.4-0.6 0.4-0.9v-10.5c-0.1-0.4-0.2-0.7-0.5-1zM18.3 5.4v9.1l-5.4-4.5 2.9-2.4 2.5-2.2zM10 10.7l-5.1-4.2-2-1.7h14.2l-7.1 5.9zM1.7 5.4l5.4 4.6-4.3 3.7-1.1 0.9v-9.2zM2.8 15.3l5.3-4.5 1.5 1.2c0.1 0.1 0.3 0.2 0.4 0.2h0.1c0.1 0 0.1 0 0.2-0.1 0 0 0.1 0 0.1-0.1l1.5-1.2 5.3 4.5h-14.4z"></path>
</svg>
<svg id="icon-xinwengonggao" width="20" height="20" viewBox="0 0 20 20" x="36" y="144">
<path fill="#808080" d="M17.7 1.7h-15.4c-1.2 0-2.2 1-2.2 2.2v12.1c0 1.2 1 2.2 2.2 2.2h15.4c1.2 0 2.2-1 2.2-2.2v-12.1c0-1.2-1-2.2-2.2-2.2zM18.7 16.1c0 0.5-0.4 1-1 1h-15.4c-0.5 0-1-0.4-1-1v-12.2c0-0.5 0.4-1 1-1h15.4c0.5 0 1 0.4 1 1v12.2zM3 4.8h14v1.3h-14v-1.3zM10.6 7.4h6.4v1.4h-6.4v-1.4zM10.6 10.1h6.4v1.9h-6.4v-1.9zM10.6 13.8h5.2v1.3h-5.2v-1.3zM3 7.5h6.1v7.6h-6.1v-7.6z"></path>
</svg>
<svg id="icon-ziyuanguanli" width="20" height="20" viewBox="0 0 20 20" x="72" y="144">
<path fill="#808080" d="M9.9 11.2c-0.2 0-0.4-0.1-0.6-0.2l-8.4-4.5c-0.1 0-0.1-0.1-0.2-0.1-0.4-0.4-0.4-1 0-1.3 0.1-0.1 0.2-0.1 0.3-0.2l8.5-4.2c0.2-0.1 0.4-0.2 0.6-0.2s0.4 0.1 0.6 0.2l8.3 3.9c0.1 0 0.1 0.1 0.2 0.1 0.2 0.2 0.3 0.4 0.3 0.7s-0.1 0.5-0.3 0.7l-0.1 0.1-8.6 4.8c-0.2 0.1-0.4 0.2-0.6 0.2zM2.2 5.8l7.7 4.1 7.9-4.4-7.7-3.6-7.9 3.9zM9.8 14c-0.2 0-0.4-0.1-0.6-0.2l-8.3-4.5c-0.3-0.2-0.5-0.6-0.3-0.9s0.6-0.4 0.9-0.2l8.3 4.5 8.5-4.8c0.3-0.2 0.7-0.1 0.9 0.2s0.1 0.7-0.2 0.9l-8.6 4.8c-0.1 0.1-0.3 0.2-0.6 0.2zM9.8 16.7c-0.2 0-0.4-0.1-0.6-0.2l-8.3-4.5c-0.2-0.1-0.3-0.2-0.3-0.4s0-0.3 0.1-0.5c0.2-0.3 0.6-0.4 0.9-0.3l8.3 4.5 8.5-4.8c0.3-0.2 0.7-0.1 0.9 0.2s0.1 0.7-0.2 0.9l-8.6 4.8c-0.2 0.3-0.4 0.3-0.7 0.3zM9.8 19.5c-0.2 0-0.4-0.1-0.6-0.2l-8.4-4.5c-0.2-0.1-0.3-0.2-0.3-0.4s0-0.3 0.1-0.5c0.2-0.3 0.6-0.4 0.9-0.3l8.3 4.5 8.5-4.8c0.3-0.2 0.7-0.1 0.9 0.2s0.1 0.7-0.2 0.9l-8.6 4.8c-0.1 0.2-0.3 0.3-0.6 0.3z"></path>
</svg>
<svg id="icon-wenjian" width="20" height="20" viewBox="0 0 20 20" x="108" y="144">
<path fill="#808080" d="M10.2 0v6.7h6.7l-6.7-6.7zM9.4 7.5v-7.5h-6.7v20h14.6v-12.5h-7.9z"></path>
</svg>
<svg id="icon-wenjianjia_dakai" width="20" height="20" viewBox="0 0 20 20" x="144" y="144">
<path fill="#808080" d="M17.8 17.4c0 0.7-0.6 1.2-1.3 1.2h-15.6l2.2-10.2c0-0.7 0.6-1.3 1.2-1.3h14.4c0.7 0 1.2 0.6 1.2 1.3l-2.1 9M3.4 6.2h14.1v-1.2c0-0.7-0.6-1.3-1.2-1.3h-7.5v-1.1c0-0.7-0.6-1.2-1.2-1.2h-6.4c-0.6-0.1-1.2 0.5-1.2 1.2v14.9l2.2-10c0-0.8 0.5-1.3 1.2-1.3"></path>
</svg>
<svg id="icon-wenjianjia_guanbi" width="20" height="20" viewBox="0 0 20 20" x="180" y="144">
<path fill="#808080" d="M18.2 4.1h-7.6l-0.6-1c-0.6-1.2-0.8-1.8-1.8-1.8h-6.4c-1 0-1.8 0.8-1.8 1.8v13.7c0 1 0.8 1.8 1.8 1.8h16.5c1 0 1.8-0.8 1.8-1.8v-11c0-0.9-0.9-1.7-1.9-1.7z"></path>
</svg>
<svg id="icon-info" width="20" height="20" viewBox="0 0 20 20" x="216" y="144">
<path fill="#808080" d="M10 18.711c-4.803 0-8.711-3.907-8.711-8.711s3.908-8.711 8.711-8.711c4.804 0 8.711 3.907 8.711 8.711s-3.907 8.711-8.711 8.711zM10 2.539c-4.114 0-7.461 3.347-7.461 7.461s3.347 7.461 7.461 7.461c4.114 0 7.461-3.347 7.461-7.461s-3.348-7.461-7.461-7.461zM9.063 5.938c0 0.518 0.42 0.938 0.938 0.938s0.938-0.42 0.938-0.938v0c0-0.518-0.42-0.938-0.938-0.938s-0.938 0.42-0.938 0.938v0zM10 15c-0.345 0-0.625-0.279-0.625-0.625v-5.625c0-0.345 0.28-0.625 0.625-0.625s0.625 0.28 0.625 0.625v5.625c0 0.346-0.28 0.625-0.625 0.625z"></path>
</svg>
<svg id="icon-biaodan" width="20" height="20" viewBox="0 0 20 20" x="252" y="144">
<path fill="#808080" d="M16.4 1.8h-3.8c-0.4-1.1-1.4-1.8-2.6-1.8s-2.2 0.7-2.5 1.8h-3.9c-1 0-1.8 0.8-1.8 1.8v14.5c0 1 0.8 1.8 1.8 1.8h12.7c1 0 1.8-0.8 1.8-1.8v-14.5c0.1-1-0.7-1.8-1.7-1.8zM10 1.8c0.5 0 0.9 0.5 0.9 0.9s-0.4 0.9-0.9 0.9-0.9-0.5-0.9-0.9 0.4-0.9 0.9-0.9zM16.4 18.2h-12.8v-14.6h1.8v2.7h9.1v-2.7h1.8v14.6h0.1zM5.5 10.9h9.1v-1.8h-9.1v1.8zM5.5 14.5h5.5v-1.8h-5.5v1.8z"></path>
</svg>
<svg id="icon-biaodanfenlei" width="20" height="20" viewBox="0 0 20 20" x="288" y="144">
<path fill="#808080" d="M0 0.6v8.8h20v-8.8h-20zM18.8 8.1h-17.5v-6.2h17.5v6.2zM12.5 5.6h1.3v1.3h1.2v-1.3h1.3v-1.2h1.3v-1.3h-6.3v1.3h1.3v1.2h-0.1zM0 19.4h20v-8.8h-20v8.8zM1.3 11.9h17.5v6.3h-17.5v-6.3zM11.3 14.4h1.3v1.3h1.3v1.3h1.1v-1.3h1.3v-1.3h1.3v-1.3h-6.3v1.3z"></path>
</svg>
<svg id="icon-bumen" width="20" height="20" viewBox="0 0 20 20" x="324" y="144">
<path fill="#808080" d="M3.3 12.6h-1.7c-0.9 0-1.6 0.7-1.6 1.6v3.9c0 0.9 0.7 1.6 1.6 1.6h4.6c0.9 0 1.6-0.7 1.6-1.6v-3.9c0-0.9-0.7-1.6-1.6-1.6h-2.9zM6.2 13.7c0.3 0 0.5 0.2 0.5 0.5v3.9c0 0.3-0.2 0.5-0.5 0.5h-4.6c-0.3 0-0.5-0.2-0.5-0.5v-3.9c0-0.3 0.2-0.5 0.5-0.5h4.6zM10.6 7.4h1.6c0.9 0 1.6-0.7 1.6-1.6v-3.9c0-0.9-0.7-1.6-1.6-1.6h-4.5c-0.9 0-1.6 0.7-1.6 1.6v3.9c0 0.9 0.7 1.6 1.6 1.6h2.9zM7.7 6.3c-0.3 0-0.5-0.2-0.5-0.5v-3.9c0-0.3 0.2-0.5 0.5-0.5h4.6c0.3 0 0.5 0.2 0.5 0.5v3.9c0 0.3-0.2 0.5-0.5 0.5h-4.6zM18.4 12.6h-4.5c-0.9 0-1.6 0.7-1.6 1.6v3.9c0 0.9 0.7 1.6 1.6 1.6h4.6c0.9 0 1.6-0.7 1.6-1.6v-3.9c-0.1-0.9-0.8-1.6-1.7-1.6zM18.9 18.1c0 0.3-0.2 0.5-0.5 0.5h-4.6c-0.3 0-0.5-0.2-0.5-0.5v-3.9c0-0.3 0.2-0.5 0.5-0.5h4.6c0.3 0 0.5 0.2 0.5 0.5v3.9zM16.7 12.6v-3h-6.1v-2.2h-1.1v2.2h-6.2v3h1.1v-1.8h11.1v1.8h1.2z"></path>
</svg>
<svg id="icon-biaodanfenzu" width="20" height="20" viewBox="0 0 20 20" x="360" y="144">
<path fill="#808080" d="M15.6 4.5s-0.5-0.1-0.4 0.3l1.3 3.8 0.5-1.8 2.1 2.7 0.9-1.1-2.6-2.1 1.8-0.5-3.6-1.3zM0.9 9.5h13.9c0.2 0 0.3-0.5 0.3-1.1s-0.3-0.9-0.3-0.9h-12.5c-0.2 0-0.3-0.2-0.3-0.3v-3.3c0-0.2 0.1-0.3 0.3-0.3h15c0.2 0 0.3 0.1 0.3 0.3v0.1c0 0.2 0.8 0.2 1.3 0.2 0.6 0 0.7-0.1 0.7-0.3v-1.4c0-0.5-0.4-0.9-0.9-0.9h-17.8c-0.5 0-0.9 0.4-0.9 0.9v6.1c0 0.5 0.4 0.9 0.9 0.9zM18.7 11.1h-17.8c-0.5 0-0.9 0.4-0.9 0.9v5.6c0 0.5 0.4 0.9 0.9 0.9h17.8c0.5 0 0.9-0.4 0.9-0.9v-5.6c0-0.5-0.4-0.9-0.9-0.9zM17.6 16.1c0 0.2-0.1 0.3-0.3 0.3h-15c-0.2 0-0.3-0.1-0.3-0.3v-2.8c0-0.1 0.1-0.3 0.3-0.3h15c0.2 0 0.3 0.1 0.3 0.3v2.8z"></path>
</svg>
<svg id="icon-caidanyezijiedian" width="20" height="20" viewBox="0 0 20 20" x="396" y="144">
<path fill="#808080" d="M16.6 13.4c-1.3 0-2.6 0.7-3.1 2h-4.7c-1.1 0-2.2-0.9-2.2-2.2v-5.5c0.7 0.4 1.3 0.5 2.2 0.5h4.8c0.5 1.1 1.6 2 3.1 2 1.8 0 3.3-1.5 3.3-3.3s-1.5-3.3-3.3-3.3c-1.3 0-2.6 0.7-3.1 2h-4.8c-1.1-0.4-2.2-1.4-2.2-2.5v-0.3h3.7v-2.8h-10.2v2.8h3.8v10.2c-0.1 2.8 2.1 5 4.9 5h4.8c0.5 1.1 1.6 2 3.1 2 1.8 0 3.3-1.5 3.3-3.3-0.1-1.8-1.5-3.3-3.4-3.3zM16.6 5c1.1 0 2 0.9 2 2s-0.9 2-2 2-2-0.9-2-2c0.2-1.1 0.9-2 2-2zM16.6 18.7c-1.1 0-2-0.9-2-2s0.9-2 2-2 2 0.9 2 2c0.1 1.1-0.9 2-2 2z"></path>
</svg>
<svg id="icon-caidanfenzu" width="20" height="20" viewBox="0 0 20 20" x="432" y="144">
<path fill="#808080" d="M1.6 19.7c-0.8 0-1.4-0.7-1.4-1.5v-11.2c0-0.8 0.6-1.5 1.4-1.5h11.8c0.8 0 1.4 0.7 1.4 1.5v11.2c0 0.8-0.6 1.5-1.4 1.5h-11.8zM1.6 6.5c-0.2 0-0.4 0.2-0.4 0.5v11.4c0.1 0.2 0.2 0.3 0.4 0.3h11.8c0.3 0 0.5-0.2 0.5-0.5v-11.2c0-0.3-0.2-0.5-0.5-0.5h-11.8zM16.4 15.6v-11.2c0-0.3-0.2-0.5-0.5-0.5h-10.5c-0.2 0-0.5-0.2-0.5-0.5s0.2-0.5 0.5-0.5h10.5c0.8 0 1.4 0.7 1.4 1.5v11.2c0 0.3-0.2 0.5-0.5 0.5-0.2 0-0.4-0.2-0.4-0.5zM18.9 13v-11.3c0-0.3-0.2-0.5-0.5-0.5h-10.6c-0.2 0-0.4-0.2-0.4-0.5s0.2-0.5 0.5-0.5h10.5c0.8 0 1.4 0.7 1.4 1.5v11.3c0 0.3-0.2 0.5-0.5 0.5s-0.5-0.3-0.4-0.5zM0 18.3v-11.3c0-1 0.7-1.8 1.6-1.8h11.8c0.9 0.1 1.6 0.9 1.6 1.8v11.2c0 1-0.7 1.7-1.6 1.7h-11.8c-0.9 0.1-1.6-0.7-1.6-1.6zM1.6 5.8c-0.6 0-1.1 0.5-1.1 1.2v11.2c0 0.7 0.5 1.2 1.2 1.2h11.8c0.6 0 1.2-0.6 1.2-1.2v-11.2c0-0.7-0.5-1.2-1.2-1.2h-11.9zM1.1 18.7h-0.2v-11.7c0-0.4 0.3-0.8 0.7-0.8h11.8c0.4 0 0.7 0.3 0.7 0.8v11.2c0 0.4-0.3 0.8-0.7 0.8h-11.8c-0.2 0-0.4-0.1-0.5-0.3zM1.6 6.8c-0.1 0-0.2 0.1-0.2 0.2v11.4c0 0.1 0.1 0.2 0.2 0.2h11.8c0.1 0 0.2-0.1 0.2-0.3v-11.3c0-0.1-0.1-0.3-0.2-0.3h-11.8v0.1zM16.1 15.6v-11.2c0-0.1-0.1-0.3-0.2-0.3h-10.5c-0.4 0-0.7-0.3-0.7-0.7s0.3-0.8 0.7-0.8h10.5c0.9 0 1.6 0.8 1.6 1.7v11.2c0 0.4-0.3 0.7-0.7 0.7-0.4 0.1-0.7-0.2-0.7-0.6zM5.4 3.1c-0.1 0-0.2 0.1-0.2 0.2s0.1 0.2 0.2 0.2h10.5c0.4 0 0.7 0.3 0.7 0.8v11.2c0 0.2 0.1 0.3 0.2 0.3s0.2-0.1 0.2-0.2v-11.2c0-0.7-0.5-1.2-1.2-1.2h-10.4v-0.1zM18.8 13.5c-0.1-0.1-0.2-0.3-0.2-0.5v-11.3c0-0.1-0.1-0.3-0.2-0.3h-10.6c-0.4 0-0.7-0.3-0.7-0.7 0.1-0.4 0.4-0.7 0.7-0.7h10.5c1 0 1.7 0.8 1.7 1.8v11.2c0 0.4-0.3 0.7-0.7 0.7-0.2 0-0.4-0.1-0.5-0.2zM7.8 0.5c-0.1 0-0.2 0.1-0.2 0.2 0 0.2 0.1 0.3 0.2 0.3h10.5c0.4 0 0.7 0.3 0.7 0.8v11.2c0 0.1 0 0.1 0.1 0.2 0 0.1 0.1 0.1 0.2 0.1s0.2-0.1 0.2-0.2v-11.4c0-0.7-0.5-1.2-1.2-1.2h-10.5z"></path>
</svg>
<svg id="icon-cunchufenlei" width="20" height="20" viewBox="0 0 20 20" x="468" y="144">
<path fill="#808080" d="M15 0h-15v20h20v-15l-5-5zM15 16.2h-12.5v-6.2h12.5v6.2zM2.5 7.5v-5h12.5v5h-12.5z"></path>
</svg>
<svg id="icon-cunchu" width="20" height="20" viewBox="0 0 20 20" x="504" y="144">
<path fill="#808080" d="M17.6 0h-15.2c-1.1 0-2 0.9-2 2v16c0 1.1 0.9 2 2 2h15.1c1.1 0 2-0.9 2-2v-16c0.1-1.1-0.8-2-1.9-2zM4.9 1.4h10.2v7.2h-10.2v-7.2zM18.1 18.1c0 0.3-0.2 0.5-0.5 0.5h-0.6v-1.7c0-0.6-0.5-1.1-1.1-1.1h-11.7c-0.6 0-1.1 0.5-1.1 1.1v1.7h-0.7c-0.3 0-0.5-0.2-0.5-0.5v-16.1c0-0.3 0.2-0.5 0.5-0.5h1v7.9c0 0.4 0.3 0.7 0.7 0.7h11.6c0.4 0 0.7-0.3 0.7-0.7v-8h1.1c0.3 0 0.5 0.2 0.5 0.5l0.1 16.2zM12.6 2.6c-0.4 0-0.7 0.3-0.7 0.7v3c0 0.4 0.3 0.7 0.7 0.7s0.7-0.3 0.7-0.7v-3c0-0.4-0.4-0.7-0.7-0.7z"></path>
</svg>
<svg id="icon-liuchengfenlei" width="20" height="20" viewBox="0 0 20 20" x="540" y="144">
<path fill="#808080" d="M18.6 12.8h-2.3v-2.8h-5.6v-2.3h3.7c0.7 0 1.4-0.7 1.4-1.4v-4.7c0-0.7-0.7-1.4-1.4-1.4h-8.8c-0.7 0-1.4 0.7-1.4 1.4v4.7c0 0.7 0.7 1.4 1.4 1.4h3.7v2.3h-5.6v2.8h-2.3c-0.7 0-1.4 0.7-1.4 1.4v4.2c0 0.7 0.7 1.4 1.4 1.4h6c0.7 0 1.4-0.7 1.4-1.4v-4.2c0-0.7-0.7-1.4-1.4-1.4h-2.3v-1.4h9.8v1.4h-2.3c-0.7 0-1.4 0.7-1.4 1.4v4.2c0 0.7 0.7 1.4 1.4 1.4h6c0.7 0 1.4-0.7 1.4-1.4v-4.2c0-0.7-0.7-1.4-1.4-1.4zM7.4 14.2v4.2h-6v-4.2h6zM5.6 6.3v-4.7h8.8v4.7h-8.8zM18.6 18.4h-6v-4.2h6v4.2z"></path>
</svg>
<svg id="icon-liucheng" width="20" height="20" viewBox="0 0 20 20" x="0" y="180">
<path fill="#808080" d="M15.4 12.3c-1.4 0-2.5 0.7-3.2 1.8l-4.2-2.4c0.3-0.5 0.4-1.1 0.4-1.7 0-0.4-0.1-0.8-0.2-1.1l4.3-2.4c0.7 0.8 1.7 1.2 2.8 1.2 2.1 0 3.8-1.7 3.8-3.8s-1.7-3.8-3.9-3.8c-2.1 0-3.8 1.7-3.8 3.8 0 0.4 0.1 0.8 0.2 1.1l-4.2 2.4c-0.7-0.8-1.7-1.3-2.8-1.3-2.1 0-3.8 1.7-3.8 3.9s1.7 3.9 3.8 3.9c0.9 0 1.7-0.3 2.3-0.8l4.6 2.7v0.4c0 2.1 1.7 3.8 3.8 3.8s3.8-1.7 3.8-3.8c0.1-2.2-1.6-3.9-3.7-3.9zM15.4 1.5c1.3 0 2.3 1 2.3 2.3s-1 2.3-2.3 2.3c-1.3 0-2.3-1-2.3-2.3 0-1.2 1-2.3 2.3-2.3zM4.7 12.3c-1.3 0-2.3-1-2.3-2.3s1-2.3 2.3-2.3c1.2 0 2.3 1 2.3 2.3-0.1 1.3-1.1 2.3-2.3 2.3zM15.4 18.5c-1.3 0-2.3-1-2.3-2.3s1-2.3 2.3-2.3c1.3 0 2.3 1 2.3 2.3-0.1 1.2-1.1 2.3-2.3 2.3z"></path>
</svg>
<svg id="icon-cunchufenzu" width="20" height="20" viewBox="0 0 20 20" x="36" y="180">
<path fill="#808080" d="M13.4 10.7l-2.3 2.2v-4.9c0-0.6-0.5-1.1-1.1-1.1s-1.1 0.5-1.1 1.1v4.9l-2.3-2.2c-0.4-0.4-1.1-0.4-1.6 0-0.4 0.4-0.4 1.1 0 1.6l4.1 4c0.2 0.2 0.5 0.3 0.8 0.3s0.5-0.1 0.8-0.3l4.1-4c0.4-0.4 0.5-1.1 0-1.6-0.3-0.4-1-0.4-1.4 0zM18 3.7c0-1.8-1.4-3.2-3.1-3.2h-9.8c-1.7 0-3.1 1.4-3.1 3.1v0.1c-1.2 0.4-2 1.5-2 2.8v9.9c0 1.7 1.4 3.1 3.1 3.1h13.8c1.7 0 3.1-1.4 3.1-3.1v-9.9c0-1.3-0.8-2.4-2-2.8zM5.1 2.7h9.9c0.4 0 0.8 0.3 0.8 0.7h-11.6c0.1-0.4 0.4-0.7 0.9-0.7zM17.8 16.4c0 0.5-0.4 0.9-0.9 0.9h-13.8c-0.5 0-0.9-0.4-0.9-0.9v-9.9c0-0.5 0.4-0.9 0.9-0.9h13.8c0.5 0 0.9 0.4 0.9 0.9v9.9z"></path>
</svg>
<svg id="icon-liuchengfenzu" width="20" height="20" viewBox="0 0 20 20" x="72" y="180">
<path fill="#808080" d="M16.7 11c-0.1-1.4-1.2-2.4-2.7-2.4-0.7 0-1.3 0.3-1.8 0.8-0.1 0.1-0.2 0.2-0.2 0.3l-3.5-0.4c-0.1-0.6-0.4-1.2-0.9-1.6l1.5-2.6c0.2 0 0.4 0.1 0.5 0.1 1.4 0 2.6-1.2 2.6-2.6s-1.1-2.6-2.6-2.6c-1.4 0-2.6 1.2-2.6 2.6 0 0.7 0.3 1.3 0.7 1.8l-1.4 2.7h-0.5c-0.7 0-1.3 0.3-1.8 0.8s-0.7 1.2-0.7 1.9c0.1 1.4 1.2 2.4 2.6 2.4h0.1c0.7 0 1.3-0.3 1.8-0.8 0.2-0.2 0.3-0.4 0.4-0.6l3.3 0.3v0.1c0 0.5 0.2 1 0.5 1.4l-1.2 2.2h-0.2c-1.5 0-2.6 1.2-2.6 2.6s1.2 2.6 2.6 2.6c1.4 0 2.6-1.2 2.6-2.6 0-0.8-0.4-1.5-1-2l1-1.9c0.3 0.1 0.6 0.2 0.9 0.2h0.1c0.7 0 1.3-0.3 1.8-0.8 0.5-0.6 0.7-1.2 0.7-1.9zM9.6 1.5c0.6 0 1.1 0.5 1.1 1.1s-0.5 1.1-1.1 1.1c-0.6 0-1.1-0.5-1.1-1.1s0.5-1.1 1.1-1.1zM6.7 10.4c-0.2 0.2-0.5 0.3-0.8 0.4h-0.1c-0.6 0-1.1-0.5-1.1-1 0-0.3 0.1-0.6 0.3-0.8s0.5-0.3 0.8-0.4c0.7-0.1 1.2 0.4 1.2 1 0 0.3-0.1 0.5-0.3 0.8zM10.6 18.5c-0.6 0-1.1-0.5-1.1-1.1s0.5-1.1 1.1-1.1c0.6 0 1.1 0.5 1.1 1.1s-0.5 1.1-1.1 1.1zM14.9 11.8c-0.2 0.2-0.5 0.3-0.8 0.4h-0.1c-0.6 0-1.1-0.5-1.1-1 0-0.3 0.1-0.6 0.3-0.8s0.5-0.3 0.8-0.4c0.6 0 1.1 0.5 1.1 1 0.1 0.3 0 0.6-0.2 0.8z"></path>
</svg>
<svg id="icon-zuzhi" width="20" height="20" viewBox="0 0 20 20" x="108" y="180">
<path fill="#808080" d="M17.2 6.8h2.8l-10.1-6-9.9 6h2.5v10.5h-1.4v2h17.5v-2h-1.4v-10.5M8.1 17.2h-3v-10.5h3v10.5M14.6 17.2h-2.9v-10.5h2.9v10.5"></path>
</svg>
<svg id="icon-yonghu" width="20" height="20" viewBox="0 0 20 20" x="144" y="180">
<path fill="#808080" d="M14.5 11c0.7-1.1 1.1-2.6 1.1-4.1 0-3.8-2.5-6.9-5.6-6.9s-5.6 3.1-5.6 6.9c0 1.5 0.4 3 1.1 4.1-2.9 1.4-4.9 4.1-4.9 7.1v0.6c0 0.7 0.6 1.3 1.2 1.3h16.3c0.7 0 1.2-0.6 1.2-1.3v-0.6c0.1-3.1-1.9-5.7-4.8-7.1zM10 1.9c2 0 3.7 2.3 3.7 5s-1.7 5-3.7 5-3.8-2.3-3.8-5c0.1-2.7 1.8-5 3.8-5zM2.5 18.1c0-2.5 1.7-4.6 4.3-5.6 0.9 0.8 2 1.3 3.2 1.3s2.3-0.5 3.2-1.3c2.5 1 4.3 3.2 4.3 5.6h-15z"></path>
</svg>
<svg id="icon-bianji" width="20" height="20" viewBox="0 0 20 20" x="180" y="180">
<path fill="#808080" d="M3.297 13.113l4.092 4.292 10.081-10.58-4.092-4.292-10.081 10.58M0.003 20l6.488-1.597-4.192-4.292-2.296 5.889M18.568 1.435c-1.198-1.198-2.196-2.096-3.394-0.798l-0.798 0.898 4.192 4.392 0.798-0.898c1.198-1.198 0.399-2.296-0.798-3.593"></path>
</svg>
<svg id="icon-queren" width="20" height="20" viewBox="0 0 20 20" x="216" y="180">
<path fill="#808080" d="M18 2.8l-10.4 10.3-5.6-5.5-2 2.1 7.6 7.5 12.4-12.4-2-2z"></path>
</svg>
<svg id="icon-zhankai" width="20" height="20" viewBox="0 0 20 20" x="252" y="180">
<path fill="#808080" d="M10 0c-5.5 0-10 4.5-10 10s4.5 10 10 10 10-4.5 10-10-4.5-10-10-10zM10 18.4c-4.7 0-8.5-3.8-8.5-8.5s3.8-8.5 8.5-8.5 8.5 3.8 8.5 8.5-3.8 8.5-8.5 8.5zM10 11.3l-4.6-4.7-1.1 1.1 5.7 5.7 5.8-5.7-1.1-1.1-4.7 4.7z"></path>
</svg>
<svg id="icon-guanbi" width="20" height="20" viewBox="0 0 20 20" x="288" y="180">
<path fill="#808080" d="M10 0c-5.5 0-10 4.5-10 10s4.5 10 10 10 10-4.5 10-10-4.5-10-10-10zM10 18.4c-4.7 0-8.5-3.8-8.5-8.5s3.8-8.5 8.5-8.5 8.5 3.8 8.5 8.5-3.8 8.5-8.5 8.5zM11.3 10l-4.7 4.6 1.1 1.1 5.7-5.7-5.7-5.8-1.1 1.1 4.7 4.7z"></path>
</svg>
<svg id="icon-qingjia" width="20" height="20" viewBox="0 0 20 20" x="324" y="180">
<path fill="#808080" d="M1.3 3.3h3.8v1.1c0 0.3 0.3 0.6 0.6 0.6s0.6-0.3 0.6-0.6v-1.1h4.8v1.1c0 0.3 0.3 0.6 0.6 0.6s0.6-0.3 0.6-0.6v-1.1h3.3v5.5h1.3v-5.5c0-0.7-0.6-1.3-1.3-1.3h-3.2v-1.2c0-0.3-0.3-0.6-0.6-0.6s-0.6 0.3-0.6 0.6v1.2h-4.9v-1.2c0-0.3-0.3-0.6-0.6-0.6s-0.6 0.3-0.6 0.6v1.2h-3.8c-0.7 0-1.3 0.6-1.3 1.3v12.1c0 0.7 0.6 1.3 1.3 1.3h7.6v-1.3h-7.6v-12.1zM3.3 7.7c0 0.3 0.2 0.7 0.5 0.8 0.3 0.2 0.7 0.2 1 0s0.5-0.5 0.5-0.8-0.2-0.7-0.5-0.8c-0.3-0.2-0.7-0.2-1 0s-0.5 0.5-0.5 0.8M7.6 7.7c0 0.3 0.2 0.7 0.5 0.8 0.3 0.2 0.7 0.2 1 0s0.5-0.5 0.5-0.8-0.2-0.7-0.5-0.8c-0.3-0.2-0.7-0.2-1 0s-0.5 0.5-0.5 0.8M11.8 7.7c0 0.3 0.2 0.7 0.5 0.8 0.3 0.2 0.7 0.2 1 0s0.5-0.5 0.5-0.8-0.2-0.7-0.5-0.8c-0.3-0.2-0.7-0.2-1 0-0.4 0.2-0.5 0.5-0.5 0.8M3.3 11.5c0 0.3 0.2 0.7 0.5 0.8 0.3 0.2 0.7 0.2 1 0s0.5-0.5 0.5-0.8-0.2-0.7-0.5-0.8c-0.3-0.2-0.7-0.2-1 0-0.3 0.1-0.5 0.5-0.5 0.8M7.6 11.5c0 0.3 0.2 0.7 0.5 0.8 0.3 0.2 0.7 0.2 1 0s0.5-0.5 0.5-0.8-0.2-0.7-0.5-0.8c-0.3-0.2-0.7-0.2-1 0-0.3 0.1-0.5 0.5-0.5 0.8M15.1 10.1c-2.7 0-4.9 2.2-4.9 4.9s2.2 4.9 4.9 4.9 4.9-2.2 4.9-4.9-2.2-4.9-4.9-4.9zM15.1 18.6c-2 0-3.6-1.6-3.6-3.6s1.6-3.6 3.6-3.6 3.6 1.6 3.6 3.6-1.6 3.6-3.6 3.6zM17 14.3h-1.2v-1.4c0-0.3-0.3-0.6-0.6-0.6s-0.6 0.3-0.6 0.6v2.1c0 0.3 0.3 0.6 0.6 0.6h1.8c0.3 0 0.6-0.3 0.6-0.6 0-0.4-0.3-0.7-0.6-0.7z"></path>
</svg>
<svg id="icon-xinwenfabu" width="20" height="20" viewBox="0 0 20 20" x="360" y="180">
<path fill="#808080" d="M16.3 8.8h-12.5v-5h1.2v3.7h10v-3.7h1.3v5zM13.8 6.2h-3.8v-2.4h1.3v1.2h1.2v-1.2h1.3v2.4zM20 20h-20v-20h16.3v1.3h-15v17.5h17.5v-15h1.2v16.2zM3.8 11.3h12.5v1.2h-12.5v-1.2zM3.8 13.8h12.5v1.2h-12.5v-1.2zM3.8 16.3h12.5v1.2h-12.5v-1.2z"></path>
</svg>
<svg id="icon-yongyinshenqing" width="20" height="20" viewBox="0 0 20 20" x="396" y="180">
<path fill="#808080" d="M5.7 9c0.1 0.2 0.2 0.3 0.3 0.4l0.3 0.3c0.3 0.3 0.3 0.5 0 0.9l-0.2 0.2c-0.1 0-0.2 0.1-0.2 0.2l-0.1 0.1c-0.1 0.1-0.3 0.3-0.4 0.5-0.3 0.5-0.3 1.1 0 1.6s0.7 0.7 1.3 0.7h6.6c0.2 0 0.3 0 0.5-0.1 0.5-0.1 0.8-0.5 1-0.9 0.2-0.5 0.1-1-0.2-1.4-0.1-0.2-0.3-0.4-0.5-0.5l-0.2-0.2c-0.4-0.4-0.4-0.6 0-1.1 0.1-0.4 0.4-0.7 0.6-1 0.9-1.3 1.2-2.7 1-4.2-0.2-1.1-0.6-2-1.3-2.7-0.6-0.7-1.5-1.3-2.5-1.6-0.6-0.1-1.2-0.2-1.8-0.2-1.4 0-2.6 0.5-3.7 1.6-1.3 1.2-1.9 2.7-1.7 4.5 0.1 1 0.5 2 1.2 2.9zM7 2.4c0.4-0.4 0.9-0.7 1.4-0.9s1-0.3 1.5-0.3 0.9 0.1 1.4 0.2c0.8 0.3 1.5 0.7 2 1.2 0.5 0.6 0.8 1.3 1 2.1 0.1 0.6 0.1 1.1 0 1.7-0.2 0.6-0.4 1.1-0.8 1.6-0.2 0.3-0.4 0.5-0.6 0.8-0.8 0.9-0.8 1.8 0.1 2.6 0.1 0.1 0.1 0.2 0.2 0.2l0.4 0.4c0.1 0.1 0.1 0.3 0.1 0.3 0 0.1-0.1 0.2-0.2 0.2h-6.8c-0.2 0-0.2-0.1-0.3-0.1-0.1-0.1-0.1-0.2 0-0.4 0-0.1 0.1-0.2 0.2-0.3l0.6-0.6c0.6-0.7 0.7-1.6 0-2.4-0.1 0.1-0.2 0-0.3-0.1s-0.1-0.2-0.2-0.3c-0.6-0.8-1-1.5-1-2.3-0.1-0.7 0-1.4 0.2-2s0.6-1.1 1.1-1.6zM18.9 16c0-0.4-0.1-0.8-0.4-1.1s-0.7-0.4-1.1-0.4h-14.7c-0.9 0-1.5 0.6-1.5 1.5v2h17.7v-2zM2.3 15.9c0-0.2 0.1-0.3 0.3-0.3h14.7c0.1 0 0.2 0 0.3 0.1s0.1 0.2 0.1 0.3v0.8h-15.4v-0.9zM2.1 18.8h15.8v1.2h-15.8v-1.2z"></path>
</svg>
<svg id="icon-huiyishenqing" width="20" height="20" viewBox="0 0 20 20" x="432" y="180">
<path fill="#808080" d="M14.9 8.3h-1.4c-0.2-1.1-0.9-2-1.9-2.5 0.5-0.5 0.8-1.1 0.8-1.9 0-1.4-1.1-2.5-2.4-2.5s-2.4 1.1-2.4 2.5c0 0.7 0.3 1.4 0.8 1.9-1 0.5-1.7 1.4-1.9 2.5h-1.4c-2.8 0-5.1 2.3-5.1 5.1s2.3 5.1 5.1 5.1h9.7c2.8 0 5.1-2.3 5.1-5.1 0.1-2.8-2.2-5.1-5-5.1zM10 2.5c0.8 0 1.4 0.7 1.4 1.5s-0.6 1.5-1.4 1.5c-0.8 0-1.4-0.7-1.4-1.5 0-0.9 0.6-1.5 1.4-1.5zM10 6.4c1.2 0 2.1 0.8 2.5 1.9h-4.9c0.3-1.1 1.3-1.9 2.4-1.9zM10 15.3c1.3 0 2.3 0.9 2.5 2.2h-5c0.2-1.3 1.2-2.2 2.5-2.2zM8.6 12.8c0-0.8 0.6-1.5 1.4-1.5s1.4 0.7 1.4 1.5-0.6 1.5-1.4 1.5c-0.8 0-1.4-0.7-1.4-1.5zM14.9 17.5h-1.3c-0.1-1.2-0.9-2.3-1.9-2.8 0.5-0.5 0.8-1.1 0.8-1.9 0-1.4-1.1-2.5-2.4-2.5s-2.4 1.1-2.4 2.5c0 0.7 0.3 1.4 0.8 1.9-1.1 0.5-1.8 1.6-1.9 2.8h-1.5c-2.3 0-4.1-1.8-4.1-4.1s1.8-4.1 4.1-4.1h9.7c2.3 0 4.1 1.8 4.1 4.1s-1.8 4.1-4 4.1z"></path>
</svg>
<svg id="icon-shouwenguanli" width="20" height="20" viewBox="0 0 20 20" x="468" y="180">
<path fill="#808080" d="M15.4 13.9l4.6-10.4-2.5-1.1-4.6 10.4 2.5 1.1M17.7 11.6v7.2h-16.5v-17.6h16.5c0.1 0 0.2 0 0.2 0.1l1 0.4v-1.1c0-0.3-0.3-0.6-0.6-0.6h-17.7c-0.3 0-0.6 0.3-0.6 0.6v18.9c0 0.2 0.3 0.5 0.6 0.5h17.8c0.3 0 0.6-0.3 0.6-0.6v-10.5l-1.3 2.7M12.6 13.5l2.5 1.1-2.6 2.5 0.1-3.6zM9.1 10.5h-5.5c-0.3 0-0.6-0.3-0.6-0.6s0.3-0.6 0.6-0.6h5.4c0.3 0 0.6 0.3 0.6 0.6 0.1 0.3-0.2 0.6-0.5 0.6M12.9 6.1h-9.3c-0.3 0-0.6-0.3-0.6-0.6s0.3-0.6 0.6-0.6h9.3c0.3 0 0.6 0.3 0.6 0.6s-0.3 0.6-0.6 0.6M9.1 15h-5.5c-0.3 0-0.6-0.3-0.6-0.6s0.3-0.6 0.6-0.6h5.4c0.3 0 0.6 0.3 0.6 0.6 0.1 0.3-0.2 0.6-0.5 0.6"></path>
</svg>
<svg id="icon-urse" width="20" height="20" viewBox="0 0 20 20" x="504" y="180">
<path fill="#808080" d="M19.2 6.1c-0.5-1.2-1.2-2.3-2.1-3.2s-2-1.6-3.2-2.1c-1.2-0.5-2.6-0.8-3.9-0.8s-2.7 0.3-3.9 0.8c-1.2 0.5-2.3 1.2-3.2 2.1s-1.6 2-2.1 3.2c-0.5 1.2-0.8 2.6-0.8 3.9s0.3 2.7 0.8 3.9c0.5 1.2 1.2 2.3 2.1 3.2s2 1.6 3.2 2.1c1.2 0.5 2.6 0.8 3.9 0.8s2.7-0.3 3.9-0.8c1.2-0.5 2.3-1.2 3.2-2.1s1.6-2 2.1-3.2c0.5-1.2 0.8-2.5 0.8-3.9 0-1.3-0.3-2.7-0.8-3.9zM10 11.2c-2 0-3.6-1.6-3.6-3.6s1.6-3.6 3.6-3.6 3.6 1.6 3.6 3.6-1.6 3.6-3.6 3.6zM6.2 13.5c1.1-0.9 2.4-1.3 3.8-1.3s2.7 0.5 3.8 1.3c1 0.8 1.8 2 2.1 3.3-0.7 0.6-1.5 1.2-2.4 1.5-1.1 0.5-2.3 0.7-3.5 0.7s-2.4-0.2-3.5-0.7c-0.9-0.4-1.7-0.9-2.4-1.5 0.3-1.3 1-2.5 2.1-3.3zM14.4 12.7c-0.6-0.5-1.3-0.9-2-1.1h-0.1c0.6-0.4 1.2-0.9 1.6-1.5 0.5-0.7 0.7-1.6 0.7-2.4 0-2.5-2-4.6-4.6-4.6-2.5 0-4.6 2-4.6 4.6 0 0.9 0.2 1.7 0.7 2.4 0.4 0.6 0.9 1.1 1.6 1.5h-0.1c-0.7 0.3-1.4 0.6-2 1.1-1.1 0.8-1.9 2-2.3 3.2-0.6-0.7-1.2-1.6-1.6-2.5-0.5-1-0.7-2.2-0.7-3.4s0.2-2.4 0.7-3.5c0.5-1.1 1.1-2 1.9-2.9 0.8-0.8 1.8-1.5 2.9-1.9 1.1-0.5 2.3-0.7 3.5-0.7s2.4 0.2 3.5 0.7c1.1 0.5 2 1.1 2.9 1.9 0.8 0.8 1.5 1.8 1.9 2.9 0.5 1.1 0.7 2.3 0.7 3.5s-0.2 2.4-0.7 3.5c-0.4 0.9-0.9 1.7-1.6 2.5-0.4-1.3-1.2-2.5-2.3-3.3z"></path>
</svg>
<svg id="icon-password" width="20" height="20" viewBox="0 0 20 20" x="540" y="180">
<path fill="#808080" d="M10 20c-1.3 0-2.7-0.3-3.9-0.8s-2.3-1.2-3.2-2.1c-0.9-0.9-1.6-2-2.1-3.2s-0.8-2.6-0.8-3.9 0.3-2.7 0.8-3.9c0.5-1.2 1.2-2.3 2.1-3.2s2-1.6 3.2-2.1c1.2-0.5 2.6-0.8 3.9-0.8s2.7 0.3 3.9 0.8c1.2 0.5 2.3 1.2 3.2 2.1s1.6 2 2.1 3.2c0.5 1.2 0.8 2.6 0.8 3.9s-0.3 2.7-0.8 3.9c-0.5 1.2-1.2 2.3-2.1 3.2s-2 1.6-3.2 2.1c-1.2 0.5-2.6 0.8-3.9 0.8zM10 1c-5 0-9 4-9 9s4 9 9 9 9-4 9-9-4-9-9-9zM13 7c0-1.7-1.2-2.9-3-2.9s-3 1.3-3 3v1.4h-0.3c-0.8 0-1.5 0.7-1.5 1.5v4.4c0 0.8 0.7 1.5 1.5 1.5h6.6c0.8 0 1.5-0.7 1.5-1.5v-4.4c0-0.8-0.7-1.5-1.5-1.5h-5.5v-1.4c0-1.3 0.9-2.3 2.2-2.3s2.2 0.8 2.2 2.1c0 0 0 0.3 0.4 0.3 0.3 0.1 0.4-0.2 0.4-0.2zM14.1 14.4c0 0.4-0.3 0.7-0.7 0.7h-6.7c-0.4 0-0.7-0.3-0.7-0.7v-4.4c0-0.4 0.3-0.7 0.7-0.7h6.6c0.4 0 0.7 0.3 0.7 0.7v4.4h0.1zM10 10.7c-0.4 0-0.7 0.3-0.7 0.7 0 0.3 0.1 0.5 0.4 0.6v1.2c0 0.2 0.2 0.4 0.4 0.4s0.4-0.2 0.4-0.4v-1.2c0.2-0.1 0.4-0.4 0.4-0.6-0.2-0.3-0.5-0.7-0.9-0.7z"></path>
</svg>
<svg id="icon-man" width="20" height="20" viewBox="0 0 20 20" x="0" y="216">
<path fill="#808080" d="M7.811 11.542c0.199 0.199 0.896 1.095 2.289 1.095 1.194 0 1.99-0.697 2.289-0.995-0.1-0.299-0.1-0.697 0.1-1.194 1.194-1.294 2.289-3.383 2.289-5.473-0.199-3.284-2.289-4.975-4.776-4.975s-4.577 1.692-4.577 4.876c0 2.090 0.896 4.179 2.289 5.473 0.199 0.498 0.199 0.896 0.1 1.194zM13.184 12.239s-0.796 3.682-1.891 5.771c-0.398-1.592-0.995-2.985-0.995-2.985s0.896-0.299 0.896-0.896c0-0.697-1.095-1.095-1.095-1.095s-1.194 0.199-1.194 1.095c0 0.498 0.896 0.896 0.896 0.896s-0.597 1.393-0.995 2.886c-0.995-1.99-1.791-5.572-1.791-5.572-2.587 0.896-5.373 2.587-5.373 4.279v0.597c0 2.289 4.378 2.786 8.557 2.786s8.458-0.498 8.458-2.786v-0.597c-0.1-1.791-2.886-3.483-5.473-4.378z"></path>
</svg>
<svg id="icon-woman" width="20" height="20" viewBox="0 0 20 20" x="36" y="216">
<path fill="#808080" d="M12.4 12.8v-0.3h3.6v-7.1c0-3-2.7-5.4-6-5.4s-6 2.4-6 5.4v7.1h3.6v0.3l-7.1 4.6v2.6h19v-2.5l-7.1-4.7zM12.6 17.3c-1.7 1.7-2.6-0.9-2.6-0.9s-0.9 2.5-2.6 0.9c0 0-0.8-0.5-0.8-3.8l3.5 2.9 3.5-2.9c-0.2 3.3-1 3.8-1 3.8z"></path>
</svg>
<svg id="icon-checkbox" width="20" height="20" viewBox="0 0 20 20" x="72" y="216">
<path fill="#808080" d="M17 0h-14c-1.7 0-3 1.3-3 3v14c0 1.6 1.3 3 3 3h14c1.7 0 3-1.4 3-3v-14c0-1.7-1.3-3-3-3zM12.2 11.7c-2.3 2.5-3.1 4.3-3.1 4.3s-1-1.1-2.1-2.4c-1.1-1.3-3-1.9-3-1.9l3.3-2.3 1.6 3.4s0.4-1.5 2.8-4.9c2.3-3.5 4.1-3.9 4.1-3.9s-0.1 1.2 0 2.6c0 0.9 0.2 1.9 0.2 1.9s-1.6 0.8-3.8 3.2z"></path>
</svg>
<svg id="icon-checkbox_" width="20" height="20" viewBox="0 0 20 20" x="108" y="216">
<path fill="#808080" d="M17 0h-14c-1.7 0-3 1.3-3 3v14c0 1.6 1.3 3 3 3h14c1.7 0 3-1.4 3-3v-14c0-1.7-1.3-3-3-3zM18.5 16c0 1.4-1.1 2.5-2.5 2.5h-12c-1.4 0-2.5-1.2-2.5-2.5v-12c0-1.4 1.1-2.5 2.5-2.5h12c1.4 0 2.5 1.1 2.5 2.5v12zM12.2 11.7c-2.3 2.5-3.1 4.3-3.1 4.3s-1-1.1-2.1-2.4-3-1.9-3-1.9l3.3-2.3 1.6 3.4s0.4-1.5 2.8-4.9c2.3-3.5 4.1-3.9 4.1-3.9s-0.1 1.2 0 2.6c0 0.9 0.2 1.9 0.2 1.9s-1.6 0.8-3.8 3.2z"></path>
</svg>
<svg id="icon-radio" width="20" height="20" viewBox="0 0 20 20" x="144" y="216">
<path fill="#808080" d="M10 0c-5.5 0-10 4.5-10 10s4.5 10 10 10 10-4.5 10-10-4.5-10-10-10zM16.1 16.1c-0.8 0.8-1.7 1.4-2.7 1.8-1.1 0.4-2.2 0.7-3.3 0.7s-2.3-0.2-3.3-0.7c-1-0.4-1.9-1.1-2.7-1.8-0.8-0.8-1.4-1.7-1.8-2.7-0.4-1.1-0.7-2.2-0.7-3.3s0.2-2.3 0.7-3.3c0.4-1 1.1-1.9 1.8-2.7 0.8-0.8 1.7-1.4 2.7-1.8 0.9-0.7 2-0.9 3.2-0.9s2.3 0.2 3.3 0.7c1 0.4 1.9 1.1 2.7 1.8 0.8 0.8 1.4 1.7 1.8 2.7 0.4 1.1 0.7 2.2 0.7 3.3s-0.2 2.3-0.7 3.3c-0.3 1.2-0.9 2.1-1.7 2.9zM5.5 10c0 2.5 2 4.5 4.5 4.5s4.5-2 4.5-4.5-2-4.5-4.5-4.5-4.5 2-4.5 4.5"></path>
</svg>
<svg id="icon-radio_" width="20" height="20" viewBox="0 0 20 20" x="180" y="216">
<path fill="#808080" d="M10 0c-5.5 0-10 4.5-10 10s4.5 10 10 10 10-4.5 10-10-4.5-10-10-10zM16.1 16.1c-0.8 0.8-1.7 1.4-2.7 1.8-1.1 0.4-2.2 0.7-3.3 0.7s-2.3-0.2-3.3-0.7c-1-0.4-1.9-1.1-2.7-1.8-0.8-0.8-1.4-1.7-1.8-2.7-0.4-1.1-0.7-2.2-0.7-3.3s0.2-2.3 0.7-3.3c0.4-1 1.1-1.9 1.8-2.7 0.8-0.8 1.7-1.4 2.7-1.8 0.9-0.7 2-0.9 3.2-0.9s2.3 0.2 3.3 0.7c1 0.4 1.9 1.1 2.7 1.8 0.8 0.8 1.4 1.7 1.8 2.7 0.4 1.1 0.7 2.2 0.7 3.3s-0.2 2.3-0.7 3.3c-0.3 1.2-0.9 2.1-1.7 2.9z"></path>
</svg>
<svg id="icon-checkbox_1" width="20" height="20" viewBox="0 0 20 20" x="216" y="216">
<path fill="#808080" d="M17 0h-14c-1.7 0-3 1.3-3 3v14c0 1.6 1.3 3 3 3h14c1.7 0 3-1.4 3-3v-14c0-1.7-1.3-3-3-3zM18.5 16c0 1.4-1.1 2.5-2.5 2.5h-12c-1.4 0-2.5-1.2-2.5-2.5v-12c0-1.4 1.1-2.5 2.5-2.5h12c1.4 0 2.5 1.1 2.5 2.5v12z"></path>
</svg>
<svg id="icon-style" width="20" height="20" viewBox="0 0 20 20" x="252" y="216">
<path fill="#808080" d="M5.6 10c0 2.4 1.9 4.3 4.4 4.3v-8.7c-2.4 0-4.4 2-4.4 4.4zM10 0c-5.5 0-10 4.5-10 10s4.5 10 10 10 10-4.5 10-10-4.5-10-10-10zM10 15.5c-3 0-5.5-2.5-5.5-5.5s2.5-5.5 5.5-5.5 5.5 2.5 5.5 5.5-2.5 5.5-5.5 5.5z"></path>
</svg>
<svg id="icon-Preservation" width="20" height="20" viewBox="0 0 20 20" x="288" y="216">
<path fill="#808080" d="M6.6 5.5h6.8v4.5h-6.8zM10 0c-5.5 0-10 4.5-10 10s4.5 10 10 10 10-4.5 10-10-4.5-10-10-10zM9.3 15h-1.2v-2h1.2v2zM15 14.8c0 0.1-0.1 0.2-0.2 0.2h-3v-2.9h-4.6v2.9h-0.7l-1.5-1.5v-8.3c0-0.1 0.1-0.2 0.2-0.2h9.5c0.2 0 0.3 0.1 0.3 0.2v9.6z"></path>
</svg>
<svg id="icon-open" width="20" height="20" viewBox="0 0 20 20" x="324" y="216">
<path fill="#808080" d="M10 0c-5.5 0-10 4.5-10 10s4.5 10 10 10 10-4.5 10-10-4.5-10-10-10zM10.1 5l3.3 3.3h-3.3v-3.3zM13.6 15h-7.2v-10h3.3v3.8h4v6.2z"></path>
</svg>
<svg id="icon-preview" width="20" height="20" viewBox="0 0 20 20" x="360" y="216">
<path fill="#808080" d="M10 0c-5.5 0-10 4.5-10 10s4.5 10 10 10 10-4.5 10-10-4.5-10-10-10zM10 14.1c-3.3 0-6-4-6-4.1s2.7-4.1 6-4.1 6.1 4.2 6 4.1c0 0-2.7 4.1-6 4.1zM10 7.2c-1.4 0-2.5 1.2-2.5 2.7s1.1 2.7 2.5 2.7 2.5-1.2 2.5-2.7c0-1.5-1.1-2.7-2.5-2.7zM10 11.1c-0.7 0-1.2-0.6-1.2-1.3s0.5-1.3 1.2-1.3 1.2 0.6 1.2 1.3c0 0.8-0.6 1.3-1.2 1.3z"></path>
</svg>
<svg id="icon-Save" width="20" height="20" viewBox="0 0 20 20" x="396" y="216">
<path fill="#808080" d="M10 0c-5.5 0-10 4.5-10 10s4.5 10 10 10 10-4.5 10-10-4.5-10-10-10zM6.2 12.5h-1v-7c0-0.6 0.4-1 1-1h6v1h-6v7zM14.7 14.5c0 0.6-0.3 1-0.9 1h-5.6c-0.5 0-1-0.4-1-1v-7c0-0.6 0.4-1 1-1h5.5c0.6 0 1 0.4 1 1v7z"></path>
</svg>
<svg id="icon-Preservation_" width="20" height="20" viewBox="0 0 20 20" x="432" y="216">
<path fill="#808080" d="M6.3 10.1v3.6h7.3v-3.6c0-0.1-0.1-0.2-0.2-0.2h-7c-0.1 0-0.1 0.1-0.1 0.2zM11.9 10.5c0-0.1 0.1-0.2 0.2-0.2h0.9c0.1 0 0.2 0.1 0.2 0.2v0.9c0 0.1-0.1 0.2-0.2 0.2h-1c-0.1 0-0.2-0.1-0.2-0.2v-0.9zM6.4 7.9h4.9c0.1 0 0.2-0.1 0.2-0.2v-1.2c0-0.1-0.1-0.2-0.2-0.2h-4.9c-0.1 0-0.2 0.1-0.2 0.2v1.2c0.1 0.1 0.1 0.2 0.2 0.2zM10 0c-5.5 0-10 4.5-10 10s4.5 10 10 10 10-4.5 10-10-4.5-10-10-10zM15 14.2c0 0.4-0.3 0.8-0.8 0.8h-8.4c-0.5 0-0.8-0.3-0.8-0.8v-8.4c0-0.5 0.3-0.8 0.8-0.8h6.8l2.4 2.4v6.8z"></path>
</svg>
<svg id="icon-simulation" width="20" height="20" viewBox="0 0 20 20" x="468" y="216">
<path fill="#808080" d="M13.9 7.6h-7.8c-0.3 0-0.5 0.2-0.5 0.5v5.2c0 0.3 0.2 0.5 0.5 0.5h7.7c0.3 0 0.5-0.2 0.5-0.5v-5.2c0.1-0.3-0.2-0.5-0.4-0.5zM7.5 12.1c-0.3 0-0.5-0.2-0.5-0.5s0.2-0.5 0.5-0.5 0.5 0.2 0.5 0.5-0.2 0.5-0.5 0.5zM7.5 10.2c-0.3 0-0.5-0.3-0.5-0.5s0.2-0.5 0.5-0.5 0.5 0.2 0.5 0.5-0.2 0.5-0.5 0.5zM12.7 12.1h-3.3c-0.3 0-0.5-0.2-0.5-0.5s0.2-0.5 0.5-0.5h3.4c0.3 0 0.5 0.2 0.5 0.5s-0.3 0.5-0.6 0.5zM12.7 10.1h-3.3c-0.3 0-0.5-0.2-0.5-0.5s0.2-0.5 0.5-0.5h3.4c0.3 0 0.5 0.2 0.5 0.5-0.1 0.3-0.3 0.5-0.6 0.5zM10 0c-5.5 0-10 4.5-10 10s4.5 10 10 10 10-4.5 10-10-4.5-10-10-10zM14.4 14.5h-8.7s-0.7 0.1-0.7-0.8v-7.4s0-0.8 0.9-0.8h3s0.4-0.1 0.7 0.4c0.3 0.5 0.4 0.7 0.4 0.7s0.1 0.1 0.4 0.1h3.9s0.7 0 0.7 0.8v6.3c0-0.1 0.1 0.7-0.6 0.7z"></path>
</svg>
<svg id="icon-Release" width="20" height="20" viewBox="0 0 20 20" x="504" y="216">
<path fill="#808080" d="M10 0c-5.5 0-10 4.5-10 10s4.5 10 10 10 10-4.5 10-10-4.5-10-10-10zM4.6 8.2c-0.1-0.1-0.1-0.3-0.1-0.4 0-0.2 0.1-0.3 0.2-0.4 0.2-0.2 0.6-0.2 0.8 0.1l0.3 0.4-0.8 0.6-0.4-0.3zM6.1 8l2.9 3.3 0.2 0.5 0.5 1.2-1.2-0.7-0.5-0.3-2.8-3.2 0.9-0.8zM12.9 10.7s0.1 0.1 0 0l0.1 0.6s0 0.1-0.1 0.1h-3.2l-0.2-0.4c0-0.1-0.1-0.1-0.1-0.2l-0.1-0.2 3.6 0.1zM12.9 12s0.1 0 0 0l0.1 0.6s0 0.1-0.1 0.1h-2.7l-0.3-0.7h3zM12.9 10.2h-4.5s-0.1 0-0.1-0.1v-0.6s0-0.1 0.1-0.1h4.5s0.1 0 0.1 0.1l-0.1 0.7c0.1-0.1 0 0 0 0zM11 8.1c0 0.1-0.1 0.1 0 0l-2.6 0.1s-0.1 0-0.1-0.1v-0.5s0-0.1 0.1-0.1h2.5s0.1 0 0.1 0.1v0.5zM14.5 13.9c0 0.4-0.3 0.7-0.7 0.7h-6.4c-0.4 0-0.7-0.3-0.7-0.7v-2.5l0.9 1v1.3h6.1v-5.4h-1.2c-0.4 0-0.7-0.3-0.7-0.7v-1.3h-4.2v2.5l-0.9-1v-1.7c0-0.4 0.3-0.7 0.7-0.7h4.6c0.2 0 0.4 0.2 0.4 0.2l1.9 1.9s0.2 0.2 0.2 0.4v6z"></path>
</svg>
<svg id="icon-shouquan" width="20" height="20" viewBox="0 0 20 20" x="540" y="216">
<path fill="#808080" d="M19.1 6.7l-8.5 8.5c-0.2 0.2-0.6 0.2-0.8 0l-0.1-0.2-4.7-4.7c-0.2-0.2-0.2-0.6 0-0.8l1.2-1.2c0.2-0.2 0.6-0.2 0.8 0l3.3 3.3 6.9-6.9c0.2-0.2 0.6-0.2 0.8 0l1.1 1.3c0.2 0.2 0.2 0.5 0 0.7M14.2 4.1c-0.8-0.7-0.9-2.1-0.9-2.1s-2-0.4-4-0.4-4 0.4-4 0.4-0.1 1.3-0.9 2c-0.7 0.8-2.1 0.9-2.1 0.9s-0.2 2.6 0 4.9c0.2 2.2 0.8 4.4 2.8 6.1 1.7 1.4 4.1 2.4 4.1 2.4s1.9-0.9 3.4-1.8c1.6-1 3-2.4 3.5-5.1v-0.3l1.6-1.6c-0.1 0.8-0.1 1.5-0.3 2.2-0.5 3.2-2.3 4.9-4.2 6.1-1.6 1.2-3.9 2.2-3.9 2.2s-3-1.3-5-3c-2.4-2-3.1-4.7-3.4-7.3-0.3-2.7-0.1-5.8-0.1-5.8s1.7-0.1 2.7-1c0.9-0.9 1.1-2.5 1.1-2.5s2.4-0.4 4.7-0.4c2.4 0 4.8 0.4 4.8 0.4s0.1 1.6 1.1 2.5c0.4 0.4 1 0.6 1.5 0.7l-1.2 1.1c-0.4 0-0.9-0.2-1.3-0.6"></path>
</svg>
<svg id="icon-pifu" width="20" height="20" viewBox="0 0 20 20" x="0" y="252">
<path fill="#808080" d="M10.1 3.6c1.2 0 2.3-0.8 2.6-2 1.4 0.4 4.2 1.2 7.3 3.5l-2.4 4.5-2-0.5v9.2h-11.2v-9.1l-2 0.5-2.4-4.6c3.3-2.5 6.4-3.3 7.6-3.5 0.3 1.2 1.3 2 2.5 2z"></path>
</svg>
<svg id="icon-gengduo" width="20" height="20" viewBox="0 0 20 20" x="36" y="252">
<path fill="#808080" d="M10 0c-5.5 0-10 4.5-10 10s4.5 10 10 10 10-4.5 10-10-4.5-10-10-10zM4.5 11.8c-1 0-1.8-0.8-1.8-1.8s0.8-1.8 1.8-1.8 1.8 0.8 1.8 1.8c0.1 1-0.8 1.8-1.8 1.8zM10 11.8c-1 0-1.8-0.8-1.8-1.8s0.8-1.8 1.8-1.8 1.8 0.8 1.8 1.8-0.8 1.8-1.8 1.8zM15.5 11.8c-1 0-1.8-0.8-1.8-1.8s0.8-1.8 1.8-1.8 1.8 0.8 1.8 1.8-0.8 1.8-1.8 1.8z"></path>
</svg>
<svg id="icon-qiehuan_admin" width="20" height="20" viewBox="0 0 20 20" x="72" y="252">
<path fill="#808080" d="M12.4 4.3c-0.3-0.3-0.7-0.3-1 0s-0.3 0.7 0 1l1.9 1.9h-8.3c-0.4 0-0.7 0.3-0.7 0.7s0.3 0.7 0.7 0.7h10c0.1 0 0.7 0 0.7-0.7 0-0.4-0.1-0.6-0.1-0.6l-3.2-3zM15 11.4h-10c-0.1 0-0.7 0-0.7 0.7 0 0.4 0.1 0.6 0.1 0.6l3.1 3c0.3 0.3 0.7 0.3 1 0s0.3-0.7 0-1l-1.9-1.9h8.4c0.4 0 0.7-0.3 0.7-0.7s-0.3-0.7-0.7-0.7zM10 0c-5.6 0-10 4.4-10 10s4.4 10 10 10 10-4.4 10-10-4.4-10-10-10zM10 18.6c-4.7 0-8.6-3.9-8.6-8.6s3.9-8.6 8.6-8.6 8.6 3.9 8.6 8.6-3.9 8.6-8.6 8.6z"></path>
</svg>
<svg id="icon-shoucang_wenjian" width="20" height="20" viewBox="0 0 20 20" x="108" y="252">
<path fill="#808080" d="M8.5 10h6.8c0.4 0 0.7-0.3 0.7-0.6s-0.3-0.6-0.7-0.6h-6.8c-0.4 0-0.7 0.3-0.7 0.6s0.3 0.6 0.7 0.6zM8.5 12.3h6.8c0.4 0 0.7-0.3 0.7-0.6s-0.3-0.6-0.7-0.6h-6.8c-0.4 0-0.7 0.3-0.7 0.6-0.1 0.4 0.3 0.6 0.7 0.6zM8.5 14.5h6.8c0.4 0 0.7-0.3 0.7-0.6s-0.3-0.6-0.7-0.6h-6.8c-0.4 0-0.7 0.3-0.7 0.6-0.1 0.3 0.3 0.6 0.7 0.6zM17.8 3.5l-2.6-2.5c-0.6-0.6-1.6-1-2.4-1h-6.4c-0.8 0-1.4 0.6-1.4 1.4v15.3c0 0.8 0.6 1.4 1.4 1.4h11c0.8 0 1.4-0.6 1.4-1.4v-10.7c0-0.8-0.5-1.9-1-2.5zM17.6 16.8c0 0.2-0.1 0.3-0.3 0.3h-11c-0.2 0-0.3-0.1-0.3-0.3v-15.4c0-0.2 0.1-0.3 0.3-0.3h6.7v4.5h4.5v11.2h0.1zM5.4 1.8h-2.8c-0.8 0-1.4 0.6-1.4 1.4v15.3c0 0.8 0.6 1.4 1.4 1.4h11c0.8 0 1.4-0.6 1.4-1.4 0 0 0.2-1.2-0.5-1-0.2 0-0.6-0.1-0.6 1 0 0.2-0.1 0.3-0.3 0.3h-11c-0.2 0-0.3-0.1-0.3-0.3v-15.3c0.1-0.1 0.2-0.2 0.3-0.2h2.7c1-0.6 0.1-1.2 0.1-1.2z"></path>
</svg>
<svg id="icon-qiehuan_qianhoutai" width="20" height="20" viewBox="0 0 20 20" x="144" y="252">
<path fill="#808080" d="M4 20v-2h14v-14h2v16h-16zM2 15h5.9v2h-7.9v-17h17v6.9h-2v-4.9h-13v13zM11 4l-0.1 2.3h-2l6.1 6.6v-2.9h2v6h-6v-2h2.1l-5.8-6.7v2.6h-2.3v-5.9h6z"></path>
</svg>
<svg id="icon-dengpao" width="20" height="20" viewBox="0 0 20 20" x="180" y="252">
<path fill="#808080" d="M3.5 7.9h-1.3c-0.2 0-0.3 0.1-0.3 0.2 0 0.2 0.1 0.3 0.3 0.3h1.3c0.2 0 0.3-0.1 0.3-0.3-0.1-0.1-0.2-0.2-0.3-0.2zM4.6 2.4c-0.1-0.1-0.3-0.1-0.4 0s-0.1 0.3 0 0.4l0.9 0.9c0.1 0.1 0.3 0.1 0.4 0s0.1-0.3 0-0.4l-0.9-0.9zM10 1.8c0.2 0 0.3-0.1 0.3-0.3v-1.2c-0.1-0.2-0.2-0.3-0.3-0.3-0.2 0-0.3 0.1-0.3 0.3v1.3c0 0.1 0.1 0.2 0.3 0.2zM15.3 2.3l-0.9 0.9c-0.1 0.1-0.1 0.3 0 0.4s0.3 0.1 0.4 0l0.9-0.9c0.1-0.1 0.1-0.3 0-0.4s-0.3-0.1-0.4 0zM17.8 7.8h-1.3c-0.2 0-0.3 0.1-0.3 0.3s0.1 0.3 0.3 0.3h1.3c0.2 0 0.3-0.1 0.3-0.3s-0.1-0.3-0.3-0.3zM8.3 19.2h3.6c0.2-0.3 0.3-0.6 0.3-1.1h-4.5c0 0.4 0.3 0.7 0.6 1.1zM8.3 19.5c0.1 0.1 1.2 0.5 1.8 0.5 0.8 0 1.6-0.4 1.8-0.5h-3.6zM10 4.1c-2.9 0-5.2 2.3-5.2 5.2 0 1.2 0.4 2.3 1 3.1 0.6 1.1 1.5 3 1.8 4.9v0.1h4.7v-0.1c0.4-2 1.3-4 1.9-5.1 0.6-0.8 0.9-1.9 0.9-3 0.1-2.8-2.2-5.1-5.1-5.1zM12.7 8.8c-0.2 0-0.4-0.2-0.4-0.4 0-0.6-0.2-1-0.6-1.4s-0.9-0.6-1.3-0.6c-0.2 0-0.4-0.2-0.4-0.4s0.2-0.4 0.4-0.4c0.7 0 1.3 0.2 1.9 0.7s0.8 1.2 0.8 2c0 0.3-0.1 0.5-0.4 0.5z"></path>
</svg>
<svg id="icon-banben" width="20" height="20" viewBox="0 0 20 20" x="216" y="252">
<path fill="#808080" d="M10 0c-5.5 0-10 4.5-10 10s4.5 10 10 10 10-4.5 10-10c0-1.3-0.3-2.7-0.8-3.9h-2.4c0.7 1.2 1.1 2.5 1.1 3.9 0 4.3-3.5 7.8-7.8 7.8s-7.8-3.5-7.8-7.8 3.5-7.8 7.7-7.8c0.6 0 1.1-0.5 1.1-1.1s-0.5-1.1-1.1-1.1zM12.3 6.1l-2.1 6.7c-0.1 0.3-0.2 0.6-0.2 1 0-0.3-0.1-0.6-0.2-0.9l-2-6.7h-2.2l3.2 9.5h2.3l3.3-9.5c0-0.1 0.2-1 1-1.1 0.8 0 1.3 1.1 1.3 1.1h2.5c-0.9-2.3-2.3-3-3.5-3-2.3 0-2.9 1.7-3.3 2.9-0.1-0.1-0.1 0-0.1 0z"></path>
</svg>
<svg id="icon-xiazai" width="20" height="20" viewBox="0 0 20 20" x="252" y="252">
<path fill="#808080" d="M17 7h-4v-6.1c0-0.4-0.3-0.8-0.6-0.9h-4.4c-0.5 0-0.8 0.2-1 0.6v6.3h-4c-0.5 0.1-0.9 0.5-0.9 1 0 0.2 0 0.3 0.1 0.5 0 0.1 0.1 0.1 0.1 0.2l6.5 7.9c0.2 0.2 0.5 0.3 0.8 0.3 0.3 0.1 0.7 0 0.9-0.2l7.1-7.9c0.1-0.1 0.2-0.2 0.2-0.3 0.1-0.1 0.1-0.3 0.1-0.4 0-0.7-0.4-1-0.9-1zM9.7 14.7l-4.8-5.9h3.1c0.4-0.1 0.8-0.4 0.8-0.9v-6h2.3v6c0 0.4 0.2 0.7 0.6 0.8 0.1 0.1 0.2 0.1 0.4 0.1h2.9l-5.3 5.9zM16.3 18.1h-12.6c-0.5 0-0.9 0.4-0.9 0.9s0.4 1 0.9 1h12.6c0.5 0 0.9-0.4 0.9-0.9s-0.4-1-0.9-1z"></path>
</svg>
<svg id="icon-book" width="20" height="20" viewBox="0 0 20 20" x="288" y="252">
<path fill="#808080" d="M17.958 3.833c-0.25-0.208-0.833-0.458-2.167-0.458-0.583 0-1.25 0.042-2 0.167-2.167 0.292-3.208 0.792-3.708 1.125-0.5-0.333-1.542-0.833-3.708-1.125-0.75-0.083-1.417-0.167-2-0.167-1.5 0-2.083 0.333-2.208 0.458-0.375 0.25-0.625 0.75-0.625 1.208v9.458c0 0.583 0.458 1.083 1.042 1.083 0.083 0 0.208 0 0.292-0.042 0 0 0.625-0.167 1.792-0.167 0.458 0 0.917 0.042 1.375 0.083 2.417 0.25 3.25 0.875 3.25 0.875 0.208 0.208 0.5 0.292 0.792 0.292 0.25 0 0.5-0.083 0.708-0.208 0 0 0.833-0.542 3.333-0.958 0.417-0.083 0.833-0.083 1.25-0.083 1.042 0 1.833 0.208 1.833 0.208 0.083 0.042 0.208 0.042 0.292 0.042 0.208 0 0.5-0.083 0.75-0.375 0.167-0.208 0.167-0.5 0.167-0.667v-9.542c0.042-0.167 0-0.833-0.458-1.208zM17.625 14.5c0 0.167 0 0.167-0.042 0.208-0.083 0.083-0.083 0.042-0.125 0.042 0 0-0.875-0.25-2.083-0.25-0.458 0-0.958 0.042-1.375 0.125-2.708 0.458-3.583 1.042-3.708 1.125s-0.292 0.083-0.458-0.042c-0.083-0.083-1.042-0.833-3.708-1.083-0.5-0.042-1-0.083-1.458-0.083-1.333 0-2 0.208-2 0.208h-0.083c-0.125 0-0.208-0.125-0.208-0.25v-9.458c0-0.208 0.125-0.458 0.25-0.542 0 0 0.417-0.292 1.708-0.292 0.542 0 1.208 0.042 1.917 0.167 2.083 0.292 2.958 0.75 3.333 1v6.25c0 0.25 0.167 0.417 0.417 0.417s0.417-0.167 0.417-0.417v-6.167c0.208-0.208 1.083-0.792 3.458-1.083 0.708-0.083 1.375-0.167 1.917-0.167 1.292 0 1.625 0.25 1.625 0.292 0.125 0.083 0.208 0.333 0.208 0.542v9.458zM9.375 13.333c0 0.345 0.28 0.625 0.625 0.625s0.625-0.28 0.625-0.625c0-0.345-0.28-0.625-0.625-0.625s-0.625 0.28-0.625 0.625z"></path>
</svg>
</svg>
