<?xml version="1.0" standalone="no"?><!DOCTYPE svg PUBLIC "-//W3C//DTD SVG 1.1//EN" "http://www.w3.org/Graphics/SVG/1.1/DTD/svg11.dtd">
<svg t="1586520526368" class="icon" viewBox="0 0 1072 1024" version="1.1" xmlns="http://www.w3.org/2000/svg" p-id="15485" xmlns:xlink="http://www.w3.org/1999/xlink" width="209.375" height="200">
	<defs>
		<style type="text/css">
		</style>
	</defs>
	<path d="M737.401905 272.822857c90.209524 6.826667 168.399238 72.996571 186.489905 166.095238 14.019048 72.155429-11.459048 142.823619-61.379048 189.647238l17.93219 24.685715a41.142857 41.142857 0 0 1 33.950477 16.981333l106.520381 146.602667a41.191619 41.191619 0 0 1-64.146286 51.541333 41.191619 41.191619 0 0 0 15.37219-61.293714L865.645714 660.48a41.020952 41.020952 0 0 0-23.296-15.737905l-22.881524-31.50019a206.908952 206.908952 0 0 0 50.822096-85.589334 155.550476 155.550476 0 0 0 7.594666-37.912381c2.03581-19.72419 1.243429-40.094476-2.742857-60.574476-14.726095-75.78819-69.278476-133.729524-137.728-156.342857z m-80.079238 401.030095c17.968762 1.353143 36.412952 0.365714 54.954666-3.242666a205.433905 205.433905 0 0 0 70.363429-27.769905l14.640762 20.163048a41.106286 41.106286 0 0 0-3.937524 8.326095c-10.337524 3.82781-21.126095 6.863238-32.304762 9.020952-35.84 6.985143-71.338667 4.193524-103.716571-6.497524zM65.828571 924.038095h887.466667a14.628571 14.628571 0 1 1 0 29.257143H65.828571a14.628571 14.628571 0 1 1 0-29.257143z m321.828572 68.266667h409.6a14.628571 14.628571 0 1 1 0 29.257143H387.657143a14.628571 14.628571 0 1 1 0-29.257143zM36.571429 75.580952A34.133333 34.133333 0 1 0 36.571429 7.314286a34.133333 34.133333 0 0 0 0 68.266666z m1004.495238 614.4a24.380952 24.380952 0 1 0 0-48.761904 24.380952 24.380952 0 0 0 0 48.761904zM182.00381 131.169524h-58.636191a16.579048 16.579048 0 0 0-16.579048 16.579047v655.36c0 9.155048 7.424 16.579048 16.579048 16.579048h537.234286a16.579048 16.579048 0 0 0 16.579047-16.579048v-57.539047H212.23619a30.232381 30.232381 0 0 1-30.23238-30.232381V131.169524z" fill="#F0F1F3" p-id="15486"></path>
	<path d="M766.037333 272.664381V61.561905a18.407619 18.407619 0 0 0-18.578285-18.249143h-218.819048v-13.653333h218.819048c17.785905 0 32.219429 14.262857 32.219428 31.902476l0.012191 217.490285c56.112762 28.769524 98.937905 82.090667 111.908571 148.796953a212.540952 212.540952 0 0 1-59.087238 191.744l12.458667 17.152c14.165333 0.853333 27.37981 7.92381 35.937523 19.712L987.428571 803.072a48.018286 48.018286 0 1 1-77.689904 56.441905L803.230476 712.911238a47.932952 47.932952 0 0 1-7.558095-40.533333l-12.01981-16.542476a212.687238 212.687238 0 0 1-60.306285 21.479619c-115.346286 22.418286-227.023238-52.906667-249.441524-168.252953a217.234286 217.234286 0 0 1-0.329143-1.731047H270.872381v-63.804953h200.496762c3.096381-26.209524 11.032381-51.297524 23.05219-74.118095H270.884571v-63.804952h274.895239a211.797333 211.797333 0 0 1 96.365714-45.994667c43.324952-8.411429 86.137905-3.047619 123.891809 13.043809z m-234.995809 46.592h-246.491429v36.498286h217.721905a213.894095 213.894095 0 0 1 28.769524-36.498286z m-60.818286 137.923048H284.537905v36.498285h186.928762a212.345905 212.345905 0 0 1-1.243429-36.498285zM677.180952 745.569524H212.248381a30.232381 30.232381 0 0 1-30.232381-30.232381V131.169524H123.367619a16.579048 16.579048 0 0 0-16.579048 16.579047v655.36c0 9.155048 7.424 16.579048 16.579048 16.579048h537.234286a16.579048 16.579048 0 0 0 16.579047-16.579048v-57.539047z m13.653334 0v57.539047a30.232381 30.232381 0 0 1-30.232381 30.232381H123.367619a30.232381 30.232381 0 0 1-30.232381-30.232381V147.748571a30.232381 30.232381 0 0 1 30.232381-30.232381h58.636191V61.647238c0-17.639619 14.445714-31.902476 32.231619-31.902476h391.533714v13.653333H214.235429a18.407619 18.407619 0 0 0-18.566096 18.249143v652.01981c0 10.057143 8.289524 18.249143 18.566096 18.249142h533.248a18.407619 18.407619 0 0 0 18.566095-18.249142v-34.364953l13.653333-3.486476v37.851429c0 17.639619-14.445714 31.902476-32.219428 31.902476h-56.661334zM284.537905 205.287619H639.268571v-36.498286H284.537905v36.498286z m368.384-50.151619v63.804952H270.884571v-63.804952H652.921905z m161.523809 462.823619l4.388572-4.120381a198.92419 198.92419 0 0 0 59.355428-183.369143c-20.97981-107.946667-125.500952-178.44419-233.447619-157.45219-107.934476 20.967619-178.432 125.488762-157.45219 233.435428s125.500952 178.432 233.447619 157.452191a198.826667 198.826667 0 0 0 61.45219-22.893714l5.327238-3.072 23.28381 32.048761-1.182476 3.364572a34.304 34.304 0 0 0 4.644571 31.524571l106.520381 146.614857a34.364952 34.364952 0 1 0 55.588572-40.387047l-106.508191-146.614857a34.304 34.304 0 0 0-28.330667-14.165334l-3.535238 0.048762-23.56419-32.426666z m-100.547047 10.837333c-88.539429 17.212952-174.287238-40.618667-191.500191-129.170285-17.212952-88.551619 40.618667-174.287238 129.170286-191.512381 88.551619-17.200762 174.287238 40.630857 191.512381 129.182476 17.200762 88.551619-40.630857 174.287238-129.182476 191.50019z m-2.596572-13.409523c81.13981-15.774476 134.144-94.342095 118.369524-175.494096-15.774476-81.13981-94.354286-134.144-175.494095-118.369523-81.152 15.774476-134.144 94.354286-118.369524 175.494095 15.774476 81.152 94.342095 134.144 175.494095 118.369524z" fill="#C4C8CF" p-id="15487"></path>
</svg>