<?xml version="1.0" standalone="no"?>
<!DOCTYPE svg PUBLIC "-//W3C//DTD SVG 1.1//EN" "http://www.w3.org/Graphics/SVG/1.1/DTD/svg11.dtd" >
<svg xmlns="http://www.w3.org/2000/svg">
<metadata>
Created by FontForge 20120731 at Thu May 11 15:05:11 2017
 By admin
</metadata>
<defs>
<font id="iconfont" horiz-adv-x="1024" >
  <font-face 
    font-family="iconfont"
    font-weight="500"
    font-stretch="normal"
    units-per-em="1024"
    panose-1="2 0 6 3 0 0 0 0 0 0"
    ascent="896"
    descent="-128"
    x-height="792"
    bbox="0 -128 1029 896"
    underline-thickness="0"
    underline-position="0"
    unicode-range="U+0078-E7D8"
  />
<missing-glyph 
 />
    <glyph glyph-name=".notdef" 
 />
    <glyph glyph-name=".notdef" 
 />
    <glyph glyph-name=".null" horiz-adv-x="0" 
 />
    <glyph glyph-name="nonmarkingreturn" horiz-adv-x="341" 
 />
    <glyph glyph-name="x" unicode="x" horiz-adv-x="1001" 
d="M281 543q-27 -1 -53 -1h-83q-18 0 -36.5 -6t-32.5 -18.5t-23 -32t-9 -45.5v-76h912v41q0 16 -0.5 30t-0.5 18q0 13 -5 29t-17 29.5t-31.5 22.5t-49.5 9h-133v-97h-438v97zM955 310v-52q0 -23 0.5 -52t0.5 -58t-10.5 -47.5t-26 -30t-33 -16t-31.5 -4.5q-14 -1 -29.5 -0.5
t-29.5 0.5h-32l-45 128h-439l-44 -128h-29h-34q-20 0 -45 1q-25 0 -41 9.5t-25.5 23t-13.5 29.5t-4 30v167h911zM163 247q-12 0 -21 -8.5t-9 -21.5t9 -21.5t21 -8.5q13 0 22 8.5t9 21.5t-9 21.5t-22 8.5zM316 123q-8 -26 -14 -48q-5 -19 -10.5 -37t-7.5 -25t-3 -15t1 -14.5
t9.5 -10.5t21.5 -4h37h67h81h80h64h36q23 0 34 12t2 38q-5 13 -9.5 30.5t-9.5 34.5q-5 19 -11 39h-368zM336 498v228q0 11 2.5 23t10 21.5t20.5 15.5t34 6h188q31 0 51.5 -14.5t20.5 -52.5v-227h-327z" />
    <glyph glyph-name="star" unicode="&#xe64b;" 
d="M857 458.5q-10 28.5 -40 33.5l-181 27l-79 163q-13 28 -45 28t-45 -28l-79 -163l-181 -27q-30 -5 -40 -33.5t12 -49.5l132 -132l-31 -184q-5 -30 21 -48q13 -9 29 -9q13 0 24 6l158 85l158 -85q11 -6 24 -6q16 0 29 9q26 18 21 48l-31 184l132 132q22 21 12 49.5z
M677 311q-18 -18 -14 -42l31 -184l-158 85q-11 6 -24 6t-24 -6l-158 -85l31 184q4 24 -14 42l-132 132l180 27q27 4 38 28l79 163l79 -163q11 -24 37 -28l181 -27z" />
    <glyph glyph-name="point" unicode="&#xe644;" 
d="M322 384q0 -79 55.5 -134.5t134.5 -55.5t134.5 55.5t55.5 134.5t-55.5 134.5t-134.5 55.5t-134.5 -55.5t-55.5 -134.5v0z" />
    <glyph glyph-name="radio_current" unicode="&#xe609;" 
d="M511 832q-91 0 -174 -35t-143 -95t-95 -143t-35 -174t35 -174t95 -142.5t143 -95t174 -35.5t174 35.5t142.5 95t95 142.5t35.5 174t-35.5 174t-95 143t-142.5 95t-174 35zM441 154l-211 211l70 70l141 -141l281 281l70 -70z" />
    <glyph glyph-name="right-arrow" unicode="&#xe608;" 
d="M585 341q18 18 18 44t-18 45l-436 447q-18 19 -43.5 19t-43.5 -18.5t-18 -44.5t18 -44l393 -404l-393 -403q-18 -18 -18 -44t18 -44.5t43.5 -18.5t43.5 18zM440 789l393 -404l-393 -403q-18 -18 -18 -44t18 -44.5t43.5 -18.5t43.5 18l436 448q18 18 18 44t-18 45
l-436 447q-18 19 -43.5 19t-43.5 -18.5t-18 -44.5t18 -44z" />
    <glyph glyph-name="left-arrow" unicode="&#xe611;" 
d="M439 427q-18 -18 -18 -44t18 -45l436 -447q18 -19 43.5 -19t43.5 18.5t18 44.5t-18 44l-393 404l393 403q18 18 18 44t-18 44.5t-43.5 18.5t-43.5 -18zM584 -21l-393 404l393 403q18 18 18 44t-18 44.5t-43.5 18.5t-43.5 -18l-436 -448q-18 -18 -18 -44t18 -45l436 -447
q18 -19 43.5 -19t43.5 18.5t18 44.5t-18 44v0z" />
    <glyph glyph-name="box" unicode="&#xe604;" 
d="M884 680l-365 116q-18 6 -37 0l-344 -114q-7 -2 -7.5 -9.5t6.5 -10.5l339 -135q49 -20 99 1l310 128q8 3 7.5 12t-8.5 12zM509 51l-23 377q-2 34 -34 47l-326 138q-9 4 -17 -2.5t-6 -16.5l57 -317q8 -41 43 -63l282 -177q8 -5 16.5 0t7.5 14zM870 603l-270 -122
q-24 -12 -38 -34t-14 -49l-2 -343q0 -13 11.5 -19t22.5 1l291 207q21 18 25 52l25 270q4 37 -10 44.5t-41 -7.5z" />
    <glyph glyph-name="radiooff" unicode="&#xe722;" 
d="M512 869q-99 0 -188.5 -38.5t-154.5 -103.5t-103.5 -154.5t-38.5 -188.5t38.5 -188.5t103.5 -154.5t154.5 -103.5t188.5 -38.5t188.5 38.5t154.5 103.5t103.5 154.5t38.5 188.5t-38.5 188.5t-103.5 154.5t-154.5 103.5t-188.5 38.5zM512 -4q-105 0 -194.5 52
t-141.5 141.5t-52 194.5t52 194.5t141.5 141.5t194.5 52t194.5 -52t141.5 -141.5t52 -194.5t-52 -194.5t-141.5 -141.5t-194.5 -52z" />
    <glyph glyph-name="menu" unicode="&#xe63a;" 
d="M913 667h-802q-33 0 -57 24t-24 57.5t24 57.5t57 24h802q33 0 57 -24t24 -57.5t-24 -57.5t-57 -24zM994 385.5q0 33.5 -24 57.5t-57 24h-802q-33 0 -57 -24t-24 -57.5t24 -57.5t57 -24h802q33 0 57 24t24 57.5zM994 22.5q0 33.5 -24 57.5t-57 24h-802q-33 0 -57 -24
t-24 -57.5t24 -57.5t57 -24h802q33 0 57 24t24 57.5z" />
    <glyph glyph-name="xiajiantou" unicode="&#xe7d8;" 
d="M1011 809l-72 72l-425 -425l-425 425l-72 -72l497 -497zM514 47l-425 424l-72 -72l497 -497l497 497l-72 72z" />
    <glyph glyph-name="folder_add" unicode="&#xe645;" 
d="M960 112h-48v48q0 20 -14 34t-34 14t-34 -14t-14 -34v-48h-48q-20 0 -34 -14t-14 -34t14 -34t34 -14h48v-48q0 -20 14 -34t34 -14t34 14t14 34v48h48q20 0 34 14t14 34t-14 34t-34 14zM0 80q0 -20 14 -34t34 -14h630q-6 15 -6 32q0 40 28 68t68 28q0 40 28 68t68 28
t68 -28t28 -68q36 0 64 -25v457h-1024v-512zM976 736h-592l-96 96h-240q-20 0 -34 -14t-14 -34v-144h1024v48q0 20 -14 34t-34 14z" />
    <glyph glyph-name="view" unicode="&#xe62c;" 
d="M644 575h-357q-14 0 -14 14t14 14h357q14 0 14 -14q0 -6 -4.5 -10t-9.5 -4zM470 449h-183q-14 0 -14 14t14 14h186q14 0 14 -14q0 -6 -5.5 -10t-11.5 -4zM726 30h-492q-30 0 -52 21.5t-22 51.5v557q0 29 22 51t52 22h492q29 0 51 -22t22 -51v-85q0 -14 -14 -14t-14 14v85
q0 19 -13 32t-32 13h-492q-19 0 -32 -13t-13 -32v-557q0 -19 13 -32t32 -13h492q19 0 32 13t13 32q0 14 14 14t14 -14q0 -31 -21.5 -52t-51.5 -21zM694.5 212q-58.5 0 -99.5 42t-41 99t42 99t99 42t98.5 -42t41.5 -99t-41 -99t-99.5 -42zM694.5 468q-46.5 0 -79.5 -33
t-33 -79.5t33 -79.5t79.5 -33t79.5 33t33 79.5t-33 79.5t-79.5 33zM920 136q-9 0 -11 3l-124 124q-10 10 0 20t20 0l123 -124q10 -10 0 -20q-5 -3 -8 -3z" />
    <glyph glyph-name="search" unicode="&#xe65d;" 
d="M400 870q-101 0 -187 -50t-136 -136t-50 -186.5t50 -186.5t136 -136t186.5 -50t186.5 50t136 136t50 187q0 100 -49 186t-135 136t-188 50zM400 227q-111 0 -191 80t-80 191t80 190.5t191 79.5t190.5 -79.5t79.5 -190.5q0 -115 -77.5 -193t-192.5 -78zM854 -105l-271 271
q-19 19 -19 48.5t19 48.5l6 5q19 19 48 19t49 -19l270 -271q19 -19 19 -48.5t-19 -48.5l-5 -5q-19 -23 -48.5 -23t-48.5 23z" />
    <glyph glyph-name="gerengongzuo" unicode="&#xe666;" 
d="M369 -97q-11 20 -11 36h-256v245q0 53 34.5 92.5t88.5 51.5q58 -52 174 -52q110 0 174 52q38 -7 77 -36q10 8 28 25.5t29 25.5q-29 29 -72 46q66 92 66 210q0 134 -84.5 213t-212.5 79q-130 0 -216 -78.5t-86 -213.5q0 -118 67 -210q-59 -19 -96 -69.5t-37 -114.5v-333
h358q-20 20 -25 31zM169 599q0 104 65.5 164.5t165 60.5t165 -60.5t65.5 -164.5q0 -107 -67 -179t-163.5 -72t-163.5 72t-67 179zM532 5q-8 7 -14.5 5t-10.5 -10l-21 -72q-7 -15 11 -15h5l71 20q23 8 6 26zM548 61q-8 -7 -8 -17.5t8 -17.5l56 -57q8 -7 18 -7t18 7l276 272
l-92 92zM978 338l-56 56q-8 8 -18.5 8t-17.5 -8l-41 -41l92 -92l41 41q8 8 8 18t-8 18z" />
    <glyph glyph-name="changyong" unicode="&#xe667;" 
d="M481 476q0 -24 -17.5 -42.5t-43.5 -18.5h-343q-24 0 -43 17.5t-19 43.5v343q0 24 18 43t44 19h343q24 0 42.5 -18t18.5 -44v-343zM481 -51q0 -24 -17.5 -43t-43.5 -19h-343q-24 0 -43 18t-19 44v343q0 24 18 42.5t44 18.5h343q24 0 42.5 -17.5t18.5 -43.5v-343zM1009 476
q0 -24 -18 -42.5t-44 -18.5h-343q-24 0 -42.5 17.5t-18.5 43.5v343q0 24 17.5 43t43.5 19h343q24 0 43 -18t19 -44v-343zM1009 -51q0 -24 -18 -43t-44 -19h-343q-24 0 -42.5 18t-18.5 44v343q0 24 17.5 42.5t43.5 18.5h343q24 0 43 -17.5t19 -43.5v-343z" />
    <glyph glyph-name="gonggongxinxi" unicode="&#xe668;" 
d="M768 502v297q0 34 -23.5 58t-58.5 24h-573q-35 0 -58.5 -24t-23.5 -58v-738q0 -34 23.5 -57.5t58.5 -23.5h286v46h-286q-16 0 -26 10t-10 25v738q0 15 10 25.5t26 10.5h578q16 0 26 -10.5t10 -25.5v-297h41zM558 732h-343q-15 0 -25.5 -10t-10.5 -25.5t10.5 -26
t25.5 -10.5h338q15 0 25.5 10.5t10.5 25.5t-9.5 25.5t-21.5 10.5zM558 579h-343q-15 0 -25.5 -10.5t-10.5 -26t10.5 -25.5t25.5 -10h338q15 0 25.5 10t10.5 26q0 15 -9.5 25.5t-21.5 10.5zM389 415h-174q-15 0 -25.5 -10.5t-10.5 -25.5t10.5 -25.5t25.5 -10.5h169
q15 0 25.5 10.5t10.5 25.5t-9.5 25.5t-21.5 10.5zM727 420q-111 0 -188.5 -77.5t-77.5 -189t77.5 -189t188.5 -77.5t188.5 77.5t77.5 189t-77.5 189t-188.5 77.5zM732.5 -51q-18.5 0 -30 12t-11.5 29q0 18 12.5 29.5t28.5 11.5q19 0 30 -12.5t11 -29t-11 -28.5t-29.5 -12z
M850 215q-10 -20 -21 -31l-41 -41l-15 -15q-5 0 -10 -5q0 -3 -2.5 -5.5t-2.5 -4.5q0 -11 -5 -16q-7 -25 -31 -25q-10 0 -20.5 10t-10.5 26q0 25 5 35q11 21 16 26q2 5 6 8.5t11.5 10t13 12t14.5 12t11 8.5q10 10 10 16q5 5 5 20q0 20 -15 35.5t-36 15.5q-25 0 -41 -15
q-10 -10 -20 -41q-8 -31 -31 -31q-5 0 -8.5 1t-9 4.5t-8.5 4.5q-10 11 -10 21q0 20 16 51q17 27 46 41q30 15 66 15q39 0 62 -15q25 -13 40.5 -36t15.5 -51q8 -25 0 -41z" />
    <glyph glyph-name="jiantou-xia" unicode="&#xe669;" 
d="M543 184q15 -15 15 -33t-15.5 -33.5t-33 -15.5t-33.5 16l-461 461q-15 15 -15 33t15.5 33t33.5 15t33 -15zM942 650q15 16 33 16t33.5 -15.5t15.5 -33.5t-15 -33l-461 -461q-16 -15 -33.5 -15t-33 15t-15.5 33t15 33z" />
    <glyph glyph-name="gongwenguanli" unicode="&#xe66a;" 
d="M742 742v134h-599v-850h139v-139h425l169 169v686h-134zM200 819h481v-604h-133v-128h-348v732zM824 77h-133v-128h-348v77h230l169 169v486h82v-604z" />
    <glyph glyph-name="jiantou-shang" unicode="&#xe66b;" 
d="M543 584q15 15 15 33t-15.5 33.5t-33 15.5t-33.5 -16l-461 -461q-15 -15 -15 -33t15.5 -33t33.5 -15t33 15zM942 118q15 -16 33 -16t33.5 15.5t15.5 33.5t-15 33l-461 461q-16 15 -33.5 15t-33.5 -15q-15 -11 -15 -30.5t15 -30.5z" />
    <glyph glyph-name="jiantou-you" unicode="&#xe66c;" 
d="M712 415q15 15 33 15t33.5 -15.5t15.5 -33t-16 -33.5l-461 -461q-15 -15 -33 -15t-33 15.5t-15 33.5t15 33zM246 814q-16 15 -16 33t15.5 33.5t33.5 15.5t33 -15l461 -461q15 -16 15 -33.5t-15 -33t-33 -15.5t-33 15z" />
    <glyph glyph-name="jiantou-zuo" unicode="&#xe66d;" 
d="M312 353q-15 -15 -33 -15t-33.5 15.5t-15.5 33t16 33.5l461 461q15 15 33 15t33 -15.5t15 -33.5t-15 -33zM778 -46q16 -15 16 -33t-15.5 -33.5t-33.5 -15.5t-33 15l-461 461q-15 16 -15 33.5t15 33.5q11 15 30.5 15t30.5 -15z" />
    <glyph glyph-name="shiwuchuli" unicode="&#xe66e;" 
d="M497 148l46 41l179 -174l-46 -46zM968 317l46 -46l-313 -307l-46 46zM241 287h158q12 0 21.5 -9.5t9.5 -21.5t-9.5 -21.5t-21.5 -9.5h-158q-12 0 -21.5 9.5t-9.5 21.5q-4 12 5.5 21.5t25.5 9.5zM241 481h384q11 0 20.5 -9.5t9.5 -21t-9.5 -21t-20.5 -9.5h-384
q-15 -4 -25.5 5.5t-10.5 25.5q0 11 10.5 20.5t25.5 9.5zM241 676h384q11 0 20.5 -9.5t9.5 -21t-9.5 -21.5t-20.5 -10h-384q-15 -3 -25.5 5.5t-10.5 20.5q0 15 10 25.5t26 10.5zM722 865h-579q-53 0 -90.5 -37t-37.5 -91v-706q0 -54 37.5 -91t90.5 -37h420v66h-420
q-27 0 -46.5 20t-19.5 47v701q0 27 19.5 47t46.5 20h579q27 0 46.5 -20t19.5 -47v-384h67v384q-4 54 -42 91t-91 37z" />
    <glyph glyph-name="richenganpai" unicode="&#xe66f;" 
d="M916 -97h-808q-31 0 -51.5 19.5t-20.5 46.5v722q0 27 20.5 47t51.5 20h35v-103q0 -27 21 -46.5t51 -19.5h72q30 0 50.5 19.5t20.5 46.5v103h297v-103q0 -27 21 -46.5t51 -19.5h72q30 0 50.5 19.5t20.5 46.5v103h36q31 0 51.5 -20t20.5 -47v-717q11 -29 -9 -50t-53 -21z
M916 522h-808v-548h814v548h-6zM625 323q-5 -4 -16 -12t-17.5 -12.5t-14.5 -12t-14 -15.5q-15 -25 -31 -71q-1 -7 -5.5 -25.5t-7 -33.5t-2.5 -28h-82q8 72 31 117q17 35 66 93h-133v61h226v-61zM768 625q-30 0 -51 19.5t-21 46.5v103q0 27 21 46.5t51 19.5t51 -19.5
t21 -46.5v-103q3 -26 -19 -46t-53 -20zM256 625q-31 0 -54 19.5t-23 46.5v103q0 27 21 46.5t51 19.5t51 -19.5t21 -46.5v-103q3 -26 -18 -46t-49 -20z" />
    <glyph glyph-name="shoucang" unicode="&#xe670;" 
d="M512 876l184 -374h308l-246 -246l118 -364l-364 180l-364 -180l118 364l-246 246h308z" />
    <glyph glyph-name="shouye" unicode="&#xe671;" 
d="M594 -41v251h-159v-251h-240q-20 0 -30.5 11t-10.5 30v312q0 5 10 16q33 30 102 89t103 90q41 41 133 123q2 0 4.5 2.5t5.5 2.5q13 -13 41 -36t41 -36q43 -38 133 -115t133 -115q6 -6 9 -9.5t5 -9t2 -12.5v-297q0 -34 -21 -41q-5 -5 -20 -5h-241zM712 660v118
q0 19 5.5 25t24.5 6h108q15 0 20.5 -5t5.5 -21v-245q0 -6 1 -10.5t2 -7t3.5 -7t3.5 -6.5q20 -18 58.5 -51.5t59.5 -51.5q15 -11 15.5 -20.5t-10.5 -25.5q-5 -5 -15.5 -17.5t-15.5 -17.5q-13 -21 -36 -6q-276 246 -415 364l-15 15q-31 -30 -92 -82q-101 -87 -333 -297
q-19 -19 -36 6q-5 7 -15 20t-16 21q-21 14 0 35q31 29 92.5 82.5t92.5 81.5q87 77 251 220q27 27 56 27t56 -27q23 -20 66.5 -58.5t66.5 -58.5q3 0 5.5 -3t5.5 -3z" />
    <glyph glyph-name="shuaxin" unicode="&#xe672;" 
d="M876 748q-71 70 -164.5 109t-199.5 39q-162 0 -292.5 -92t-188.5 -241l123 -46q38 112 137 181.5t221 69.5q159 0 271 -113l-143 -143h384v384zM512 0q-159 0 -271 113l143 143h-384v-384l148 148q71 -70 164.5 -109t199.5 -39q162 0 292.5 92t188.5 241l-123 46
q-38 -112 -137 -181.5t-221 -69.5z" />
    <glyph glyph-name="wangshangjiaoliu" unicode="&#xe673;" 
d="M1009 220v579q0 15 -13 28t-28 13h-912q-15 0 -28 -13t-13 -28v-579q0 -15 13 -28t28 -13h415l-82 -164h-333q-15 0 -28 -12.5t-13 -28t13 -28.5t28 -13h912q15 0 28 13t13 28.5t-13 28t-28 12.5h-333l-82 164h415q16 0 28.5 11.5t12.5 29.5zM927 261h-830v497h830v-497z
" />
    <glyph glyph-name="tongzhi" unicode="&#xe674;" 
d="M553 804q-26 8 -46 -5l-246 -205h-194q-16 0 -26 -10q-15 -16 -15 -31v-338q0 -10 10 -31q10 -10 31 -10h194l241 -200q2 -1 6.5 -3.5t6.5 -3.5t5.5 -2t6.5 -1q11 0 16 5q11 4 18 14t7 22v758q9 25 -15 41zM717 589q-16 7 -32.5 1t-24.5 -22q-7 -15 -1 -31.5t22 -24.5
q2 0 9 -4.5t17 -14.5t19 -24t15.5 -36.5t6.5 -48.5q0 -29 -6.5 -53t-15.5 -38t-18 -24.5t-16 -13.5l-6 -4q-15 -8 -21.5 -24.5t1.5 -31.5q3 -12 13.5 -19t21.5 -7t21 5q2 0 13 7t27 23.5t31 39t25.5 60t10.5 80.5t-11 80t-26.5 59t-32.5 37.5t-28 22t-14 6.5zM845 717
q-16 7 -32.5 4t-24.5 -14q-7 -16 -4 -32.5t15 -24.5l5 -4t11 -9.5t15 -15t18 -21.5t18 -27.5t17 -35t14.5 -41.5t10 -49.5t3.5 -57.5q0 -27 -2.5 -52t-7.5 -45.5t-12 -39.5t-14 -33t-15.5 -27.5t-15.5 -22.5t-14.5 -17t-12.5 -12.5t-9 -8l-4 -3.5q-16 -12 -19 -28.5t9 -27.5
q20 -21 35.5 -21t25.5 5q0 1 3 2q12 10 22.5 20t34.5 40t40.5 64t29.5 89.5t13 117.5q0 36 -5 70t-13.5 61.5t-19.5 52.5t-24 44t-25 35t-24 28t-20.5 19.5t-15 12.5zM845 717z" />
    <glyph glyph-name="wodebianqian" unicode="&#xe675;" 
d="M189 845q-103 -230 -143 -522q28 -8 87 -21t87 -20q80 247 103 532q-58 65 -134 31zM835 215v-31h-456v31h456zM220 87h717v425l-149 -5h-25v25l10 134h-409q2 15 4.5 43t5.5 44h461l15 -11l159 -153l15 -16v-573h-829zM916 558l-97 92l-10 -97zM379 353v-30h450v30h-450
zM379 476v-31h271v31h-271zM379 604v-31h271v31h-271zM36 67l-36 -67l20 -82q6 0 36 -10l52 61v77zM205 251q-10 -31 -33.5 -95t-33.5 -95q-87 22 -118 26q6 33 13.5 99.5t12.5 100.5q26 -5 79.5 -18t79.5 -18z" />
    <glyph glyph-name="tongxunlu" unicode="&#xe676;" horiz-adv-x="1029" 
d="M568 338q72 72 72 174v128q0 108 -74 182t-182 74t-182 -74t-74 -182v-128q0 -102 72 -174q-79 -43 -132 -114t-68 -157q0 -81 57 -138t138 -57h384q80 0 137 57t57 138q-19 84 -73.5 156.5t-131.5 114.5zM256 640q0 54 37 91t91 37t91 -37t37 -91v-128q0 -54 -37 -91
t-91 -37t-91 37t-37 91v128zM579 0h-384q-27 0 -47 20t-20 47q23 84 95.5 139t160.5 55t160.5 -55t95.5 -139q0 -27 -19 -47t-42 -20zM768 579h195q24 0 42.5 17.5t18.5 43.5t-19.5 43.5t-47.5 17.5h-189q-26 0 -43.5 -18.5t-17.5 -42.5q0 -27 17 -44t44 -17zM963 512h-128
q-27 0 -47 -20t-20 -46.5t20 -46.5t47 -20h128q26 0 46 20t20 46q-4 27 -23.5 47t-42.5 20zM963 317h-67q-27 0 -47 -19.5t-20 -46.5t20 -47t47 -20h67q26 0 46 20t20 47q-4 30 -23 48t-43 18z" />
    <glyph glyph-name="wodedaiban" unicode="&#xe677;" 
d="M51 865h256v-256h-256v256zM399 783h589v-92h-589v92zM399 440h589v-87h-589v87zM51 159h256v-256h-256v256zM399 77h589v-92h-589v92zM154 369l-77 71l-41 -46l123 -107l15 15l174 174l-41 46z" />
    <glyph glyph-name="wodeweituo" unicode="&#xe678;" horiz-adv-x="1025" 
d="M1019 174q-13 9 -115.5 101.5t-109.5 103.5q-7 7 -13.5 10.5t-9.5 4.5h-3h-338q-2 0 -6 -0.5t-13.5 -4t-16 -8.5t-12 -15t-3.5 -23q0 -23 14 -41t37 -26q8 -1 149 -15q6 0 6 -4t-3 -7l-3 -4l-67 -46h-225q-93 66 -149 112q-80 59 -124 12l-9 -12q-10 -25 0 -41
q11 -10 79 -71.5t116.5 -105t55.5 -48t14.5 -6t11.5 -0.5l5 1h384q13 0 26 -5t19 -10l6 -6q61 -51 77 -66q13 -11 25 -10.5t15.5 4t5.5 6.5v0l174 189q15 16 0 31zM1019 174zM758 773q0 -11 -6.5 -18t-14.5 -7h-435q-11 0 -18.5 7t-7.5 18v15q0 13 7.5 24.5t18.5 11.5h435
q21 0 21 -36v-15zM118 783zM82 783q0 -16 10.5 -28.5t25.5 -12.5t25.5 12.5t10.5 28.5t-10.5 26t-26 10t-25.5 -10t-10 -26zM758 568q0 -11 -6.5 -18t-14.5 -7h-435q-11 0 -18.5 7t-7.5 18v16q0 12 7.5 24t18.5 12h435q21 0 21 -36v-16zM118 579zM82 579q0 -16 10.5 -28.5
t25.5 -12.5t25.5 12.5t10.5 28.5q0 15 -10.5 25t-26 10t-25.5 -10t-10 -25v0z" />
    <glyph glyph-name="wodeyoujian" unicode="&#xe679;" 
d="M983 701q-20 21 -46 21h-850q-18 0 -41 -15l-5 -6q-21 -20 -21 -51v-537q0 -33 21 -46q2 -2 8 -6.5t9 -6l8 -4t10 -3.5t11 -1h855q26 0 46.5 20.5t20.5 46.5v537q-9 34 -26 51zM937 620v-466l-277 230l149 123zM512 348l-261 215l-103 87h728zM87 620l277 -236l-221 -189
l-56 -47v472zM143 113l272 230l77 -61q10 -11 20 -11h5q5 0 10 5q5 0 5 6l77 61l272 -230h-738z" />
    <glyph glyph-name="xinwengonggao" unicode="&#xe67a;" 
d="M906 809h-788q-46 0 -79.5 -33.5t-33.5 -79.5v-619q0 -46 33.5 -79.5t79.5 -33.5h788q46 0 79.5 33.5t33.5 79.5v619q0 46 -33.5 79.5t-79.5 33.5zM957 72q0 -20 -14.5 -36t-36.5 -16h-788q-20 0 -35.5 14.5t-15.5 37.5v624q0 20 14.5 36t36.5 16h788q20 0 35.5 -14.5
t15.5 -37.5v-624zM154 650h716v-66h-716v66zM543 517h327v-72h-327v72zM543 379h327v-97h-327v97zM543 189h266v-66h-266v66zM154 512h312v-389h-312v389z" />
    <glyph glyph-name="ziyuanguanli" unicode="&#xe67b;" 
d="M507 323q-10 0 -31 10l-430 230q-2 0 -5 2.5t-5 2.5q-16 16 -16 35.5t16 31.5q2 2 7.5 5t7.5 5l435 215q21 10 31 10t31 -10l425 -200q2 0 4.5 -2.5t5.5 -2.5q15 -15 15 -35.5t-15 -35.5l-5 -5l-440 -246q-21 -10 -31 -10zM113 599l394 -210l404 225l-394 185zM502 179
q-10 0 -31 10l-425 231q-12 8 -17 21t2 25t20.5 15t25.5 -5l425 -230l435 246q12 7 25 4t21 -14.5t4.5 -25t-14.5 -21.5l-441 -246q-10 -10 -30 -10zM502 41q-10 0 -31 10l-425 231q-15 7 -15 20q0 15 5 26q7 11 20.5 15t25.5 0l425 -230l435 245q12 8 25 5t21 -14.5t5 -25
t-15 -21.5l-440 -246q-7 -10 -14.5 -12.5t-21.5 -2.5zM502 -102q-10 0 -31 10l-430 230q-15 8 -15 21q0 15 5 25q7 11 21 15.5t25 0.5l425 -231l435 246q12 8 25 4.5t21 -15t4.5 -25t-14.5 -20.5l-441 -246q-7 -15 -30 -15z" />
    <glyph glyph-name="qingjia" unicode="&#xe67c;" 
d="M67 727h194v-56q0 -12 9.5 -21.5t21 -9.5t21.5 9.5t10 21.5v56h245v-56q0 -12 10 -21.5t21.5 -9.5t21 9.5t9.5 21.5v56h169v-282h66v282q0 27 -19.5 47t-46.5 20h-164v61q0 12 -9.5 21.5t-21 9.5t-21.5 -9.5t-10 -21.5v-61h-250v61q0 12 -10 21.5t-21.5 9.5t-21 -9.5
t-9.5 -21.5v-61h-194q-27 0 -47 -20t-20 -47v-619q0 -27 20 -47t47 -20h389v67h-389v619zM220 502zM169 502q0 -12 7.5 -25t18.5 -16q25 -17 50.5 0t25.5 41q0 12 -7 24.5t-18 16.5q-26 17 -51.5 0t-25.5 -41zM440 502zM389 502q0 -12 7.5 -25t18.5 -16q25 -17 51 0t26 41
q0 12 -7.5 24.5t-18.5 16.5q-26 17 -51.5 0t-25.5 -41zM650 502zM604 502q0 -12 7.5 -25t18.5 -16q25 -17 51 0t26 41q0 12 -7.5 24.5t-18.5 16.5q-26 17 -51 0q-26 -13 -26 -41zM220 307zM169 307q0 -12 7.5 -24.5t18.5 -16.5q11 -7 25 -7t26 7q25 17 25 41q0 12 -7 24.5
t-18 16.5q-26 17 -51 0q-11 -4 -18.5 -16.5t-7.5 -24.5zM440 307zM389 307q0 -12 7.5 -24.5t18.5 -16.5q25 -17 51 0t26 41q0 12 -7.5 24.5t-18.5 16.5q-26 17 -51 0q-11 -4 -18.5 -16.5t-7.5 -24.5zM773 379q-104 0 -177.5 -73.5t-73.5 -177.5t73.5 -177.5t177.5 -73.5
t177.5 73.5t73.5 177.5t-73.5 177.5t-177.5 73.5zM773 -56q-77 0 -130.5 53.5t-53.5 130.5t53.5 130.5t130.5 53.5t130.5 -53.5t53.5 -130.5t-53.5 -130.5t-130.5 -53.5zM870 164h-61v72q0 11 -9.5 20.5t-21 9.5t-21 -9.5t-9.5 -20.5v-108q0 -12 9.5 -21.5t20.5 -9.5h92
q12 0 21.5 9.5t9.5 21.5q0 15 -9.5 25.5t-21.5 10.5z" />
    <glyph glyph-name="xinwenfabu" unicode="&#xe67d;" 
d="M835 445h-640v256h61v-189h512v189h67v-256zM707 579h-195v122h67v-61h61v61h67v-122zM1024 -128h-1024v1024h835v-67h-768v-896h896v768h61v-829zM195 317h640v-61h-640v61zM195 189h640v-61h-640v61zM195 61h640v-61h-640v61z" />
    <glyph glyph-name="yongyinshenqing" unicode="&#xe67e;" 
d="M292 435q5 -10 15 -20l16 -16q11 -11 11 -20.5t-11 -25.5l-11 -10q-4 0 -7 -3t-3 -7l-5 -5q-15 -16 -21 -26q-11 -19 -11 -41t11 -41q22 -36 67 -36h338q15 0 26 5q31 7 51 47q15 37 -10 71q-9 17 -26 26l-10 10q-16 15 -16 26t16 30q2 10 7 18t13 19t10 15q67 96 52 215
q-16 87 -67 138q-50 58 -128 82q-61 10 -92 10q-108 0 -190 -82q-102 -94 -87 -230q8 -80 62 -149zM358 773q29 29 72 46q38 16 77 16q20 0 72 -11q65 -24 102 -61q35 -42 51 -108q7 -43 0 -87q-17 -52 -41 -82q-5 -7 -15 -20t-16 -21q-63 -71 6 -133q1 -2 3 -4.5t3.5 -4
t3.5 -1.5l20 -20q3 -3 4 -6.5t1 -6.5v-3q0 -4 -3 -7t-7 -3h-348q-6 0 -9.5 2.5t-5.5 2.5q-7 7 0 21q0 5 10 15l5 5l10 10l16 16q24 28 25 59.5t-25 63.5q-5 -6 -16 5q-2 2 -4.5 7t-5.5 8q-51 68 -51 118q-7 50 10 102q13 39 56 82zM968 77q0 36 -20.5 56.5t-56.5 20.5h-753
q-34 0 -55.5 -21.5t-21.5 -55.5v-103h907v103zM118 82q0 15 15 15h753q10 0 15 -5t5 -15v-41h-788v46zM108 -67h808v-61h-808v61z" />
    <glyph glyph-name="huiyishenqing" unicode="&#xe67f;" 
d="M763 471h-72q-7 42 -32.5 75.5t-64.5 52.5q41 41 41 97q0 54 -36.5 91t-86.5 37t-86.5 -37t-36.5 -91q0 -56 41 -97q-39 -19 -64.5 -52.5t-32.5 -75.5h-72q-107 0 -184 -77t-77 -184.5t77 -184t184 -76.5h497q107 0 184 76.5t77 184.5q4 107 -72 184t-184 77zM512 768
q30 0 51 -23t21 -54t-21 -54t-51 -23t-51 23t-21 54q0 34 20.5 55.5t51.5 21.5zM512 568q45 0 78.5 -26.5t49.5 -70.5h-251q12 42 46.5 69.5t76.5 27.5zM512 113q50 0 85 -31.5t43 -81.5h-256q8 50 43 81.5t85 31.5zM440 240.5q0 31.5 21 54t51 22.5t51 -22.5t21 -54
t-21 -54t-51 -22.5t-51 22.5t-21 54zM763 0h-67q-3 45 -30.5 84.5t-66.5 58.5q41 41 41 98q0 53 -36.5 90.5t-86.5 37.5t-86.5 -37.5t-36.5 -90.5q0 -57 41 -98q-41 -19 -67 -57.5t-30 -85.5h-77q-88 0 -149 61t-61 149t61 149t149 61h497q88 0 149 -61t61 -149t-60 -149
t-145 -61z" />
    <glyph glyph-name="shouwenguanli" unicode="&#xe680;" 
d="M788 184l236 533l-128 56l-236 -532zM906 302v-369h-845v902h845q10 0 10 -6l52 -20v56q0 12 -10 21.5t-21 9.5h-906q-12 0 -21.5 -9.5t-9.5 -21.5v-967q0 -9 10 -17.5t21 -8.5h911q12 0 21.5 9.5t9.5 21.5v537zM645 205l128 -57l-133 -128zM466 358h-282q-11 0 -20.5 10
t-9.5 21.5t9.5 21t20.5 9.5h277q11 0 21 -9.5t10 -21.5q3 -11 -5.5 -21t-20.5 -10zM660 584h-476q-11 0 -20.5 9.5t-9.5 21t9.5 21t20.5 9.5h476q12 0 21.5 -9.5t9.5 -21t-9.5 -21t-21.5 -9.5zM466 128h-282q-11 0 -20.5 9.5t-9.5 21t9.5 21t20.5 9.5h277q11 0 21 -9.5
t10 -20.5q3 -11 -5.5 -21t-20.5 -10v0z" />
  </font>
</defs>
</svg>
